<svg width="435" height="384" viewBox="0 0 435 384" fill="none" xmlns="http://www.w3.org/2000/svg">
<path d="M397.34 302.891C392.083 217.116 340.394 112.24 250.885 112.24C193.221 112.24 129.55 217.178 123.962 302.891H397.34Z" fill="#3AB8A5"/>
<path d="M396.048 288.579L362.218 288.779L328.387 288.854L260.72 288.991L193.059 288.854L159.229 288.785L125.398 288.579L159.229 288.379L193.059 288.304L260.72 288.167L328.387 288.304L362.218 288.379L396.048 288.579Z" fill="#3AB8A5"/>
<path d="M260.952 184.478H231.879C214.72 184.478 200.809 198.389 200.809 215.548V288.966H292.022V215.548C292.022 198.389 278.11 184.478 260.952 184.478Z" fill="#48574B"/>
<path d="M247.446 184.478H245.379V288.997H247.446V184.478Z" fill="#1D211D"/>
<path d="M322.031 302.89H130.519L214.626 95.5059L278.435 115.724C278.435 115.724 297.941 134.238 307.026 168.137C316.111 202.03 322.031 302.89 322.031 302.89Z" fill="#3AB8A5"/>
<path d="M384.978 294.354C377.017 294.354 370.454 298.082 369.536 302.89H400.426C399.495 298.082 392.939 294.354 384.978 294.354Z" fill="#89768C"/>
<path d="M322.03 302.89L214.626 95.5059L278.434 115.724C278.434 115.724 297.941 134.238 307.026 168.137C316.111 202.03 322.03 302.89 322.03 302.89Z" fill="#61C6B7"/>
<path d="M130.519 302.89L241.694 147.769L214.626 95.5059L130.519 302.89Z" fill="#58938D"/>
<path d="M130.519 302.89L241.694 147.769L214.626 95.5059L130.519 302.89Z" fill="#3AB8A5"/>
<path d="M130.519 295.379C122.558 295.379 115.995 298.657 115.077 302.891H145.967C145.042 298.657 138.48 295.379 130.519 295.379Z" fill="#89768C"/>
<path d="M336.299 151.109L342.487 155.955L351.491 165.071L348.7 169.348L336.299 151.109Z" fill="#3AB8A5"/>
<path d="M288.369 236.94L264.142 189.617L214.626 95.5059L175.026 193.038L154.877 242.017L130.519 302.89L156.569 242.342L176.288 193.538L214.732 97.6288L262.918 190.247L287.595 237.346L312.434 284.358L288.369 236.94Z" fill="#F9A94B"/>
<path d="M375.743 186.194C375.743 186.194 389.199 170.09 380.607 153.881L347.838 185.008L375.743 186.194Z" fill="#F15A24"/>
<path d="M416.092 324.676C415.704 324.676 415.317 324.576 414.968 324.351L369.105 295.822C368.106 295.198 367.8 293.886 368.418 292.881C369.042 291.882 370.354 291.57 371.353 292.194L417.215 320.723C418.215 321.348 418.52 322.659 417.902 323.664C417.503 324.32 416.803 324.676 416.092 324.676Z" fill="#563918"/>
<path d="M383.211 324.676C382.574 324.676 381.943 324.395 381.525 323.852C380.8 322.921 380.975 321.579 381.906 320.861L418.702 292.331C419.632 291.613 420.975 291.776 421.693 292.712C422.417 293.643 422.242 294.985 421.312 295.703L384.516 324.232C384.122 324.526 383.666 324.676 383.211 324.676Z" fill="#563918"/>
<path d="M337.341 184.771L331.384 178.727C331.384 178.727 331.472 211.077 323.654 215.523C315.83 219.969 293.97 222.81 293.97 222.81L297.879 228.854C297.879 228.854 337.166 241.473 348.362 234.368C359.564 227.256 337.341 184.771 337.341 184.771Z" fill="#A13210"/>
<path d="M386.051 252.325C386.051 252.325 332.452 232.325 316.455 237.127C300.457 241.929 293.258 249.391 298.053 260.861C302.855 272.325 354.05 310.458 355.38 314.991C356.716 319.524 344.984 324.588 344.984 324.588H373.513C373.513 324.588 371.515 313.523 370.578 312.587C369.642 311.65 335.649 265.656 338.315 260.855C340.981 256.053 384.446 292.319 392.976 286.986C401.518 281.654 386.051 252.325 386.051 252.325Z" fill="#36414F"/>
<path d="M302.343 243.715C285.94 258.507 310.204 272.463 334.3 295.834C331.946 294.111 329.667 292.3 327.357 290.527C307.057 273.611 292.321 262.622 296.767 250.452C297.841 247.611 299.945 245.345 302.343 243.715Z" fill="#F9A94B"/>
<path d="M400.182 255.347C400.182 255.347 341.787 242.054 326.321 248.185C310.854 254.317 315.075 266.774 323.636 280.48C334.975 298.637 346.065 317.651 346.065 317.651L359.115 313.117L343.511 273.255C343.511 273.255 363.916 291.251 373.782 294.185C373.782 294.185 389.779 297.12 396.717 293.917C403.647 290.72 413.251 275.847 413.251 275.847L400.182 255.347Z" fill="#616E80"/>
<path d="M326.32 248.186C304.116 258.975 324.004 275.934 343.903 313.967C339.938 308.247 334.3 299.312 333.226 297.651C320.513 277.776 304.029 255.841 326.32 248.186Z" fill="#F9A94B"/>
<path d="M331.384 178.726C331.384 178.726 357.441 168.998 370.503 171.364C383.572 173.731 408.973 235.428 414.842 255.341C420.712 275.253 417.24 281.647 417.24 281.647C417.24 281.647 391.908 273.38 377.509 264.314C363.11 255.247 350.578 241.822 350.578 241.822C350.578 241.822 320.988 189.129 331.384 178.726Z" fill="#D87306"/>
<path d="M414.849 255.348C408.98 235.435 383.579 173.737 370.51 171.371C367.544 170.834 363.898 170.921 360.045 171.377C365.452 181.599 383.148 217.096 376.323 231.807C368.306 249.085 353.795 248.823 363.585 251.376C371.415 253.418 388.936 267.536 391.965 271.844C404.509 277.495 417.253 281.654 417.253 281.654C417.253 281.654 420.712 275.254 414.849 255.348Z" fill="#A25605"/>
<path d="M342.493 190.06C343.411 194.324 353.27 238.789 369.299 258.582C370.429 259.444 371.584 260.293 372.764 261.13C372.764 261.13 358.059 248.529 344.123 189.179C344.041 189.036 337.604 182.785 335.506 177.297C334.931 177.49 334.407 177.665 333.938 177.828C334.994 180.737 337.335 184.865 342.493 190.06Z" fill="#694D0D"/>
<path d="M264.379 222.285H288.375L287.819 245.351C287.757 247.873 285.696 249.884 283.18 249.884H270.024C267.538 249.884 265.49 247.93 265.384 245.444L264.379 222.285Z" fill="#ADACCF"/>
<path d="M283.299 222.285L282.812 242.435C282.75 244.957 280.689 246.968 278.173 246.968H265.734C266.421 248.679 268.082 249.884 270.03 249.884H283.187C285.709 249.884 287.77 247.873 287.826 245.351L288.382 222.285H283.299Z" fill="#5E5186"/>
<path d="M337.167 182.641C337.167 182.641 328.369 182.017 325.078 178.733C321.787 175.442 326.589 170.11 324.01 167.531C321.431 164.952 332.452 152.776 351.522 150.996C370.591 149.217 380.188 147.443 380.9 155.442C381.612 163.441 362.324 172.001 362.324 172.001L337.167 182.641Z" fill="#4F002F"/>
<path d="M421.337 296.234H367.875C366.645 296.234 365.652 295.241 365.652 294.011C365.652 292.781 366.645 291.788 367.875 291.788H421.337C422.567 291.788 423.56 292.781 423.56 294.011C423.56 295.235 422.567 296.234 421.337 296.234Z" fill="#A13210"/>
<path d="M358.527 313.692C358.527 313.692 359.314 310.095 361.837 309.896L363.46 311.787L359.014 313.973L358.527 313.692Z" fill="#36414F"/>
<path d="M344.959 305.032C344.959 305.032 342.974 311.669 342.243 313.824C341.506 315.978 334.076 316.596 330.348 319.119C326.62 321.641 329.243 326.98 329.243 326.98L343.673 330.021L352.296 327.798C352.296 327.798 358.44 329.059 360.551 328.016C362.661 326.974 361.675 313.586 359.932 312.993C358.19 312.4 351.247 310.495 349.823 307.604C348.4 304.726 344.959 305.032 344.959 305.032Z" fill="#485669"/>
<path d="M342.055 316.715C346.694 314.435 347.712 310.976 349.554 309.553C350.94 308.491 353.637 312.487 359.925 313.006C357.552 312.031 354.368 310.183 352.638 308.984C351.914 308.628 351.14 307.492 349.523 307.942C347.943 308.397 346.575 310.995 345.626 312.494C344.627 313.998 343.428 315.409 342.055 316.715Z" fill="#36414F"/>
<path d="M341.556 313.599L345.946 316.327L345.521 317.02L340.882 314.329L341.556 313.599Z" fill="#F3EEB5"/>
<path d="M340.357 314.798L344.19 317.676L343.678 317.926L339.245 315.341L340.357 314.798Z" fill="#F3EEB5"/>
<path d="M351.334 325.156C350.297 324.8 345.271 327.429 343.216 328.029C341.737 328.46 332.876 324.844 328.349 323.458C327.906 325.462 328.462 326.817 328.462 326.817L343.847 330.27L352.289 327.81C352.289 327.81 358.433 329.071 360.544 328.029C361.118 327.748 361.462 326.561 361.624 324.969C357.559 324.669 352.021 325.394 351.334 325.156Z" fill="#D87306"/>
<path d="M338.102 318.288C332.483 318.519 328.955 321.947 330.366 322.896C332.052 324.033 330.628 319.905 338.102 318.288Z" fill="#F9A94B"/>
<path d="M337.279 179.501C336.954 177.297 336.236 175.286 335.755 172.002C335.068 167.312 334.294 163.822 334.294 163.822L345.895 158.739C345.895 158.739 347.744 166.326 349.105 172.345C349.998 176.316 337.497 180.949 337.279 179.501Z" fill="#FC7575"/>
<path d="M345.895 158.745C345.895 158.745 346.201 160.088 346.67 162.173C345.733 163.578 344.384 165.07 342.517 166.975C340.65 168.873 338.253 170.696 335.755 172.008C335.068 167.318 334.294 163.834 334.294 163.834L345.895 158.745Z" fill="#FD5E5A"/>
<path d="M317.709 142.211C317.709 142.211 327.912 152.326 331.789 153.338C335.667 154.349 344.253 155.704 344.253 155.704C344.253 155.704 348.867 170.934 349.398 174.306C349.398 174.306 364.252 171.002 355.598 147.106C352.295 137.996 350.684 132.164 340.369 129.042C330.06 125.92 320.075 132.945 317.709 142.211Z" fill="#00147D"/>
<path d="M324.846 138.515C324.846 138.515 318.596 141.187 318.452 145.995C318.309 150.803 319.745 153.076 319.683 155.393C319.614 157.715 320.326 161.968 323.86 168.299C327.4 174.624 336.816 170.016 341.955 164.79C347.737 158.908 348.162 157.235 347.288 148.655C346.414 140.088 334.818 133.982 324.846 138.515Z" fill="#FC7575"/>
<path d="M326.795 160.863C326.832 160.126 325.864 161.075 323.866 158.902C324.453 157.803 324.715 156.486 324.672 155.337C324.278 157.703 323.092 158.727 322.948 158.952C323.023 159.008 324.603 161.094 326.407 161.194C326.614 161.206 326.788 161.056 326.795 160.863Z" fill="#0028A6"/>
<path d="M330.379 155.124C329.948 155.511 329.268 155.492 328.862 155.08C328.456 154.668 328.475 154.018 328.905 153.625C329.336 153.238 330.017 153.257 330.423 153.669C330.829 154.087 330.81 154.736 330.379 155.124Z" fill="#0028A6"/>
<path d="M321.5 155.642C321.069 156.029 320.389 156.011 319.983 155.598C319.577 155.186 319.596 154.537 320.026 154.144C320.457 153.756 321.138 153.775 321.544 154.187C321.95 154.599 321.931 155.249 321.5 155.642Z" fill="#0028A6"/>
<path d="M326.295 152.976C327.5 152.758 328.73 152.764 329.954 153.008C330.585 153.151 331.128 153.345 331.684 153.551C332.239 153.763 332.789 153.988 333.332 154.294C332.701 154.344 332.096 154.263 331.496 154.144C330.897 154.038 330.322 153.807 329.785 153.669C328.668 153.382 327.488 153.214 326.295 152.976Z" fill="#00115B"/>
<path d="M318.253 153.526C319.146 153.413 320.07 153.476 321 153.719C321.481 153.857 321.899 154.025 322.324 154.213C322.749 154.4 323.173 154.593 323.598 154.849C323.13 154.862 322.667 154.768 322.212 154.65C321.756 154.543 321.313 154.337 320.9 154.213C320.057 153.944 319.158 153.763 318.253 153.526Z" fill="#00115B"/>
<path d="M326.008 149.892L326.632 151.103C326.632 151.103 329.842 150.628 331.365 151.752C331.365 151.752 328.637 148.886 326.008 149.892Z" fill="#00115B"/>
<path d="M318.789 150.097L319.12 151.259C319.12 151.259 322.329 150.784 323.853 151.908C323.853 151.902 321.418 149.092 318.789 150.097Z" fill="#00115B"/>
<path d="M324.497 164.421C324.497 164.421 328.131 163.728 331.103 162.329C331.103 162.329 328.724 166.906 326.97 166.856C325.215 166.806 324.497 164.421 324.497 164.421Z" fill="white"/>
<path d="M318.24 134.631C318.24 134.631 313.189 135.88 314.294 140.55C315.393 145.221 328.256 149.835 336.585 148.124C339.707 147.481 339.826 149.28 341.15 150.341C343.354 152.114 345.308 154.35 343.772 158.209C341.312 164.39 338.34 161.493 338.34 161.493C338.34 161.493 341.068 164.884 348.293 162.33C355.517 159.776 355.717 149.273 349.81 143.635C343.897 137.997 338.04 135.599 333.351 134.487C323.179 132.077 318.24 134.631 318.24 134.631Z" fill="#2846A6"/>
<path d="M343.81 148.748C342.948 148.823 339.414 151.552 340.594 154.031C341.781 156.516 342.755 156.628 345.065 155.255C347.375 153.893 345.989 148.555 343.81 148.748Z" fill="#FC7575"/>
<path d="M341.58 152.302C341.58 152.302 343.247 149.991 344.246 151.009C345.245 152.021 345.071 153.894 343.828 154.587C342.585 155.274 340.437 153.688 341.58 152.302Z" fill="#FD5E5A"/>
<path d="M336.435 157.927C336.554 159.089 335.08 160.163 333.157 160.338C331.228 160.512 329.573 159.713 329.461 158.552C329.342 157.39 330.816 156.31 332.739 156.142C334.668 155.973 336.323 156.772 336.435 157.927Z" fill="#FD5E5A"/>
<path d="M322.73 159.782C322.63 158.795 321.418 158.071 319.876 157.983C320.057 159.082 320.376 160.375 320.9 161.867C322.061 161.424 322.817 160.625 322.73 159.782Z" fill="#FD5E5A"/>
<path d="M329.174 171.97L333.257 183.703C333.257 183.703 334.856 189.741 344.89 189.659C353.251 189.591 358.727 184.995 361.743 181.398C363.647 179.126 364.072 175.96 362.873 173.25L358.852 164.152C358.852 164.152 342.486 175.591 336.442 175.591C330.398 175.585 329.174 171.97 329.174 171.97Z" fill="#FFCB57"/>
<path d="M341.937 189.479C342.642 189.572 343.404 189.629 344.228 189.641C344.197 189.485 344.16 189.323 344.129 189.173C344.035 189.017 336.086 181.312 334.981 175.498C334.338 175.423 333.757 175.311 333.245 175.161C333.645 177.821 335.406 182.716 341.937 189.479Z" fill="#694D0D"/>
<path d="M270.024 249.884C267.483 250.202 264.904 248.092 264.854 244.989C264.286 238.795 263.967 228.479 264.379 222.285C265.328 228.454 265.909 238.819 265.878 244.945C265.622 247.311 267.445 249.628 270.024 249.884Z" fill="#F9A94B"/>
<path d="M289.018 221.848H263.63V222.803H289.018V221.848Z" fill="#0F1D5B"/>
<path d="M309.255 224.246C309.255 224.246 295.83 220.175 293.407 219.363C293.407 219.363 282.087 224.864 278.528 226.962C274.969 229.067 272.384 235.779 273.189 235.779C273.994 235.779 278.322 230.809 279.171 229.959C280.02 229.11 281.6 229.067 281.6 229.067C281.6 229.067 271.085 240.225 271.978 241.118C272.864 242.004 284.878 230.078 285.808 231.008C286.739 231.939 272.871 241.842 274.569 243.54C276.267 245.239 288.475 233.425 288.475 234.274C288.475 235.13 281.4 241.961 282.087 242.647C282.774 243.334 295.268 236.584 297.734 234.805C300.201 233.025 309.255 231.976 309.255 231.976V224.246Z" fill="#FC7575"/>
<path d="M369.817 173.737C365.253 178.633 369.867 210.29 361.625 219.363C353.389 228.435 305.341 222.984 305.341 222.984V234.717C305.341 234.717 358.665 255.372 373.713 248.017C388.762 240.661 398.109 212.575 392.265 192.582C384.516 166.057 373.258 170.053 369.817 173.737Z" fill="#E8AB6A"/>
<path d="M369.816 173.737C366.051 178.982 371.284 210.428 361.624 219.363C368.524 209.659 364.371 178.832 369.816 173.737Z" fill="#F9A94B"/>
<path d="M71.9434 227.624C61.2786 221.224 44.4757 199.095 44.4757 199.095C44.4757 199.095 4.74467 216.428 6.61165 241.224C8.47863 266.019 26.2243 269.553 47.1545 256.372L60.7416 263.09C60.7416 263.09 87.4787 270.82 98.1498 275.354C108.815 279.887 127.672 253.755 127.672 250.021C127.678 246.287 82.6146 234.024 71.9434 227.624Z" fill="#032647"/>
<path d="M72.0808 292.956C72.0808 292.956 68.3468 299.887 69.6831 304.688C71.0193 309.49 74.6159 306.824 76.3517 313.686C76.3517 313.686 75.5525 317.351 71.1504 318.019C66.7484 318.687 58.8871 317.089 58.8871 317.089C58.8871 317.089 53.9542 287.761 60.6229 284.557C67.2791 281.354 72.0808 292.956 72.0808 292.956Z" fill="#34173A"/>
<path d="M112.63 170.777C112.63 170.777 116.283 196.709 111.656 213.062C107.035 229.415 122.09 242.703 122.09 242.703C122.09 242.703 110.988 236.04 106.898 240.886C106.898 240.886 94.8468 239.387 94.1349 223.571C93.4231 207.749 100.704 195.079 100.704 195.079L112.63 170.777Z" fill="#6F1A00"/>
<path d="M98.6118 153.051C98.6118 153.051 88.3029 148.075 76.0332 149.317C63.7699 150.56 52.0372 180.069 41.5472 185.046C31.0571 190.023 3.15234 224.69 3.15234 224.69C3.15234 224.69 11.663 236.703 16.8394 241.886C19.1996 244.246 32.025 245.944 45.2749 247.093C64.7315 248.779 83.3076 238.714 92.5176 221.499C103.826 200.363 113.173 171.322 112.63 170.785C109.164 167.313 98.6118 153.051 98.6118 153.051Z" fill="#C93F14"/>
<path d="M77.4639 238.464C87.9102 230.222 92.6432 222.429 106.074 188.979C106.767 187.256 112.518 172.626 112.631 170.784C110.764 182.923 97.7946 219.806 85.1191 232.457C82.7713 234.711 80.2238 236.765 77.4639 238.464Z" fill="#F9A94B"/>
<path d="M103.076 167.162C102.602 167.031 102.115 167.325 101.99 167.799C101.809 168.498 84.6624 233.15 51.1816 247.218C52.8301 247.161 54.4723 247.049 56.0895 246.83C87.4972 229.409 103.001 171.015 103.719 168.249C103.838 167.774 103.557 167.287 103.076 167.162Z" fill="#A0626B"/>
<path d="M61.0165 224.427C63.152 199.894 40.5047 198.42 36.3961 200.337C27.9167 204.296 22.0222 216.809 24.0016 232.157C26.0559 248.08 39.1498 304.688 39.1498 304.688H62.615C62.615 304.688 58.881 248.954 61.0165 224.427Z" fill="#163D55"/>
<path d="M110.894 242.285C97.1945 244.202 58.8809 284.151 58.8809 284.151L71.1442 297.22C71.1442 297.22 122.608 273.487 127.672 262.553C132.655 251.807 126.048 240.162 110.894 242.285Z" fill="#163D55"/>
<path d="M128.209 249.984C129.732 252.975 129.907 256.566 129.127 259.869C128.721 261.505 128.109 263.159 127.047 264.571C126.017 265.963 124.812 267.168 123.551 268.292C118.48 272.763 112.755 276.259 107.029 279.675C101.259 283.022 95.3712 286.15 89.3706 289.047C83.3825 291.957 77.332 294.742 71.1504 297.221L88.7462 287.83C94.5782 284.651 100.416 281.492 106.13 278.139C111.837 274.792 117.538 271.352 122.658 267.262C123.932 266.238 125.143 265.133 126.154 263.896C127.166 262.704 127.803 261.192 128.29 259.638C129.301 256.553 129.351 253.119 128.209 249.984Z" fill="#F9A94B"/>
<path d="M61.0164 224.427C60.854 240.668 62.6086 304.401 62.6148 304.688C60.1422 284.201 58.194 244.683 61.0164 224.427Z" fill="#F9A94B"/>
<path d="M41.229 304.869C41.229 304.869 42.0657 313.405 39.2122 318.662C36.3586 323.914 41.3414 327.067 41.3414 327.067C41.3414 327.067 64.9753 326.474 66.7423 325.1C68.5032 323.72 57.8445 303.296 57.8445 303.296L56.3022 301.778C52.2623 297.795 45.5999 298.444 42.4092 303.133L41.229 304.869Z" fill="#603E6B"/>
<path d="M38.425 322.846C37.5133 325.899 40.0235 327.035 40.0235 327.035C40.0235 327.035 64.9811 326.48 66.7419 325.1C67.1228 324.8 68.0032 322.983 66.361 321.341C59.53 322.065 44.6503 322.696 38.425 322.846Z" fill="#FF9739"/>
<path d="M49.4403 310.82C46.4369 310.82 43.9455 310.021 43.7644 309.959C43.4897 309.871 43.3398 309.571 43.4273 309.297C43.5084 309.022 43.8081 308.866 44.0891 308.96C44.1703 308.984 51.9692 311.482 56.3275 307.455C56.5398 307.261 56.8708 307.261 57.0643 307.48C57.2641 307.692 57.2516 308.023 57.0393 308.223C54.8414 310.252 51.9629 310.82 49.4403 310.82Z" fill="#FFDA88"/>
<path d="M49.4403 314.291C46.4369 314.291 43.9455 313.492 43.7644 313.43C43.4897 313.342 43.3398 313.043 43.4273 312.768C43.5084 312.493 43.8081 312.343 44.0891 312.431C44.1703 312.456 51.9692 314.953 56.3275 310.926C56.5398 310.726 56.8708 310.739 57.0643 310.957C57.2641 311.169 57.2516 311.5 57.0393 311.7C54.8414 313.729 51.9629 314.291 49.4403 314.291Z" fill="#FFDA88"/>
<path d="M64.6693 321.303C51.8815 316.958 49.2964 313.792 39.3184 322.846C45.1129 311.912 54.9785 313.761 64.6693 321.303Z" fill="#806589"/>
<path d="M92.1427 140.794C92.1427 140.794 97.1192 143.154 99.5294 149.117C101.94 155.08 111.78 161.693 111.78 161.693L107.728 169.442L92.6984 161.868L87.9092 150.597L92.1427 140.794Z" fill="#35202A"/>
<path d="M97.5197 146.682C97.2137 146.208 97.7694 130.023 97.7694 130.023C97.7694 130.023 98.6311 118.072 101.647 117.342C104.663 116.611 112.643 112.958 117.432 114.981C122.215 117.004 124.769 119.927 125.069 120.401C125.375 120.876 126.143 127.707 126.143 127.707C126.143 127.707 125.487 125.228 121.872 131.709C118.256 138.184 97.5197 146.682 97.5197 146.682Z" fill="#381A3F"/>
<path d="M99.6368 165.546C101.566 159.97 108.709 152.621 109.733 151.434L99.974 134.369C99.974 134.369 94.2856 145.284 89.8398 155.98C93.3927 159.008 96.1401 162.792 99.6368 165.546Z" fill="#FC7575"/>
<path d="M99.98 134.369C99.98 134.369 98.2629 137.666 95.9775 142.412C96.0025 148.056 98.4377 156.273 103.289 159.096C105.974 155.412 109.084 152.19 109.739 151.434L99.98 134.369Z" fill="#FD5E5A"/>
<path d="M103.851 123.704C100.185 127.476 96.5763 135.755 98.0624 143.916C99.5548 152.077 103.907 157.903 109.352 156.573C114.797 155.243 124.394 135.849 123.594 129.386C122.801 122.924 109.439 117.96 103.851 123.704Z" fill="#FC7575"/>
<path d="M95.7773 142.83C95.7773 142.83 97.6068 135.899 95.9022 133.239C94.1976 130.579 93.5294 129.13 94.0727 126.632C94.6159 124.135 87.3291 119.027 90.2263 115.83C93.1236 112.627 100.086 113.657 106.024 108.5C111.962 103.342 116.914 101.238 123.264 106.945C129.614 112.652 128.646 117.835 128.646 117.835C128.646 117.835 132.149 118.702 132.405 123.685C132.661 128.668 130.257 130.348 128.165 131.69C128.165 131.69 130.719 126.42 128.802 126.002C126.885 125.583 126.149 132.315 126.149 132.315C126.149 132.315 124.463 128.849 123.133 124.066C121.803 119.283 120.76 123.71 119.705 128.543C118.656 133.376 114.179 126.364 112.761 121.893C111.344 117.422 106.099 118.646 102.714 122.561C99.3302 126.47 102.552 136.467 95.7773 142.83Z" fill="#653870"/>
<path d="M102.203 131.466C102.203 131.466 101.578 125.64 99.3678 127.057C97.1636 128.475 95.715 135.025 98.5561 136.373C101.391 137.722 102.203 131.466 102.203 131.466Z" fill="#FC7575"/>
<path d="M100.592 131.141C100.592 131.141 101.835 128.487 100.061 128.755C98.2881 129.024 97.8572 133.994 99.181 134.481C100.505 134.975 100.592 131.141 100.592 131.141Z" fill="#FD5E5A"/>
<path d="M115.84 136.517C115.815 137.971 115.603 139.42 115.253 140.831C114.46 143.878 113.505 144.902 113.411 145.077C113.118 144.871 112.337 144.365 111.351 143.554C112.075 143.853 112.78 144.191 113.467 144.553L113.149 144.628C114.373 142.099 114.991 139.283 115.84 136.517Z" fill="#172866"/>
<path d="M105.918 145.802C105.868 145.359 106.536 145.284 106.592 145.721C106.611 145.864 107.048 149.236 110.27 149.936C110.451 149.973 110.57 150.154 110.526 150.335C110.32 151.297 106.436 149.586 105.918 145.802Z" fill="#172866"/>
<path d="M112.037 135.63C111.843 136.504 111.194 137.11 110.576 136.973C109.958 136.841 109.614 136.017 109.808 135.143C110.001 134.263 110.651 133.663 111.269 133.794C111.887 133.932 112.231 134.75 112.037 135.63Z" fill="#2846A6"/>
<path d="M120.305 137.965C120.111 138.839 119.462 139.445 118.843 139.308C118.225 139.177 117.882 138.352 118.075 137.478C118.269 136.604 118.918 135.998 119.537 136.136C120.155 136.267 120.498 137.091 120.305 137.965Z" fill="#2846A6"/>
<path d="M108.484 131.59C108.484 131.59 110.614 129.923 112.78 130.398C114.947 130.872 113.605 132.358 113.099 132.246C112.593 132.133 108.584 131.141 108.484 131.59Z" fill="#172866"/>
<path d="M119.511 132.215C119.511 132.215 121.56 134.007 121.522 135.349C121.522 135.349 119.118 134.007 118.931 133.195C118.743 132.371 119.511 132.215 119.511 132.215Z" fill="#172866"/>
<path d="M92.1433 140.794L81.3848 149.142C82.5399 152.114 91.7 178.458 109.577 171.221C112.256 170.135 111.787 161.687 111.787 161.687C82.9146 157.403 93.2735 141.749 92.1433 140.794Z" fill="#FFCB57"/>
<path d="M75.2532 237.827C75.2532 237.827 88.4532 239.188 91.6627 239.8C94.8721 240.412 99.2929 244.052 98.8121 244.383C98.3251 244.714 90.7947 242.298 90.1578 242.729C89.5209 243.16 96.4019 252.313 98.7747 253.981C101.147 255.648 104.12 255.579 104.738 256.491C105.356 257.402 101.94 257.858 97.4447 256.26C92.9489 254.661 88.653 248.935 88.5281 249.597C88.4032 250.259 95.9648 257.933 98.9495 258.87C101.934 259.806 103.914 261.611 102.515 262.029C101.116 262.448 92.0186 261.449 86.4489 251.627C86.4489 251.627 85.0814 251.052 85.8119 253.038C86.5425 255.023 92.9989 261.854 97.9879 262.803C102.977 263.759 99.1556 266.931 94.2477 264.146C89.3399 261.361 85.0002 255.623 84.457 255.997C83.9138 256.366 94.2602 264.227 92.8928 265.157C91.5315 266.088 82.1592 259.463 79.9176 254.605C77.6759 249.741 71.0322 243.091 71.0322 243.091L75.2532 237.827Z" fill="#FC7575"/>
<path d="M78.4873 149.254C78.4873 149.254 70.0141 147.518 58.8809 152.52C47.7477 157.521 30.8825 178.114 36.396 200.337C41.9095 222.56 70.1702 245.844 70.1702 245.844L81.9028 238.201C81.9028 238.201 59.1119 204.146 59.1119 195.973C59.1119 187.793 90.0389 160.806 78.4873 149.254Z" fill="#F57C57"/>
<path d="M60.2735 197.827C58.6999 192.538 67.3855 184.452 74.691 172.776C79.1868 165.601 84.8439 154.936 78.4874 149.248C88.1907 159.707 64.6256 181.187 58.9684 193.044C57.7384 195.985 58.3253 196.765 59.1058 199.825C60.8604 204.87 65.1126 212.488 67.835 216.959C72.2496 224.227 76.9077 231.333 81.903 238.201C57.1264 196.747 61.6284 200.431 60.2735 197.827Z" fill="#F9A94B"/>
<path d="M108.559 236.634C108.559 236.634 103.67 240.768 103.239 245.813C102.808 250.864 109.346 240.031 109.415 241.973C109.483 243.915 107.529 251.37 109.452 250.764C111.375 250.159 113.042 241.935 113.785 242.622C114.522 243.309 111.918 251.27 114.066 250.627C116.208 249.99 117.426 244.308 118.369 244.539C119.318 244.776 116.508 250.839 118.537 249.459C120.573 248.086 123.401 245.694 123.345 244.152C123.289 242.61 122.121 240.511 120.342 239.631C118.568 238.751 118.787 237.333 114.472 236.946C110.17 236.578 108.559 236.634 108.559 236.634Z" fill="#FC7575"/>
<path d="M100.723 172.201C101.497 172.357 101.715 172.42 102.54 172.439C106.673 168.374 107.56 163.279 107.379 160.881C106.742 160.737 106.136 160.594 105.549 160.438C105.768 162.242 105.93 168.155 100.723 172.201Z" fill="#A0626B"/>
<path d="M181.383 318.844C181.383 318.844 101.427 317.789 108.421 332.4C111.855 339.574 131.98 350.096 154.327 345.893C176.675 341.685 207.252 345.893 224.842 345.893C242.431 345.893 261.301 326.256 243.973 320.48C226.652 314.71 181.383 318.844 181.383 318.844Z" fill="#B1B2AB"/>
<path d="M235.507 322.878L180.159 317.314L144.861 326.375L146.472 332.138L148.183 333.843L156.688 331.601L159.404 336.334L176.95 336.952L200.777 339.974L203.618 333.98C203.618 333.98 233.652 338.195 235.507 336.334C237.361 334.479 226.746 333.137 231.198 331.126C235.65 329.116 243.443 330.689 245.585 328.541C247.733 326.393 235.507 322.878 235.507 322.878Z" fill="#B1B2AB"/>
<path d="M175.232 281.666L178.03 320.885L187.87 318.975L180.421 273.355L175.232 281.666Z" fill="#823F11"/>
<path d="M164.249 314.155C159.341 312.194 152.96 312.431 147.652 313.661L147.977 314.348C152.192 313.73 157.73 313.786 161.358 315.272C158.792 316.421 156.775 317.82 155.245 319.681L156.163 320.005C162.488 313.174 179.179 312.419 191.086 313.549L191.523 311.557C183.088 311.058 171.986 311.588 164.249 314.155Z" fill="#2D1805"/>
<path opacity="0.74" d="M196.837 230.984C196.837 230.984 200.59 248.249 192.441 249.123C189.7 249.417 180.871 244.521 181.239 235.368C181.608 226.214 172.96 212.695 166.534 212.695C166.534 212.695 174.452 215.717 173.222 223.772C171.867 232.639 166.928 230.035 164.58 239.189C164.574 237.228 159.604 232.227 159.154 231.696C160.565 234.556 162.401 242.554 158.411 250.765C155.876 255.973 164.474 284.365 174.19 278.333C177.443 276.316 179.916 270.615 184.218 270.378C188.52 270.141 188.358 280.175 191.292 278.033C194.227 275.892 199.965 269.46 201.888 261.793C202.962 257.497 206.996 236.829 196.837 230.984Z" fill="#FF6001"/>
<path d="M185.41 311.395L230.18 310.059C230.18 310.059 233.452 310.215 234.969 317.57C236.493 324.926 234.295 326.231 234.295 326.231L193.527 323.664L185.41 311.395Z" fill="#3F2403"/>
<path opacity="0.3" d="M231.198 310.434C230.592 310.071 230.18 310.053 230.18 310.053L190.499 311.239C193.271 313.762 198.516 317.096 207.495 318.139C218.522 319.419 229.393 316.709 231.198 310.434Z" fill="#F95300"/>
<path d="M180.421 269.104L178.329 274.598L203.618 333.973H211.323L180.421 269.104Z" fill="#AA5F2D"/>
<path d="M215.781 331.601L207.495 312.993L217.305 331.551L215.781 331.601Z" fill="#AD6C1E"/>
<path d="M186.509 269.104H180.421L211.323 333.973L215.987 332.056L214.058 326.449L217.305 331.551L219.846 330.764L186.509 269.104Z" fill="#CE8B32"/>
<path d="M189.638 284.357L212.016 333.692L213.771 332.968L189.638 284.357Z" fill="#AD6C1E"/>
<path d="M205.947 306.206L218.41 331.207L219.022 331.02L205.947 306.206Z" fill="#AD6C1E"/>
<path d="M184.748 269.104L196.243 292.912L185.485 269.104H184.748Z" fill="#AD6C1E"/>
<path d="M144.643 320.999L153.584 322.659L183.968 269.254L181.289 265.276L144.643 320.999Z" fill="#82451C"/>
<path d="M172.722 315.96L138.03 318.02L138.436 323.659L148.433 333.918L177.711 325.688V314.268L172.722 315.96Z" fill="#3F2403"/>
<path opacity="0.3" d="M169.232 318.039C170 317.546 171.018 316.84 171.917 316.01L146.734 317.502C147.752 321.567 152.485 322.828 156.469 322.26C160.047 321.754 163.219 321.067 166.303 319.638C167.284 319.188 168.258 318.663 169.232 318.039Z" fill="#F95300"/>
<path opacity="0.69" d="M182.219 214.087C182.219 214.087 182.725 223.428 183.481 230.215C184.236 236.996 173.777 237.752 173.777 244.833C173.777 251.914 175.738 250.858 175.738 257.19C175.738 263.521 174.982 257.639 172.123 254.78C169.257 251.914 164.736 250.858 166.547 247.143C166.547 247.143 163.681 251.714 167.951 255.985C172.222 260.256 167.852 263.821 168.657 267.237C169.463 270.652 177.099 277.346 180.796 277.539C184.811 277.745 193.971 270.958 195.582 264.826C197.186 258.695 197.492 256.185 197.492 256.185C197.492 256.185 195.282 262.01 191.567 262.01C187.851 262.01 186.846 265.626 186.846 265.626C186.846 265.626 194.982 260.399 191.766 255.379C188.551 250.359 183.424 251.964 182.725 247.643C182.019 243.322 189.056 241.717 187.046 234.68C185.035 227.649 182.219 214.087 182.219 214.087Z" fill="#FA352C"/>
<path opacity="0.84" d="M180.033 230.359C180.033 230.359 179.734 238.951 180.714 242.941C181.694 246.937 174.264 250.921 175.569 254.355C176.874 257.79 178.229 258.545 177.173 262.235C176.118 265.926 172.503 266.381 172.503 262.235C172.503 258.089 173.483 256.734 172.503 253.344C171.523 249.953 170.467 248.448 170.467 248.448C170.467 248.448 172.503 253.119 172.122 254.78C171.747 256.435 169.412 263.896 170.992 268.873C172.572 273.843 178.578 276.965 180.333 277.59C181.856 278.133 189.749 274.83 191.185 269.628C192.615 264.427 191.185 263.603 191.185 263.603C191.185 263.603 190.736 268.049 189.225 268.049C187.713 268.049 187.564 263.453 189.225 260.968C190.879 258.483 183.274 254.561 182.443 251.851C181.613 249.142 185.004 246.5 183.349 242.585C181.694 238.652 180.033 230.359 180.033 230.359Z" fill="#F72B1E"/>
<path opacity="0.64" d="M181.551 247.318C181.551 247.318 183.293 251.24 181.551 253.725C179.809 256.21 177.249 257.04 178.304 261.336C179.359 265.632 176.493 266.837 176.044 268.723C175.594 270.609 177.549 276.659 180.34 277.59C183.131 278.52 185.991 273.775 187.121 271.283C188.251 268.798 185.916 265.183 184.105 261.786C182.294 258.395 183.655 257.865 184.555 255.835C185.46 253.8 181.551 247.318 181.551 247.318Z" fill="#FCC700"/>
<path d="M178.84 251.258C178.84 251.258 179.752 255.797 178.141 257.414C176.53 259.025 177.66 266.094 179.215 266.456C182.194 267.137 183.136 262.247 183.436 260.243C183.736 258.245 182.437 255.591 182.437 255.591C182.437 255.591 182.2 258.744 181.519 258.744C181.519 258.744 180.389 253.225 178.84 251.258Z" fill="#FCC700"/>
<path d="M184.604 266.457L160.202 336.684L151.686 333.974L177.074 267.231L180.465 266.044L179.559 268.736L181.632 265.276L184.604 266.457Z" fill="#CE8B32"/>
<path d="M177.074 267.23L175.707 270.821C175.707 270.821 177.724 267.361 178.067 268.161C178.411 268.96 177.799 270.821 178.067 270.821C178.336 270.821 178.792 268.997 179.21 269.416C179.628 269.834 180.721 267.224 181.427 266.512C182.138 265.8 182.057 266.562 182.057 267.168C182.057 267.773 182.819 266.824 183.2 266.824C183.581 266.824 183.088 270.814 183.088 270.814L184.605 266.45L181.639 265.27L179.622 268.548L180.471 266.038L177.074 267.23Z" fill="#2B2825"/>
<path d="M173.958 289.653L159.546 336.478L157.873 335.947L173.958 289.653Z" fill="#633706"/>
<path d="M175.407 280.019L157.118 335.703L155.856 335.304L175.407 280.019Z" fill="#633706"/>
<path d="M160.202 336.683L165.635 333.099L166.215 330.464L166.134 332.906L167.882 332.287L185.21 271.764L184.604 266.456L160.202 336.683Z" fill="#774828"/>
<path d="M148.433 333.918C148.433 333.918 149.039 332.662 149.045 331.17C149.051 329.678 148.758 328.017 148.758 328.017L147.577 328.029L148.583 327.005C148.583 327.005 148.595 324.377 146.766 321.891C144.936 319.406 143.831 319.107 142.944 318.801C141.914 318.451 140.272 317.758 138.873 318.282L138.867 319.35L138.036 318.026C138.036 318.026 134.371 319.013 133.928 323.221C133.591 326.418 134.746 329.615 134.746 329.615L148.433 333.918Z" fill="#2D1606"/>
<path d="M134.99 329.684C134.727 328.809 134.053 326.231 134.309 323.677C134.659 320.255 137.162 318.969 137.955 318.644L139.254 320.773L139.26 318.731C140.484 318.363 141.789 318.906 143.038 319.331C143.894 319.624 144.861 319.949 146.51 322.266C147.896 324.207 148.133 326.262 148.171 326.905L146.329 328.891L148.446 328.847C148.795 331.438 148.652 332.581 148.177 333.836L134.99 329.684Z" fill="#C0804F"/>
<path d="M145.935 327.829C146.578 327.205 146.559 324.133 144.568 321.872C142.57 319.612 140.472 320.961 139.878 322.003C139.279 323.046 136.494 320.686 135.626 324.026C135.114 325.993 135.726 328.435 136.319 330.108L146.672 333.368C146.89 332.418 147.022 331.432 146.847 330.87C146.422 329.546 145.292 328.453 145.935 327.829Z" fill="#D8983A"/>
<path d="M145.661 327.386C146.067 326.993 145.91 325.019 144.075 322.934C142.451 321.098 140.822 321.323 140.216 322.378C139.423 323.758 136.819 321.179 136.007 324.295C135.508 326.212 136.188 328.666 136.775 330.246L146.266 333.237C146.497 332.238 146.61 331.357 146.491 330.97C146.11 329.796 144.73 328.285 145.661 327.386Z" fill="#B77548"/>
<path d="M145.548 331.12C145.473 330.933 145.335 330.677 145.21 330.44C144.761 329.59 143.737 327.636 144.854 326.375C144.848 326.063 144.63 325.082 143.537 323.846C143.125 323.378 142.706 323.078 142.294 322.947C141.682 322.753 141.227 322.99 141.046 323.315C140.477 324.308 139.503 324.171 138.717 324.052C137.686 323.902 137.224 323.877 136.937 324.964C136.462 326.781 137.399 329.397 137.905 330.608L145.229 332.912C145.441 332.082 145.548 331.42 145.548 331.12Z" fill="#CE8B32"/>
<path d="M139.079 330.976C138.698 329.946 136.818 326.318 138.841 325.357C139.559 325.02 142.538 323.228 144.523 331.158C144.748 331.932 144.486 332.275 144.168 332.581L139.079 330.976Z" fill="#B77141"/>
<path d="M187.839 294.492C189.531 286.631 187.227 277.346 183.631 269.972L182.613 270.684C184.886 276.665 186.466 284.814 185.148 290.633C182.513 287.255 179.641 284.758 176.163 283.14L175.913 284.595C188.888 291.582 195.145 315.834 196.899 333.686L200.259 333.661C198.542 321.104 194.327 304.995 187.839 294.492Z" fill="#2D1805"/>
<path d="M172.491 293.837C176.581 286.912 177.324 277.377 176.243 269.241L175.057 269.597C175.319 275.991 174.245 284.221 171.161 289.328C169.725 285.288 167.795 282.01 165.004 279.382L164.305 280.687C174.401 291.414 172.303 317.171 168.332 334.667L171.904 334.929C174.239 322.466 175.332 305.85 172.491 293.837Z" fill="#2D1805"/>
<path d="M167.277 294.056C165.298 295.81 162.675 298.208 160.833 300.106C162.325 296.228 164.061 291.958 165.753 288.092L164.817 287.668C164.111 289.204 163.424 290.746 162.756 292.295C160.921 289.472 160.446 286.051 161.164 283.422L160.621 283.216C159.41 286.263 159.578 290.215 161.913 294.262C157.205 305.326 150.88 321.954 149.038 333.843L151.13 333.98C152.46 324.339 156.575 311.32 160.021 302.21C161.876 299.975 165.585 296.541 167.739 294.586L167.277 294.056Z" fill="#2D1805"/>
<path d="M200.084 330.208L189.669 315.341C185.005 308.679 175.514 310.614 174.102 315.497L170 331.807L195.826 335.553L200.983 332.294L200.084 330.208Z" fill="#633706"/>
<path d="M188.082 317.789L190.124 323.409L190.498 328.229L191.466 324.027L188.082 317.789Z" fill="#492002"/>
<path d="M170.649 338.962L201.538 339.993C201.538 339.993 202.881 335.46 200.758 331.751L198.629 332.475L200.084 330.208C200.084 330.208 197.399 325.987 191.467 324.027L190.461 327.636L190.124 323.415C190.124 323.415 185.304 320.836 179.378 323.415C173.453 325.987 167.402 329.415 170.649 338.962Z" fill="#3D1F04"/>
<path d="M170.836 338.969C168.095 330.315 173.852 326.5 179.672 323.965C183.044 322.497 186.678 322.591 189.487 323.796L190.512 328.623L191.941 324.845C196.244 326.468 198.616 329.297 199.303 330.215L197.099 333.649L200.427 332.519C201.707 335.185 201.033 338.813 200.789 339.962L170.836 338.969Z" fill="#CE8B32"/>
<path d="M171.873 337.882C171.199 334.136 171.798 329.927 175.001 327.498C179.16 324.539 183.443 324.202 186.453 325.394C183.618 324.414 179.235 324.807 175.214 327.742C173.871 328.747 172.872 329.952 172.204 332.356C171.761 334.098 171.661 336.228 171.873 337.882Z" fill="#AA691A"/>
<path d="M192.76 327.192C194.252 327.361 196.831 329.197 197.499 331.638C196.65 330.221 195.532 328.697 193.528 327.561C193.284 327.423 193.035 327.28 192.76 327.192Z" fill="#AA691A"/>
<path d="M183.874 326.737C185.722 326.425 188.495 326.825 189.706 328.23C188.083 327.143 185.897 326.9 183.874 326.737Z" fill="#AA691A"/>
<path d="M195.026 335.716C195.026 332.207 191.667 331.02 189.425 329.422C187.184 327.823 184.38 328.904 180.734 328.904C177.087 328.904 175.745 330.658 174.845 333.306C174.296 334.917 175.395 337.439 176.338 339.163L177.231 339.194C176.325 337.645 175.632 336.041 175.757 334.898C176.082 331.901 178.042 330.508 181.408 330.508C184.773 330.508 184.324 329.94 187.071 330.508C189.819 331.077 191.611 331.283 192.76 334.068C193.528 335.922 193.802 337.933 193.827 339.743L195.001 339.781C195.045 338.495 195.026 337.052 195.026 335.716Z" fill="#AA691A"/>
<path d="M187.071 330.503C184.324 329.934 184.773 330.503 181.408 330.503C178.042 330.503 176.081 331.895 175.757 334.892C175.632 336.035 176.325 337.64 177.23 339.188L178.061 339.213C177.511 338.089 177.243 337.015 177.48 336.141C178.435 332.669 180.171 332.101 182.132 332.101C184.093 332.101 184.261 331.789 187.009 332.101C189.756 332.413 192.11 333.856 192.11 337.159C192.11 337.864 191.929 338.738 191.642 339.663L193.821 339.738C193.802 337.927 193.521 335.916 192.753 334.062C191.61 331.277 189.818 331.071 187.071 330.503Z" fill="#CE8B32"/>
<path d="M187.015 332.101C184.268 331.788 184.099 332.101 182.139 332.101C180.178 332.101 178.436 332.669 177.487 336.141C177.243 337.015 177.518 338.089 178.067 339.213L178.81 339.238C178.23 338.132 177.918 337.096 178.142 336.29C179.048 332.994 180.615 332.719 182.145 332.719C184.449 332.719 191.455 331.526 191.455 337.158C191.455 337.851 191.267 338.713 190.968 339.644L191.655 339.669C191.942 338.738 192.123 337.87 192.123 337.165C192.117 333.855 189.763 332.413 187.015 332.101Z" fill="#3D1F04"/>
<path d="M182.132 332.719C180.602 332.719 179.035 332.994 178.129 336.29C177.911 337.096 178.217 338.132 178.797 339.238L180.259 339.288C179.522 338.382 178.985 337.402 179.434 336.802C180.446 335.46 179.996 334.992 182.407 334.505C184.817 334.011 185.21 333.137 187.62 334.505C189.831 335.76 189.843 338.033 189.4 339.594L190.948 339.644C191.242 338.713 191.435 337.851 191.435 337.158C191.442 331.526 184.436 332.719 182.132 332.719Z" fill="#CE8B32"/>
<path d="M187.627 334.498C185.217 333.131 184.823 334.005 182.413 334.498C180.003 334.992 180.452 335.454 179.441 336.796C178.991 337.396 179.528 338.376 180.265 339.281L189.406 339.587C189.85 338.026 189.844 335.754 187.627 334.498Z" fill="#AA691A"/>
<path d="M186.453 337.626C186.453 338.257 185.26 338.769 183.799 338.769C182.332 338.769 181.146 338.257 181.146 337.626C181.146 336.995 182.332 336.483 183.799 336.483C185.26 336.477 186.453 336.989 186.453 337.626Z" fill="#3F2403"/>
<path opacity="0.84" d="M163.781 271.17C163.781 271.17 155.532 271.744 154.945 280.049C154.358 288.36 157.643 290.495 161.327 289.365C169.588 286.849 154.696 275.416 163.781 271.17Z" fill="#F72B1E"/>
<path opacity="0.84" d="M166.616 270.402C167.171 270.209 156.625 271.745 156.038 280.056C155.451 288.366 158.736 290.502 162.42 289.372C170.674 286.849 154.121 274.779 166.616 270.402Z" fill="#F72B1E"/>
<path d="M159.229 277.227C159.336 275.872 156.376 287.523 159.229 289.171C159.548 289.359 159.854 289.502 160.135 289.615C160.853 289.702 161.627 289.609 162.42 289.371C162.726 289.278 163.001 289.171 163.244 289.053C163.469 288.703 163.581 288.272 163.581 287.829C163.581 286.206 158.805 282.684 159.229 277.227Z" fill="#FCC700"/>
<path opacity="0.84" d="M187.233 272.595C187.233 272.595 178.984 273.169 178.397 281.474C177.81 289.785 181.095 291.914 184.779 290.79C193.034 288.267 178.141 276.834 187.233 272.595Z" fill="#F72B1E"/>
<path opacity="0.84" d="M190.062 271.82C190.618 271.627 180.071 273.163 179.484 281.473C178.897 289.784 182.182 291.914 185.866 290.79C194.127 288.267 177.574 276.197 190.062 271.82Z" fill="#F72B1E"/>
<path d="M182.675 278.645C182.781 277.29 179.821 288.941 182.675 290.589C182.993 290.777 183.299 290.92 183.58 291.033C184.298 291.12 185.072 291.027 185.865 290.789C186.171 290.696 186.446 290.589 186.69 290.465C186.914 290.115 187.027 289.684 187.027 289.241C187.027 287.63 182.256 284.102 182.675 278.645Z" fill="#FCC700"/>
<path opacity="0.3" d="M178.33 314.267C178.33 314.267 175.195 321.036 177.393 321.829C179.591 322.622 180.315 318.195 182.126 320.012C183.937 321.823 187.028 320.973 187.028 318.401C187.028 315.828 182.726 309.872 178.33 314.267Z" fill="#F95300"/>
<path d="M162.213 225.295C162.213 225.851 161.763 226.301 161.207 226.301C160.652 226.301 160.202 225.851 160.202 225.295C160.202 224.74 160.652 224.29 161.207 224.29C161.763 224.29 162.213 224.74 162.213 225.295Z" fill="#FF6001"/>
<path d="M173.665 207.962C174.196 207.962 174.626 207.532 174.626 207.001C174.626 206.47 174.196 206.039 173.665 206.039C173.134 206.039 172.703 206.47 172.703 207.001C172.703 207.532 173.134 207.962 173.665 207.962Z" fill="#FF6001"/>
<path d="M196.862 281.43C196.862 281.992 196.406 282.448 195.844 282.448C195.282 282.448 194.826 281.992 194.826 281.43C194.826 280.868 195.282 280.412 195.844 280.412C196.406 280.412 196.862 280.868 196.862 281.43Z" fill="#FF6001"/>
<path d="M187.415 194.575C187.415 195.13 186.965 195.58 186.41 195.58C185.854 195.58 185.404 195.13 185.404 194.575C185.404 194.019 185.854 193.569 186.41 193.569C186.965 193.569 187.415 194.019 187.415 194.575Z" fill="#FF6001"/>
<path d="M176.874 249.123C176.856 249.441 176.581 249.691 176.262 249.672C175.944 249.653 175.694 249.379 175.713 249.06C175.732 248.742 176.006 248.492 176.325 248.511C176.65 248.523 176.893 248.798 176.874 249.123Z" fill="#FCC700"/>
<path d="M176.693 240.338C176.693 240.556 176.518 240.725 176.3 240.725C176.081 240.725 175.906 240.55 175.906 240.338C175.906 240.119 176.081 239.944 176.3 239.944C176.518 239.944 176.693 240.119 176.693 240.338Z" fill="#FCC700"/>
<path d="M170.837 273.98C170.837 274.323 170.556 274.604 170.212 274.604C169.869 274.604 169.588 274.323 169.588 273.98C169.588 273.636 169.869 273.355 170.212 273.355C170.556 273.355 170.837 273.636 170.837 273.98Z" fill="#FCC700"/>
<path d="M190.08 264.002C190.08 264.377 189.774 264.683 189.4 264.683C189.025 264.683 188.713 264.377 188.713 264.002C188.713 263.621 189.019 263.315 189.4 263.315C189.774 263.322 190.08 263.628 190.08 264.002Z" fill="#FCC700"/>
<path opacity="0.2" fill-rule="evenodd" clip-rule="evenodd" d="M416.675 84.2116C434.763 121.586 412.486 164.116 411.865 205.633C411.224 248.411 443.185 300.533 412.984 330.837C381.814 362.113 326.888 324.483 283.8 334.134C245.036 342.816 217.918 388.119 178.48 383.36C137.383 378.4 107.952 342.23 82.2154 309.807C54.5857 275.001 26.1566 236.62 26.7232 192.184C27.2947 147.36 49.8301 102.277 85.2126 74.754C117.612 49.5509 164.27 66.2003 203.635 54.5678C243.534 42.7778 274.373 0.946529 315.58 6.68033C358.697 12.68 397.711 45.0266 416.675 84.2116Z" fill="#97CFF2"/>
</svg>
