<svg width="421" height="253" viewBox="0 0 421 253" fill="none" xmlns="http://www.w3.org/2000/svg">
<path d="M394.341 208.053C389.083 122.278 337.395 17.4026 247.886 17.4026C190.222 17.4026 126.551 122.341 120.962 208.053H394.341Z" fill="#3AB8A5"/>
<path d="M393.048 193.741L359.218 193.941L325.387 194.016L257.72 194.154L190.059 194.016L156.229 193.948L122.398 193.741L156.229 193.542L190.059 193.467L257.72 193.329L325.387 193.467L359.218 193.542L393.048 193.741Z" fill="#3AB8A5"/>
<path d="M257.951 89.6401H228.879C211.72 89.6401 197.808 103.552 197.808 120.711V194.129H289.022V120.711C289.022 103.552 275.11 89.6401 257.951 89.6401Z" fill="#48574B"/>
<path d="M244.445 89.6401H242.378V194.16H244.445V89.6401Z" fill="#1D211D"/>
<path d="M319.031 208.053H127.519L211.626 0.668457L275.435 20.8868C275.435 20.8868 294.941 39.4005 304.026 73.2996C313.111 107.192 319.031 208.053 319.031 208.053Z" fill="#3AB8A5"/>
<path d="M381.978 199.517C374.016 199.517 367.454 203.245 366.536 208.053H397.425C396.495 203.245 389.939 199.517 381.978 199.517Z" fill="#89768C"/>
<path d="M319.031 208.053L211.626 0.668457L275.435 20.8868C275.435 20.8868 294.941 39.4005 304.026 73.2996C313.111 107.192 319.031 208.053 319.031 208.053Z" fill="#61C6B7"/>
<path d="M127.519 208.053L238.694 52.9314L211.626 0.668457L127.519 208.053Z" fill="#58938D"/>
<path d="M127.519 208.053L238.694 52.9314L211.626 0.668457L127.519 208.053Z" fill="#3AB8A5"/>
<path d="M127.519 200.541C119.558 200.541 112.995 203.819 112.077 208.053H142.967C142.042 203.819 135.48 200.541 127.519 200.541Z" fill="#89768C"/>
<path d="M333.299 56.2717L339.486 61.1171L348.49 70.2335L345.699 74.5107L333.299 56.2717Z" fill="#3AB8A5"/>
<path d="M285.369 142.103L261.142 94.7792L211.626 0.668457L172.026 98.201L151.877 147.18L127.519 208.053L153.569 147.504L173.288 98.7005L211.732 2.79144L259.918 95.4099L284.595 142.509L309.434 189.521L285.369 142.103Z" fill="#F9A94B"/>
<path d="M372.743 91.3573C372.743 91.3573 386.199 75.2538 377.607 59.0442L344.838 90.1709L372.743 91.3573Z" fill="#F15A24"/>
<path d="M413.092 229.838C412.705 229.838 412.318 229.739 411.968 229.514L366.106 200.985C365.107 200.36 364.801 199.049 365.419 198.044C366.043 197.045 367.354 196.732 368.353 197.357L414.216 225.886C415.215 226.51 415.521 227.822 414.903 228.827C414.503 229.483 413.804 229.838 413.092 229.838Z" fill="#563918"/>
<path d="M380.211 229.839C379.574 229.839 378.943 229.558 378.525 229.014C377.8 228.084 377.975 226.742 378.906 226.024L415.702 197.494C416.632 196.776 417.975 196.939 418.693 197.875C419.417 198.806 419.242 200.148 418.312 200.866L381.516 229.395C381.122 229.689 380.666 229.839 380.211 229.839Z" fill="#563918"/>
<path d="M334.342 89.9339L328.385 83.8896C328.385 83.8896 328.472 116.24 320.655 120.686C312.831 125.132 290.97 127.973 290.97 127.973L294.879 134.017C294.879 134.017 334.167 146.636 345.362 139.531C356.564 132.419 334.342 89.9339 334.342 89.9339Z" fill="#A13210"/>
<path d="M383.052 157.489C383.052 157.489 329.453 137.489 313.455 142.291C297.458 147.092 290.259 154.554 295.054 166.024C299.856 177.488 351.051 215.621 352.381 220.154C353.717 224.687 341.985 229.751 341.985 229.751H370.514C370.514 229.751 368.516 218.687 367.579 217.75C366.642 216.814 332.65 170.82 335.316 166.018C337.982 161.216 381.447 197.482 389.977 192.149C398.519 186.817 383.052 157.489 383.052 157.489Z" fill="#36414F"/>
<path d="M299.344 148.878C282.941 163.67 307.205 177.626 331.301 200.997C328.947 199.274 326.668 197.463 324.358 195.69C304.058 178.775 289.322 167.785 293.768 155.615C294.842 152.774 296.946 150.508 299.344 148.878Z" fill="#F9A94B"/>
<path d="M397.182 160.511C397.182 160.511 338.788 147.217 323.321 153.349C307.854 159.48 312.075 171.937 320.636 185.643C331.975 203.801 343.065 222.814 343.065 222.814L356.115 218.281L340.511 178.419C340.511 178.419 360.917 196.414 370.782 199.349C370.782 199.349 386.78 202.283 393.717 199.08C400.648 195.883 410.251 181.01 410.251 181.01L397.182 160.511Z" fill="#616E80"/>
<path d="M323.321 153.349C301.117 164.138 321.004 181.097 340.904 219.13C336.939 213.41 331.301 204.475 330.227 202.814C317.514 182.939 301.029 161.004 323.321 153.349Z" fill="#F9A94B"/>
<path d="M328.385 83.8893C328.385 83.8893 354.442 74.161 367.504 76.5275C380.573 78.894 405.974 140.592 411.843 160.504C417.713 180.417 414.241 186.81 414.241 186.81C414.241 186.81 388.909 178.543 374.51 169.477C360.111 160.41 347.579 146.986 347.579 146.986C347.579 146.986 317.989 94.2919 328.385 83.8893Z" fill="#D87306"/>
<path d="M411.849 160.51C405.98 140.598 380.579 78.9003 367.51 76.5338C364.544 75.9968 360.898 76.0842 357.045 76.5401C362.453 86.7616 380.148 122.259 373.323 136.97C365.306 154.248 350.795 153.985 360.586 156.539C368.416 158.581 385.937 172.699 388.965 177.007C401.509 182.658 414.253 186.817 414.253 186.817C414.253 186.817 417.713 180.417 411.849 160.51Z" fill="#A25605"/>
<path d="M339.493 95.2226C340.411 99.4873 350.27 143.951 366.299 163.745C367.429 164.607 368.584 165.456 369.764 166.293C369.764 166.293 355.06 153.692 341.123 94.3422C341.042 94.1986 334.604 87.9483 332.506 82.4597C331.931 82.6533 331.407 82.8281 330.939 82.9905C331.994 85.9002 334.335 90.0275 339.493 95.2226Z" fill="#694D0D"/>
<path d="M261.38 127.448H285.376L284.82 150.514C284.757 153.036 282.697 155.047 280.181 155.047H267.024C264.539 155.047 262.491 153.093 262.385 150.608L261.38 127.448Z" fill="#ADACCF"/>
<path d="M280.299 127.448L279.812 147.598C279.75 150.121 277.689 152.131 275.173 152.131H262.734C263.421 153.842 265.082 155.047 267.03 155.047H280.187C282.709 155.047 284.77 153.036 284.826 150.514L285.382 127.448H280.299Z" fill="#5E5186"/>
<path d="M334.167 87.8047C334.167 87.8047 325.369 87.1803 322.079 83.8959C318.788 80.6053 323.59 75.2728 321.011 72.694C318.432 70.1152 329.453 57.9393 348.522 56.1597C367.592 54.3801 377.189 52.6068 377.901 60.6055C378.612 68.6042 359.324 77.1648 359.324 77.1648L334.167 87.8047Z" fill="#4F002F"/>
<path d="M418.337 201.397H364.875C363.645 201.397 362.653 200.404 362.653 199.174C362.653 197.944 363.645 196.951 364.875 196.951H418.337C419.567 196.951 420.56 197.944 420.56 199.174C420.56 200.398 419.567 201.397 418.337 201.397Z" fill="#A13210"/>
<path d="M355.528 218.855C355.528 218.855 356.315 215.259 358.837 215.059L360.461 216.951L356.015 219.136L355.528 218.855Z" fill="#36414F"/>
<path d="M341.961 210.195C341.961 210.195 339.975 216.832 339.244 218.987C338.508 221.141 331.077 221.759 327.349 224.282C323.622 226.804 326.244 232.143 326.244 232.143L340.674 235.184L349.297 232.961C349.297 232.961 355.442 234.222 357.552 233.179C359.663 232.137 358.676 218.749 356.934 218.156C355.192 217.563 348.248 215.659 346.825 212.768C345.401 209.889 341.961 210.195 341.961 210.195Z" fill="#485669"/>
<path d="M339.056 221.878C343.696 219.599 344.713 216.139 346.555 214.716C347.941 213.654 350.639 217.65 356.927 218.169C354.554 217.195 351.369 215.346 349.64 214.147C348.916 213.792 348.141 212.655 346.524 213.105C344.944 213.56 343.577 216.158 342.628 217.657C341.629 219.161 340.43 220.573 339.056 221.878Z" fill="#36414F"/>
<path d="M338.557 218.762L342.946 221.49L342.522 222.183L337.882 219.492L338.557 218.762Z" fill="#F3EEB5"/>
<path d="M337.358 219.961L341.192 222.839L340.68 223.089L336.246 220.504L337.358 219.961Z" fill="#F3EEB5"/>
<path d="M348.335 230.319C347.298 229.964 342.272 232.592 340.217 233.192C338.738 233.623 329.877 230.007 325.35 228.621C324.907 230.625 325.463 231.98 325.463 231.98L340.848 235.433L349.29 232.973C349.29 232.973 355.434 234.235 357.545 233.192C358.119 232.911 358.463 231.724 358.625 230.132C354.56 229.832 349.022 230.557 348.335 230.319Z" fill="#D87306"/>
<path d="M335.104 223.451C329.484 223.682 325.956 227.11 327.367 228.059C329.053 229.196 327.629 225.068 335.104 223.451Z" fill="#F9A94B"/>
<path d="M334.279 84.6639C333.954 82.4597 333.236 80.4491 332.756 77.1648C332.069 72.4755 331.294 68.985 331.294 68.985L342.896 63.9023C342.896 63.9023 344.744 71.4889 346.105 77.5082C346.998 81.4794 334.498 86.1125 334.279 84.6639Z" fill="#FC7575"/>
<path d="M342.896 63.9087C342.896 63.9087 343.202 65.2512 343.67 67.3367C342.734 68.7416 341.385 70.2339 339.518 72.1384C337.651 74.0366 335.253 75.8599 332.756 77.1711C332.069 72.4818 331.294 68.9976 331.294 68.9976L342.896 63.9087Z" fill="#FD5E5A"/>
<path d="M314.71 47.3741C314.71 47.3741 324.913 57.4895 328.79 58.501C332.668 59.5126 341.254 60.8675 341.254 60.8675C341.254 60.8675 345.868 76.0968 346.399 79.4687C346.399 79.4687 361.253 76.1655 352.599 52.2694C349.296 43.1593 347.685 37.3274 337.37 34.2053C327.061 31.0833 317.076 38.1079 314.71 47.3741Z" fill="#00147D"/>
<path d="M321.847 43.6777C321.847 43.6777 315.597 46.3502 315.453 51.1581C315.31 55.9661 316.746 58.2389 316.683 60.5555C316.615 62.8783 317.326 67.1305 320.861 73.462C324.401 79.7873 333.817 75.1791 338.956 69.9528C344.738 64.0709 345.163 62.3975 344.288 53.8181C343.414 45.2512 331.819 39.1445 321.847 43.6777Z" fill="#FC7575"/>
<path d="M323.795 66.0255C323.833 65.2887 322.865 66.2378 320.867 64.0649C321.454 62.9659 321.716 61.6484 321.672 60.4995C321.279 62.866 320.093 63.89 319.949 64.1148C320.024 64.171 321.604 66.2565 323.408 66.3565C323.614 66.3689 323.789 66.2191 323.795 66.0255Z" fill="#0028A6"/>
<path d="M327.379 60.2869C326.948 60.674 326.268 60.6553 325.862 60.2432C325.456 59.8311 325.475 59.1817 325.906 58.7883C326.336 58.4012 327.017 58.4199 327.423 58.832C327.829 59.2504 327.81 59.8998 327.379 60.2869Z" fill="#0028A6"/>
<path d="M318.5 60.8055C318.069 61.1926 317.389 61.1739 316.983 60.7618C316.577 60.3496 316.596 59.7003 317.027 59.3069C317.458 58.9198 318.138 58.9385 318.544 59.3506C318.95 59.7627 318.931 60.4121 318.5 60.8055Z" fill="#0028A6"/>
<path d="M323.296 58.1392C324.501 57.9206 325.731 57.9268 326.955 58.1704C327.586 58.314 328.129 58.5076 328.685 58.7136C329.24 58.9259 329.79 59.1507 330.333 59.4567C329.702 59.5066 329.097 59.4254 328.497 59.3068C327.898 59.2006 327.323 58.9696 326.786 58.8322C325.669 58.545 324.489 58.3764 323.296 58.1392Z" fill="#00115B"/>
<path d="M315.253 58.6883C316.146 58.5759 317.07 58.6383 318.001 58.8818C318.482 59.0192 318.9 59.1878 319.325 59.3751C319.749 59.5624 320.174 59.756 320.598 60.012C320.13 60.0245 319.668 59.9308 319.212 59.8122C318.756 59.706 318.313 59.5 317.901 59.3751C317.058 59.1066 316.159 58.9255 315.253 58.6883Z" fill="#00115B"/>
<path d="M323.009 55.0544L323.633 56.2657C323.633 56.2657 326.842 55.7912 328.366 56.9151C328.366 56.9151 325.637 54.0491 323.009 55.0544Z" fill="#00115B"/>
<path d="M315.79 55.2604L316.121 56.4218C316.121 56.4218 319.331 55.9473 320.854 57.0712C320.854 57.065 318.419 54.2551 315.79 55.2604Z" fill="#00115B"/>
<path d="M321.497 69.5842C321.497 69.5842 325.131 68.8911 328.104 67.4924C328.104 67.4924 325.725 72.0693 323.97 72.0194C322.215 71.9694 321.497 69.5842 321.497 69.5842Z" fill="white"/>
<path d="M315.241 39.7938C315.241 39.7938 310.189 41.0426 311.295 45.7132C312.394 50.3838 325.256 54.9981 333.586 53.2873C336.708 52.6441 336.827 54.4424 338.15 55.5039C340.355 57.2772 342.309 59.5126 340.773 63.3714C338.313 69.5531 335.341 66.6558 335.341 66.6558C335.341 66.6558 338.069 70.0464 345.294 67.4925C352.518 64.9387 352.718 54.4362 346.811 48.7978C340.898 43.1594 335.041 40.7616 330.352 39.6502C320.18 37.24 315.241 39.7938 315.241 39.7938Z" fill="#2846A6"/>
<path d="M340.81 53.9119C339.948 53.9868 336.414 56.7155 337.594 59.1944C338.781 61.6795 339.755 61.7919 342.065 60.4182C344.376 59.057 342.989 53.7183 340.81 53.9119Z" fill="#FC7575"/>
<path d="M338.581 57.4649C338.581 57.4649 340.248 55.1545 341.247 56.1723C342.246 57.1839 342.072 59.0571 340.829 59.7502C339.586 60.437 337.438 58.851 338.581 57.4649Z" fill="#FD5E5A"/>
<path d="M333.436 63.0905C333.555 64.2519 332.081 65.3259 330.158 65.5007C328.229 65.6755 326.574 64.8763 326.462 63.7149C326.343 62.5535 327.816 61.4733 329.74 61.3047C331.669 61.1361 333.324 61.9353 333.436 63.0905Z" fill="#FD5E5A"/>
<path d="M319.73 64.945C319.63 63.9585 318.419 63.2341 316.877 63.1467C317.058 64.2457 317.376 65.5382 317.901 67.0305C319.062 66.5872 319.818 65.788 319.73 64.945Z" fill="#FD5E5A"/>
<path d="M326.174 77.1335L330.258 88.8661C330.258 88.8661 331.856 94.9041 341.891 94.823C350.251 94.7543 355.728 90.1586 358.743 86.5621C360.648 84.2892 361.072 81.1235 359.874 78.4135L355.852 69.3159C355.852 69.3159 339.487 80.7551 333.442 80.7551C327.398 80.7488 326.174 77.1335 326.174 77.1335Z" fill="#FFCB57"/>
<path d="M338.937 94.6417C339.643 94.7353 340.405 94.7915 341.229 94.804C341.198 94.6479 341.16 94.4855 341.129 94.3357C341.035 94.1796 333.087 86.4744 331.981 80.6612C331.338 80.5862 330.758 80.4738 330.246 80.324C330.645 82.984 332.406 87.8793 338.937 94.6417Z" fill="#694D0D"/>
<path d="M267.024 155.047C264.483 155.366 261.904 153.255 261.854 150.152C261.286 143.958 260.968 133.642 261.38 127.448C262.329 133.617 262.909 143.983 262.878 150.108C262.622 152.475 264.445 154.791 267.024 155.047Z" fill="#F9A94B"/>
<path d="M286.019 127.011H260.63V127.966H286.019V127.011Z" fill="#0F1D5B"/>
<path d="M306.256 129.409C306.256 129.409 292.831 125.338 290.408 124.526C290.408 124.526 279.088 130.027 275.528 132.125C271.969 134.229 269.384 140.942 270.19 140.942C270.995 140.942 275.322 135.972 276.172 135.122C277.021 134.273 278.601 134.229 278.601 134.229C278.601 134.229 268.085 145.388 268.978 146.28C269.865 147.167 281.879 135.241 282.809 136.171C283.739 137.102 269.871 147.005 271.57 148.703C273.268 150.402 285.475 138.588 285.475 139.437C285.475 140.292 278.401 147.123 279.088 147.81C279.774 148.497 292.269 141.747 294.735 139.968C297.202 138.188 306.256 137.139 306.256 137.139V129.409Z" fill="#FC7575"/>
<path d="M366.817 78.9006C362.253 83.796 366.867 115.453 358.625 124.526C350.389 133.599 302.341 128.148 302.341 128.148V139.88C302.341 139.88 355.666 160.536 370.714 153.18C385.762 145.825 395.109 117.739 389.265 97.7452C381.516 71.2204 370.258 75.2166 366.817 78.9006Z" fill="#E8AB6A"/>
<path d="M366.817 78.9004C363.052 84.1454 368.284 115.591 358.625 124.526C365.524 114.823 361.372 83.9956 366.817 78.9004Z" fill="#F9A94B"/>
<path d="M68.9432 132.787C58.2783 126.387 41.4755 104.258 41.4755 104.258C41.4755 104.258 1.74442 121.591 3.6114 146.386C5.47838 171.182 23.2241 174.716 44.1542 161.534L57.7413 168.253C57.7413 168.253 84.4785 175.983 95.1496 180.517C105.814 185.05 124.672 158.918 124.672 155.184C124.678 151.45 79.6143 139.187 68.9432 132.787Z" fill="#032647"/>
<path d="M69.0808 198.119C69.0808 198.119 65.3468 205.05 66.6831 209.851C68.0193 214.653 71.6159 211.987 73.3517 218.849C73.3517 218.849 72.5525 222.514 68.1504 223.182C63.7484 223.851 55.8871 222.252 55.8871 222.252C55.8871 222.252 50.9542 192.924 57.6229 189.72C64.2791 186.517 69.0808 198.119 69.0808 198.119Z" fill="#34173A"/>
<path d="M109.63 75.9407C109.63 75.9407 113.283 101.872 108.656 118.226C104.035 134.579 119.09 147.866 119.09 147.866C119.09 147.866 107.988 141.204 103.898 146.049C103.898 146.049 91.8468 144.551 91.1349 128.734C90.4231 112.912 97.7037 100.243 97.7037 100.243L109.63 75.9407Z" fill="#6F1A00"/>
<path d="M95.6118 58.2139C95.6118 58.2139 85.3029 53.2374 73.0332 54.48C60.7699 55.7225 49.0372 85.2321 38.5472 90.2086C28.0571 95.1851 0.152344 129.852 0.152344 129.852C0.152344 129.852 8.66302 141.866 13.8394 147.048C16.1996 149.409 29.025 151.107 42.2749 152.256C61.7315 153.942 80.3076 143.876 89.5176 126.662C100.826 105.525 110.173 76.4841 109.63 75.9471C106.164 72.4754 95.6118 58.2139 95.6118 58.2139Z" fill="#C93F14"/>
<path d="M74.4634 143.626C84.9097 135.384 89.6427 127.592 103.074 94.142C103.767 92.4187 109.518 77.7888 109.63 75.9468C107.763 88.0853 94.7941 124.969 82.1186 137.62C79.7709 139.874 77.2233 141.928 74.4634 143.626Z" fill="#F9A94B"/>
<path d="M100.076 72.3253C99.6016 72.1942 99.1146 72.4876 98.9897 72.9622C98.8086 73.6615 81.6624 138.313 48.1816 152.381C49.8301 152.324 51.4723 152.212 53.0895 151.993C84.4972 134.572 100.001 76.1779 100.719 73.4118C100.838 72.9372 100.557 72.4502 100.076 72.3253Z" fill="#A0626B"/>
<path d="M58.0163 129.59C60.1517 105.057 37.5045 103.583 33.3959 105.5C24.9164 109.459 19.022 121.972 21.0014 137.32C23.0557 153.242 36.1495 209.851 36.1495 209.851H59.6147C59.6147 209.851 55.8808 154.117 58.0163 129.59Z" fill="#163D55"/>
<path d="M107.894 147.448C94.1943 149.365 55.8806 189.315 55.8806 189.315L68.144 202.383C68.144 202.383 119.608 178.65 124.672 167.716C129.654 156.97 123.048 145.325 107.894 147.448Z" fill="#163D55"/>
<path d="M125.209 155.147C126.732 158.138 126.907 161.728 126.126 165.031C125.721 166.667 125.109 168.322 124.047 169.733C123.017 171.126 121.812 172.331 120.55 173.455C115.48 177.925 109.754 181.422 104.029 184.838C98.2591 188.184 92.3709 191.313 86.3704 194.21C80.3823 197.12 74.3318 199.905 68.1501 202.383L85.746 192.992C91.5779 189.814 97.4161 186.655 103.129 183.302C108.837 179.955 114.537 176.514 119.658 172.424C120.931 171.4 122.143 170.295 123.154 169.059C124.166 167.866 124.803 166.355 125.29 164.8C126.301 161.716 126.351 158.282 125.209 155.147Z" fill="#F9A94B"/>
<path d="M58.0161 129.59C57.8538 145.831 59.6084 209.564 59.6146 209.851C57.1419 189.365 55.1938 149.846 58.0161 129.59Z" fill="#F9A94B"/>
<path d="M38.229 210.033C38.229 210.033 39.0657 218.568 36.2122 223.826C33.3586 229.077 38.3414 232.23 38.3414 232.23C38.3414 232.23 61.9753 231.637 63.7423 230.263C65.5032 228.883 54.8445 208.459 54.8445 208.459L53.3022 206.942C49.2623 202.958 42.5999 203.607 39.4092 208.297L38.229 210.033Z" fill="#603E6B"/>
<path d="M35.425 228.009C34.5133 231.063 37.0235 232.199 37.0235 232.199C37.0235 232.199 61.9811 231.643 63.7419 230.263C64.1228 229.964 65.0032 228.147 63.361 226.504C56.53 227.229 41.6503 227.859 35.425 228.009Z" fill="#FF9739"/>
<path d="M46.4398 215.983C43.4364 215.983 40.945 215.184 40.7639 215.122C40.4892 215.034 40.3393 214.735 40.4268 214.46C40.5079 214.185 40.8076 214.029 41.0886 214.123C41.1698 214.148 48.9687 216.645 53.327 212.618C53.5393 212.424 53.8703 212.424 54.0638 212.643C54.2636 212.855 54.2512 213.186 54.0389 213.386C51.8409 215.415 48.9624 215.983 46.4398 215.983Z" fill="#FFDA88"/>
<path d="M46.4398 219.455C43.4364 219.455 40.945 218.656 40.7639 218.593C40.4892 218.506 40.3393 218.206 40.4268 217.931C40.5079 217.656 40.8076 217.507 41.0886 217.594C41.1698 217.619 48.9687 220.117 53.327 216.089C53.5393 215.889 53.8703 215.902 54.0638 216.12C54.2636 216.333 54.2512 216.664 54.0389 216.863C51.8409 218.893 48.9624 219.455 46.4398 219.455Z" fill="#FFDA88"/>
<path d="M61.6688 226.467C48.881 222.121 46.2959 218.955 36.3179 228.009C42.1124 217.076 51.978 218.924 61.6688 226.467Z" fill="#806589"/>
<path d="M89.1432 45.9565C89.1432 45.9565 94.1197 48.3168 96.5299 54.2799C98.9401 60.243 108.781 66.8555 108.781 66.8555L104.728 74.6044L89.6989 67.0303L84.9097 55.7597L89.1432 45.9565Z" fill="#35202A"/>
<path d="M94.5194 51.845C94.2135 51.3705 94.7692 35.1858 94.7692 35.1858C94.7692 35.1858 95.6309 23.2347 98.6468 22.5041C101.663 21.7735 109.643 18.1208 114.432 20.1438C119.215 22.1669 121.769 25.0892 122.068 25.5637C122.374 26.0383 123.142 32.8693 123.142 32.8693C123.142 32.8693 122.487 30.3904 118.871 36.8717C115.256 43.3468 94.5194 51.845 94.5194 51.845Z" fill="#381A3F"/>
<path d="M96.6361 70.7084C98.5655 65.1325 105.709 57.7832 106.733 56.5968L96.9733 39.5317C96.9733 39.5317 91.2849 50.4464 86.8391 61.1425C90.392 64.1709 93.1394 67.9548 96.6361 70.7084Z" fill="#FC7575"/>
<path d="M96.9793 39.5317C96.9793 39.5317 95.2621 42.8286 92.9768 47.5741C93.0018 53.2188 95.437 61.436 100.289 64.2583C102.974 60.5743 106.083 57.3523 106.739 56.5968L96.9793 39.5317Z" fill="#FD5E5A"/>
<path d="M100.851 28.8669C97.1856 32.6384 93.5766 40.918 95.0627 49.079C96.555 57.24 100.907 63.0658 106.352 61.7358C111.797 60.4058 121.394 41.0117 120.595 34.549C119.802 28.0864 106.439 23.1224 100.851 28.8669Z" fill="#FC7575"/>
<path d="M92.7771 47.9924C92.7771 47.9924 94.6066 41.0615 92.9019 38.4015C91.1973 35.7415 90.5292 34.2929 91.0724 31.7953C91.6157 29.2977 84.3288 24.19 87.2261 20.993C90.1233 17.7898 97.0855 18.8201 103.024 13.6625C108.962 8.50487 113.913 6.40062 120.264 12.1077C126.614 17.8148 125.646 22.9974 125.646 22.9974C125.646 22.9974 129.149 23.8653 129.405 28.8481C129.661 33.8309 127.257 35.5105 125.165 36.853C125.165 36.853 127.719 31.583 125.802 31.1646C123.885 30.7463 123.148 37.4774 123.148 37.4774C123.148 37.4774 121.462 34.0119 120.132 29.229C118.802 24.446 117.76 28.8731 116.704 33.706C115.655 38.5389 111.178 31.5268 109.761 27.056C108.344 22.5853 103.099 23.8091 99.7142 27.7241C96.3299 31.6329 99.5519 41.6297 92.7771 47.9924Z" fill="#653870"/>
<path d="M99.2021 36.6281C99.2021 36.6281 98.5777 30.8024 96.3673 32.2198C94.1632 33.6372 92.7145 40.1873 95.5556 41.536C98.3904 42.8847 99.2021 36.6281 99.2021 36.6281Z" fill="#FC7575"/>
<path d="M97.5914 36.3035C97.5914 36.3035 98.834 33.6498 97.0606 33.9183C95.2873 34.1867 94.8565 39.157 96.1802 39.6441C97.504 40.1374 97.5914 36.3035 97.5914 36.3035Z" fill="#FD5E5A"/>
<path d="M112.839 41.6797C112.814 43.1346 112.602 44.5832 112.252 45.9943C111.459 49.0414 110.504 50.0655 110.41 50.2403C110.117 50.0343 109.336 49.5285 108.35 48.7168C109.074 49.0165 109.78 49.3537 110.467 49.7158L110.148 49.7907C111.372 47.2619 111.99 44.4458 112.839 41.6797Z" fill="#172866"/>
<path d="M102.918 50.9644C102.868 50.5211 103.536 50.4461 103.592 50.8832C103.611 51.0268 104.048 54.3986 107.27 55.098C107.451 55.1354 107.57 55.3165 107.526 55.4976C107.32 56.4592 103.436 54.7483 102.918 50.9644Z" fill="#172866"/>
<path d="M109.037 40.793C108.843 41.6671 108.194 42.2728 107.576 42.1354C106.957 42.0043 106.614 41.1801 106.808 40.3059C107.001 39.4255 107.651 38.8261 108.269 38.9572C108.887 39.0946 109.23 39.9125 109.037 40.793Z" fill="#2846A6"/>
<path d="M117.304 43.1285C117.111 44.0027 116.461 44.6083 115.843 44.471C115.225 44.3398 114.881 43.5156 115.075 42.6415C115.269 41.7673 115.918 41.1616 116.536 41.299C117.154 41.4301 117.498 42.2543 117.304 43.1285Z" fill="#2846A6"/>
<path d="M105.484 36.753C105.484 36.753 107.613 35.0858 109.78 35.5603C111.946 36.0349 110.604 37.521 110.098 37.4086C109.592 37.2962 105.584 36.3034 105.484 36.753Z" fill="#172866"/>
<path d="M116.511 37.3774C116.511 37.3774 118.559 39.1695 118.522 40.512C118.522 40.512 116.118 39.1695 115.93 38.3578C115.743 37.5335 116.511 37.3774 116.511 37.3774Z" fill="#172866"/>
<path d="M89.1431 45.9565L78.3845 54.3049C79.5397 57.2771 88.6998 83.6208 106.577 76.3839C109.255 75.2975 108.787 66.8492 108.787 66.8492C79.9143 62.5658 90.2733 46.9119 89.1431 45.9565Z" fill="#FFCB57"/>
<path d="M72.2527 142.99C72.2527 142.99 85.4527 144.351 88.6622 144.963C91.8716 145.575 96.2924 149.215 95.8116 149.546C95.3246 149.877 87.7942 147.46 87.1574 147.891C86.5205 148.322 93.4014 157.476 95.7742 159.143C98.1469 160.81 101.119 160.741 101.737 161.653C102.355 162.565 98.9399 163.021 94.4442 161.422C89.9484 159.824 85.6525 154.098 85.5276 154.76C85.4028 155.421 92.9643 163.095 95.949 164.032C98.9337 164.969 100.913 166.773 99.5144 167.192C98.1157 167.61 89.0181 166.611 83.4484 156.789C83.4484 156.789 82.0809 156.214 82.8115 158.2C83.542 160.186 89.9984 167.017 94.9874 167.966C99.9764 168.921 96.1551 172.093 91.2472 169.308C86.3394 166.523 81.9997 160.785 81.4565 161.16C80.9133 161.528 91.2597 169.389 89.8923 170.32C88.5311 171.25 79.1587 164.625 76.9171 159.767C74.6754 154.903 68.0317 148.253 68.0317 148.253L72.2527 142.99Z" fill="#FC7575"/>
<path d="M75.4871 54.4174C75.4871 54.4174 67.0139 52.6815 55.8807 57.683C44.7475 62.6845 27.8822 83.2775 33.3957 105.5C38.9093 127.723 67.17 151.007 67.17 151.007L78.9026 143.364C78.9026 143.364 56.1117 109.309 56.1117 101.136C56.1117 92.9558 87.0386 65.9689 75.4871 54.4174Z" fill="#F57C57"/>
<path d="M57.2732 102.99C55.6997 97.7013 64.3852 89.6152 71.6908 77.9388C76.1865 70.7644 81.8437 60.0995 75.4872 54.4111C85.1905 64.87 61.6253 86.3496 55.9682 98.2071C54.7381 101.148 55.3251 101.929 56.1056 104.988C57.8602 110.033 62.1124 117.651 64.8348 122.122C69.2494 129.39 73.9074 136.496 78.9027 143.364C54.1262 101.91 58.6282 105.594 57.2732 102.99Z" fill="#F9A94B"/>
<path d="M105.559 141.797C105.559 141.797 100.669 145.931 100.239 150.976C99.8078 156.027 106.345 145.194 106.414 147.136C106.483 149.078 104.528 156.533 106.452 155.927C108.375 155.322 110.042 147.098 110.785 147.785C111.522 148.472 108.918 156.433 111.066 155.79C113.208 155.153 114.425 149.471 115.368 149.702C116.317 149.939 113.507 156.002 115.537 154.622C117.572 153.249 120.401 150.857 120.345 149.315C120.288 147.773 119.121 145.675 117.341 144.794C115.568 143.914 115.786 142.496 111.472 142.109C107.17 141.741 105.559 141.797 105.559 141.797Z" fill="#FC7575"/>
<path d="M97.7224 77.3642C98.4967 77.5203 98.7152 77.5827 99.5394 77.6015C103.673 73.5366 104.56 68.4414 104.379 66.0437C103.742 65.9001 103.136 65.7564 102.549 65.6003C102.768 67.4049 102.93 73.318 97.7224 77.3642Z" fill="#A0626B"/>
<path d="M178.383 224.006C178.383 224.006 98.4278 222.951 105.421 237.562C108.855 244.737 128.98 255.258 151.328 251.056C173.675 246.847 204.252 251.056 221.842 251.056C239.432 251.056 258.301 231.418 240.974 225.642C223.653 219.873 178.383 224.006 178.383 224.006Z" fill="#B1B2AB"/>
<path d="M232.507 228.04L177.159 222.477L141.861 231.537L143.472 237.3L145.183 239.005L153.688 236.763L156.404 241.496L173.95 242.114L197.777 245.136L200.618 239.142C200.618 239.142 230.652 243.357 232.507 241.496C234.361 239.642 223.746 238.299 228.198 236.288C232.65 234.278 240.443 235.851 242.585 233.703C244.733 231.555 232.507 228.04 232.507 228.04Z" fill="#B1B2AB"/>
<path d="M172.233 186.829L175.03 226.048L184.871 224.138L177.422 178.518L172.233 186.829Z" fill="#823F11"/>
<path d="M161.249 219.317C156.342 217.357 149.96 217.594 144.653 218.824L144.977 219.511C149.192 218.893 154.731 218.949 158.358 220.435C155.792 221.584 153.775 222.983 152.245 224.843L153.163 225.168C159.489 218.337 176.179 217.581 188.086 218.712L188.523 216.72C180.088 216.22 168.986 216.751 161.249 219.317Z" fill="#2D1805"/>
<path opacity="0.74" d="M193.837 136.146C193.837 136.146 197.59 153.411 189.441 154.285C186.7 154.579 177.871 149.683 178.24 140.529C178.608 131.376 169.96 117.857 163.535 117.857C163.535 117.857 171.452 120.879 170.222 128.934C168.867 137.801 163.928 135.197 161.58 144.351C161.574 142.39 156.604 137.389 156.154 136.858C157.565 139.718 159.401 147.716 155.411 155.927C152.876 161.135 161.474 189.527 171.19 183.495C174.443 181.478 176.916 175.777 181.218 175.54C185.52 175.303 185.358 185.337 188.292 183.195C191.227 181.053 196.965 174.622 198.889 166.954C199.963 162.658 203.996 141.991 193.837 136.146Z" fill="#FF6001"/>
<path d="M182.411 216.557L227.181 215.221C227.181 215.221 230.453 215.377 231.97 222.733C233.493 230.088 231.296 231.393 231.296 231.393L190.528 228.827L182.411 216.557Z" fill="#3F2403"/>
<path opacity="0.3" d="M228.198 215.595C227.593 215.233 227.181 215.215 227.181 215.215L187.5 216.401C190.272 218.924 195.517 222.258 204.496 223.301C215.523 224.581 226.394 221.871 228.198 215.595Z" fill="#F95300"/>
<path d="M177.422 174.266L175.33 179.761L200.618 239.136H208.324L177.422 174.266Z" fill="#AA5F2D"/>
<path d="M212.782 236.763L204.496 218.156L214.305 236.713L212.782 236.763Z" fill="#AD6C1E"/>
<path d="M183.51 174.266H177.422L208.324 239.136L212.988 237.219L211.058 231.612L214.305 236.713L216.847 235.926L183.51 174.266Z" fill="#CE8B32"/>
<path d="M186.638 189.52L209.017 238.855L210.771 238.13L186.638 189.52Z" fill="#AD6C1E"/>
<path d="M202.947 211.368L215.41 236.37L216.022 236.182L202.947 211.368Z" fill="#AD6C1E"/>
<path d="M181.749 174.266L193.244 198.075L182.486 174.266H181.749Z" fill="#AD6C1E"/>
<path d="M141.643 226.161L150.585 227.822L180.968 174.416L178.29 170.439L141.643 226.161Z" fill="#82451C"/>
<path d="M169.723 221.122L135.031 223.182L135.436 228.821L145.433 239.08L174.712 230.85V219.43L169.723 221.122Z" fill="#3F2403"/>
<path opacity="0.3" d="M166.232 223.201C167 222.708 168.018 222.002 168.917 221.172L143.735 222.664C144.753 226.729 149.486 227.99 153.469 227.422C157.047 226.916 160.219 226.23 163.304 224.8C164.284 224.35 165.258 223.826 166.232 223.201Z" fill="#F95300"/>
<path opacity="0.69" d="M179.22 119.25C179.22 119.25 179.726 128.591 180.481 135.378C181.237 142.159 170.778 142.915 170.778 149.996C170.778 157.076 172.739 156.021 172.739 162.353C172.739 168.684 171.983 162.802 169.123 159.942C166.257 157.076 161.737 156.021 163.547 152.306C163.547 152.306 160.681 156.877 164.952 161.148C169.223 165.418 164.852 168.984 165.658 172.399C166.463 175.815 174.1 182.509 177.796 182.702C181.811 182.908 190.971 176.121 192.582 169.989C194.187 163.857 194.493 161.347 194.493 161.347C194.493 161.347 192.283 167.173 188.567 167.173C184.852 167.173 183.847 170.788 183.847 170.788C183.847 170.788 191.983 165.562 188.767 160.542C185.551 155.522 180.425 157.126 179.726 152.805C179.02 148.485 186.057 146.88 184.047 139.843C182.036 132.812 179.22 119.25 179.22 119.25Z" fill="#FA352C"/>
<path opacity="0.84" d="M177.034 135.522C177.034 135.522 176.734 144.114 177.715 148.104C178.695 152.1 171.265 156.083 172.57 159.518C173.875 162.952 175.23 163.707 174.174 167.398C173.119 171.088 169.504 171.544 169.504 167.398C169.504 163.252 170.484 161.897 169.504 158.506C168.524 155.116 167.468 153.611 167.468 153.611C167.468 153.611 169.504 158.281 169.123 159.942C168.748 161.597 166.413 169.059 167.993 174.035C169.573 179.005 175.579 182.128 177.334 182.752C178.857 183.295 186.75 179.992 188.186 174.791C189.616 169.589 188.186 168.765 188.186 168.765C188.186 168.765 187.737 173.211 186.226 173.211C184.714 173.211 184.565 168.615 186.226 166.13C187.88 163.645 180.275 159.724 179.444 157.014C178.614 154.304 182.005 151.663 180.35 147.748C178.695 143.814 177.034 135.522 177.034 135.522Z" fill="#F72B1E"/>
<path opacity="0.64" d="M178.552 152.481C178.552 152.481 180.294 156.402 178.552 158.887C176.81 161.372 174.249 162.203 175.305 166.499C176.36 170.795 173.494 172 173.044 173.885C172.595 175.771 174.549 181.822 177.34 182.752C180.131 183.682 182.991 178.937 184.121 176.445C185.252 173.96 182.916 170.345 181.105 166.948C179.295 163.558 180.656 163.027 181.555 160.998C182.46 158.962 178.552 152.481 178.552 152.481Z" fill="#FCC700"/>
<path d="M175.842 156.421C175.842 156.421 176.753 160.96 175.142 162.577C173.531 164.188 174.662 171.257 176.216 171.619C179.195 172.299 180.138 167.41 180.437 165.406C180.737 163.408 179.438 160.754 179.438 160.754C179.438 160.754 179.201 163.907 178.52 163.907C178.52 163.907 177.39 158.388 175.842 156.421Z" fill="#FCC700"/>
<path d="M181.605 171.619L157.203 241.846L148.686 239.136L174.075 172.393L177.465 171.207L176.56 173.898L178.633 170.439L181.605 171.619Z" fill="#CE8B32"/>
<path d="M174.075 172.393L172.707 175.983C172.707 175.983 174.724 172.524 175.068 173.323C175.411 174.122 174.799 175.983 175.068 175.983C175.336 175.983 175.792 174.16 176.21 174.578C176.629 174.997 177.721 172.387 178.427 171.675C179.139 170.963 179.058 171.725 179.058 172.33C179.058 172.936 179.819 171.987 180.2 171.987C180.581 171.987 180.088 175.977 180.088 175.977L181.605 171.612L178.639 170.432L176.622 173.71L177.472 171.2L174.075 172.393Z" fill="#2B2825"/>
<path d="M170.959 194.816L156.547 241.64L154.874 241.109L170.959 194.816Z" fill="#633706"/>
<path d="M172.408 185.181L154.119 240.865L152.857 240.466L172.408 185.181Z" fill="#633706"/>
<path d="M157.203 241.846L162.635 238.262L163.216 235.627L163.135 238.068L164.883 237.45L182.211 176.926L181.605 171.619L157.203 241.846Z" fill="#774828"/>
<path d="M145.433 239.08C145.433 239.08 146.039 237.825 146.045 236.333C146.052 234.84 145.758 233.179 145.758 233.179L144.578 233.192L145.583 232.168C145.583 232.168 145.596 229.539 143.766 227.054C141.937 224.569 140.831 224.269 139.945 223.963C138.915 223.613 137.272 222.92 135.874 223.445L135.867 224.512L135.037 223.189C135.037 223.189 131.372 224.175 130.928 228.384C130.591 231.581 131.746 234.778 131.746 234.778L145.433 239.08Z" fill="#2D1606"/>
<path d="M131.99 234.846C131.728 233.972 131.053 231.393 131.309 228.84C131.659 225.418 134.163 224.132 134.956 223.807L136.255 225.936L136.261 223.894C137.485 223.526 138.79 224.069 140.039 224.494C140.894 224.787 141.862 225.112 143.51 227.428C144.897 229.37 145.134 231.425 145.171 232.068L143.329 234.053L145.446 234.01C145.796 236.601 145.652 237.744 145.178 238.999L131.99 234.846Z" fill="#C0804F"/>
<path d="M142.936 232.992C143.579 232.368 143.56 229.295 141.568 227.035C139.57 224.775 137.472 226.123 136.879 227.166C136.279 228.209 133.495 225.849 132.627 229.189C132.115 231.156 132.727 233.598 133.32 235.271L143.672 238.53C143.891 237.581 144.022 236.595 143.847 236.033C143.423 234.709 142.292 233.616 142.936 232.992Z" fill="#D8983A"/>
<path d="M142.661 232.549C143.067 232.155 142.911 230.182 141.075 228.097C139.452 226.261 137.822 226.486 137.216 227.541C136.423 228.921 133.82 226.342 133.008 229.458C132.508 231.375 133.189 233.829 133.776 235.408L143.267 238.399C143.498 237.4 143.61 236.52 143.492 236.133C143.111 234.959 141.731 233.448 142.661 232.549Z" fill="#B77548"/>
<path d="M142.549 236.282C142.474 236.095 142.336 235.839 142.211 235.602C141.762 234.753 140.738 232.798 141.855 231.537C141.849 231.225 141.631 230.244 140.538 229.008C140.126 228.54 139.707 228.24 139.295 228.109C138.683 227.915 138.228 228.153 138.047 228.477C137.478 229.47 136.504 229.333 135.717 229.214C134.687 229.064 134.225 229.039 133.938 230.126C133.463 231.943 134.4 234.559 134.906 235.77L142.23 238.074C142.442 237.244 142.549 236.582 142.549 236.282Z" fill="#CE8B32"/>
<path d="M136.08 236.139C135.699 235.109 133.819 231.481 135.842 230.519C136.56 230.182 139.539 228.39 141.524 236.32C141.749 237.094 141.487 237.438 141.169 237.744L136.08 236.139Z" fill="#B77141"/>
<path d="M184.84 199.655C186.532 191.793 184.228 182.508 180.631 175.134L179.613 175.846C181.886 181.828 183.466 189.976 182.148 195.796C179.513 192.418 176.641 189.92 173.163 188.303L172.913 189.758C185.889 196.745 192.145 220.997 193.9 238.849L197.259 238.824C195.542 226.267 191.327 210.157 184.84 199.655Z" fill="#2D1805"/>
<path d="M169.492 198.999C173.582 192.074 174.325 182.539 173.244 174.403L172.058 174.759C172.32 181.153 171.246 189.383 168.162 194.491C166.726 190.451 164.796 187.172 162.005 184.544L161.306 185.849C171.402 196.576 169.304 222.333 165.333 239.829L168.905 240.091C171.24 227.628 172.333 211.012 169.492 198.999Z" fill="#2D1805"/>
<path d="M164.278 199.218C162.298 200.972 159.676 203.37 157.834 205.268C159.326 201.391 161.062 197.12 162.754 193.255L161.818 192.83C161.112 194.366 160.425 195.908 159.757 197.457C157.921 194.634 157.447 191.213 158.165 188.584L157.622 188.378C156.41 191.425 156.579 195.378 158.914 199.424C154.206 210.488 147.881 227.116 146.039 239.005L148.131 239.142C149.461 229.501 153.575 216.483 157.022 207.372C158.877 205.137 162.586 201.703 164.74 199.748L164.278 199.218Z" fill="#2D1805"/>
<path d="M197.084 235.371L186.669 220.503C182.005 213.841 172.514 215.777 171.103 220.66L167 236.969L192.826 240.716L197.984 237.456L197.084 235.371Z" fill="#633706"/>
<path d="M185.083 222.951L187.125 228.571L187.499 233.392L188.467 229.189L185.083 222.951Z" fill="#492002"/>
<path d="M167.649 244.125L198.539 245.155C198.539 245.155 199.881 240.622 197.758 236.913L195.629 237.637L197.084 235.371C197.084 235.371 194.399 231.15 188.467 229.189L187.462 232.798L187.125 228.577C187.125 228.577 182.304 225.998 176.379 228.577C170.453 231.15 164.403 234.578 167.649 244.125Z" fill="#3D1F04"/>
<path d="M167.837 244.131C165.096 235.477 170.853 231.662 176.672 229.127C180.044 227.659 183.678 227.753 186.488 228.958L187.512 233.785L188.942 230.007C193.244 231.631 195.617 234.459 196.304 235.377L194.1 238.811L197.428 237.681C198.708 240.347 198.033 243.975 197.79 245.124L167.837 244.131Z" fill="#CE8B32"/>
<path d="M168.873 243.045C168.199 239.299 168.798 235.09 172.002 232.661C176.16 229.701 180.444 229.364 183.453 230.557C180.618 229.577 176.235 229.97 172.214 232.905C170.871 233.91 169.872 235.115 169.204 237.519C168.761 239.261 168.661 241.39 168.873 243.045Z" fill="#AA691A"/>
<path d="M189.76 232.355C191.252 232.524 193.831 234.359 194.499 236.801C193.65 235.383 192.532 233.86 190.528 232.723C190.284 232.586 190.035 232.442 189.76 232.355Z" fill="#AA691A"/>
<path d="M180.874 231.899C182.722 231.587 185.495 231.987 186.706 233.392C185.083 232.305 182.897 232.062 180.874 231.899Z" fill="#AA691A"/>
<path d="M192.026 240.878C192.026 237.369 188.667 236.183 186.426 234.584C184.184 232.986 181.38 234.066 177.734 234.066C174.087 234.066 172.745 235.82 171.846 238.468C171.296 240.079 172.395 242.601 173.338 244.325L174.231 244.356C173.325 242.808 172.632 241.203 172.757 240.06C173.082 237.063 175.043 235.671 178.408 235.671C181.774 235.671 181.324 235.102 184.072 235.671C186.819 236.239 188.611 236.445 189.76 239.23C190.528 241.084 190.803 243.095 190.828 244.906L192.002 244.943C192.045 243.657 192.026 242.214 192.026 240.878Z" fill="#AA691A"/>
<path d="M184.072 235.664C181.324 235.096 181.774 235.664 178.408 235.664C175.043 235.664 173.082 237.057 172.757 240.054C172.632 241.197 173.325 242.801 174.231 244.35L175.061 244.375C174.512 243.251 174.243 242.177 174.481 241.303C175.436 237.831 177.172 237.263 179.132 237.263C181.093 237.263 181.262 236.951 184.009 237.263C186.756 237.575 189.111 239.017 189.111 242.321C189.111 243.026 188.929 243.9 188.642 244.824L190.821 244.899C190.803 243.089 190.522 241.078 189.754 239.224C188.611 236.439 186.819 236.233 184.072 235.664Z" fill="#CE8B32"/>
<path d="M184.015 237.263C181.268 236.951 181.099 237.263 179.139 237.263C177.178 237.263 175.436 237.831 174.487 241.303C174.243 242.177 174.518 243.251 175.067 244.375L175.81 244.4C175.23 243.295 174.918 242.258 175.142 241.453C176.048 238.156 177.615 237.881 179.145 237.881C181.449 237.881 188.455 236.688 188.455 242.32C188.455 243.014 188.267 243.875 187.968 244.806L188.655 244.831C188.942 243.9 189.123 243.032 189.123 242.327C189.117 239.017 186.763 237.575 184.015 237.263Z" fill="#3D1F04"/>
<path d="M179.133 237.881C177.603 237.881 176.035 238.156 175.13 241.453C174.912 242.258 175.217 243.295 175.798 244.4L177.259 244.45C176.522 243.544 175.986 242.564 176.435 241.965C177.447 240.622 176.997 240.154 179.407 239.667C181.817 239.173 182.211 238.299 184.621 239.667C186.831 240.922 186.844 243.195 186.401 244.756L187.949 244.806C188.243 243.875 188.436 243.014 188.436 242.32C188.442 236.688 181.437 237.881 179.133 237.881Z" fill="#CE8B32"/>
<path d="M184.627 239.661C182.217 238.293 181.824 239.167 179.413 239.661C177.003 240.154 177.453 240.616 176.441 241.958C175.992 242.558 176.529 243.538 177.265 244.444L186.407 244.749C186.85 243.188 186.844 240.916 184.627 239.661Z" fill="#AA691A"/>
<path d="M183.453 242.789C183.453 243.419 182.261 243.931 180.799 243.931C179.332 243.931 178.146 243.419 178.146 242.789C178.146 242.158 179.332 241.646 180.799 241.646C182.261 241.64 183.453 242.152 183.453 242.789Z" fill="#3F2403"/>
<path opacity="0.84" d="M160.781 176.333C160.781 176.333 152.533 176.907 151.946 185.212C151.359 193.523 154.643 195.658 158.327 194.528C166.588 192.012 151.696 180.579 160.781 176.333Z" fill="#F72B1E"/>
<path opacity="0.84" d="M163.616 175.565C164.172 175.371 153.625 176.907 153.039 185.218C152.452 193.529 155.736 195.664 159.42 194.534C167.675 192.012 151.122 179.942 163.616 175.565Z" fill="#F72B1E"/>
<path d="M156.229 182.389C156.336 181.034 153.376 192.686 156.229 194.334C156.548 194.522 156.854 194.665 157.135 194.778C157.853 194.865 158.627 194.771 159.42 194.534C159.726 194.44 160.001 194.334 160.244 194.216C160.469 193.866 160.581 193.435 160.581 192.992C160.581 191.368 155.805 187.847 156.229 182.389Z" fill="#FCC700"/>
<path opacity="0.84" d="M184.234 177.757C184.234 177.757 175.985 178.331 175.398 186.636C174.811 194.947 178.096 197.076 181.78 195.952C190.035 193.429 175.142 181.996 184.234 177.757Z" fill="#F72B1E"/>
<path opacity="0.84" d="M187.063 176.982C187.618 176.789 177.072 178.325 176.485 186.636C175.898 194.946 179.183 197.076 182.867 195.952C191.127 193.429 174.574 181.359 187.063 176.982Z" fill="#F72B1E"/>
<path d="M179.675 183.807C179.782 182.452 176.822 194.104 179.675 195.752C179.994 195.939 180.3 196.083 180.581 196.195C181.299 196.283 182.073 196.189 182.866 195.952C183.172 195.858 183.447 195.752 183.69 195.627C183.915 195.277 184.028 194.847 184.028 194.403C184.028 192.792 179.257 189.264 179.675 183.807Z" fill="#FCC700"/>
<path opacity="0.3" d="M175.33 219.43C175.33 219.43 172.195 226.198 174.393 226.991C176.591 227.784 177.316 223.357 179.126 225.174C180.937 226.985 184.028 226.136 184.028 223.563C184.028 220.991 179.726 215.034 175.33 219.43Z" fill="#F95300"/>
<path d="M159.214 130.457C159.214 131.013 158.764 131.463 158.208 131.463C157.653 131.463 157.203 131.013 157.203 130.457C157.203 129.902 157.653 129.452 158.208 129.452C158.764 129.452 159.214 129.902 159.214 130.457Z" fill="#FF6001"/>
<path d="M170.666 113.124C171.197 113.124 171.627 112.694 171.627 112.163C171.627 111.632 171.197 111.201 170.666 111.201C170.135 111.201 169.704 111.632 169.704 112.163C169.704 112.694 170.135 113.124 170.666 113.124Z" fill="#FF6001"/>
<path d="M193.862 186.592C193.862 187.154 193.407 187.61 192.845 187.61C192.283 187.61 191.827 187.154 191.827 186.592C191.827 186.03 192.283 185.574 192.845 185.574C193.407 185.574 193.862 186.03 193.862 186.592Z" fill="#FF6001"/>
<path d="M184.415 99.737C184.415 100.293 183.965 100.742 183.41 100.742C182.854 100.742 182.404 100.293 182.404 99.737C182.404 99.1813 182.854 98.7317 183.41 98.7317C183.965 98.7317 184.415 99.1813 184.415 99.737Z" fill="#FF6001"/>
<path d="M173.875 154.285C173.856 154.603 173.582 154.853 173.263 154.835C172.945 154.816 172.695 154.541 172.714 154.223C172.732 153.904 173.007 153.654 173.326 153.673C173.65 153.686 173.894 153.96 173.875 154.285Z" fill="#FCC700"/>
<path d="M173.694 145.5C173.694 145.718 173.519 145.887 173.301 145.887C173.082 145.887 172.907 145.712 172.907 145.5C172.907 145.281 173.082 145.106 173.301 145.106C173.519 145.106 173.694 145.281 173.694 145.5Z" fill="#FCC700"/>
<path d="M167.837 179.143C167.837 179.486 167.556 179.767 167.212 179.767C166.869 179.767 166.588 179.486 166.588 179.143C166.588 178.799 166.869 178.518 167.212 178.518C167.556 178.518 167.837 178.799 167.837 179.143Z" fill="#FCC700"/>
<path d="M187.081 169.165C187.081 169.54 186.775 169.845 186.401 169.845C186.026 169.845 185.714 169.54 185.714 169.165C185.714 168.784 186.02 168.478 186.401 168.478C186.775 168.484 187.081 168.79 187.081 169.165Z" fill="#FCC700"/>
</svg>
