<svg width="1440" height="673" viewBox="0 0 1440 673" fill="none" xmlns="http://www.w3.org/2000/svg">
<path d="M-68.9227 323.257C-68.9227 323.257 -82.6082 295.863 -12.4255 179.248C57.7161 62.6333 463.684 -68.6808 1015.4 41.4611C1567.12 151.603 1493.76 41.4611 1493.76 41.4611V665L-68.9227 665L-68.9227 323.257Z" fill="#F0FCFF"/>
<g opacity="0.05">
<path d="M278.449 659.394H145.389L149.021 644.85L182.89 606.236L156.391 615.284L161.834 593.48L187.563 564.142L167.437 571.014L183.411 506.992L199.838 488.259L186.984 492.652L207.444 410.636L223.942 468.431L213.283 464.795L227.543 481.049V481.053L245.23 543.002L232.577 538.68L249.502 557.978L251.572 565.237L233.743 559.148L257.598 586.346L264.835 611.706L242.51 604.077L272.383 638.134L278.449 659.394Z" fill="#124554"/>
<path d="M278.449 659.394H206.549C205.032 609.979 207.444 410.64 207.444 410.64L223.938 468.436L213.283 464.795L227.539 481.049V481.053L245.225 543.002L232.568 538.68L249.498 557.978L251.567 565.237L233.738 559.148L257.594 586.346L264.83 611.706L242.506 604.077L272.374 638.133L278.449 659.394Z" fill="#044A59"/>
<path d="M197.074 659.394H36.7719L41.1468 641.872L81.9501 595.354L50.0258 606.258L56.5816 579.986L87.5845 544.639L63.3376 552.922L82.5776 475.797L102.37 453.224L86.8858 458.516L111.533 359.716L131.405 429.342L118.57 424.958L135.745 444.541V444.545L157.054 519.177L141.806 513.966L162.199 537.22L164.692 545.966L143.217 538.627L171.955 571.392L180.674 601.946L153.779 592.755L189.762 633.785L197.074 659.394Z" fill="#124554"/>
<path d="M197.074 659.394H110.456C108.627 599.867 111.533 359.716 111.533 359.716L131.405 429.342L118.57 424.958L135.745 444.541V444.545L157.054 519.177L141.807 513.97L162.199 537.22L164.692 545.966L143.213 538.627L171.951 571.392L180.669 601.946L153.774 592.755L189.758 633.785L197.074 659.394Z" fill="#044A59"/>
<path d="M121.302 669.461H-39L-34.625 651.943L6.17823 605.421L-25.7461 616.325L-19.1903 590.053L11.8127 554.711L-12.4343 562.989L6.80577 485.864L26.5977 463.291L11.114 468.587L35.7615 369.783L55.6335 439.409L42.7979 435.025L59.9728 454.608V454.612L81.2824 529.244L66.0346 524.037L86.4273 547.287L88.9197 556.033L67.441 548.694L96.1831 581.459L104.902 612.013L78.0068 602.822L113.99 643.852L121.302 669.461Z" fill="#124554"/>
<path d="M121.302 669.461H34.6843C32.8551 609.934 35.7614 369.783 35.7614 369.783L55.6334 439.409L42.7978 435.025L59.9728 454.608V454.612L81.2823 529.244L66.0345 524.037L86.4272 547.287L88.9196 556.033L67.4409 548.694L96.1785 581.459L104.897 612.013L78.0022 602.822L113.985 643.852L121.302 669.461Z" fill="#044A59"/>
<path d="M246.578 659.394H74.1304L78.8347 640.546L122.727 590.498L88.3857 602.23L95.4399 573.969L128.788 535.943L102.703 544.853L123.403 461.88L144.699 437.597L128.036 443.29L154.553 337L175.934 411.904L162.124 407.186L180.598 428.255V428.26L203.523 508.549L187.123 502.946L209.064 527.958L211.743 537.367L188.636 529.471L219.554 564.72L228.932 597.588L200.003 587.703L238.714 631.845L246.578 659.394Z" fill="#265563"/>
<path d="M246.578 659.394H153.396C151.424 595.354 154.553 337 154.553 337L175.934 411.904L162.124 407.186L180.603 428.251V428.255L203.528 508.545L187.127 502.941L209.069 527.954L211.752 537.362L188.645 529.467L219.563 564.716L228.941 597.584L200.007 587.699L238.719 631.836L246.578 659.394Z" fill="#2C6875"/>
<path d="M382.79 659.394H249.729L253.361 644.85L287.23 606.236L260.731 615.284L266.175 593.48L291.908 564.142L271.782 571.014L287.751 506.992L304.183 488.259L291.329 492.652L311.789 410.636L328.283 468.431L317.628 464.795L331.883 481.049V481.053L349.57 543.002L336.917 538.68L353.843 557.978L355.912 565.237L338.088 559.148L361.938 586.346L369.175 611.706L346.855 604.077L376.723 638.134L382.79 659.394Z" fill="#265563"/>
<path d="M382.79 659.394H310.89C309.368 609.979 311.785 410.64 311.785 410.64L328.279 468.436L317.624 464.795L331.879 481.049V481.053L349.566 543.002L336.908 538.68L353.839 557.978L355.908 565.237L338.079 559.148L361.934 586.346L369.171 611.706L346.847 604.077L376.715 638.133L382.79 659.394Z" fill="#2C6875"/>
<path d="M536.256 659.394H403.196L406.827 644.85L440.696 606.236L414.197 615.284L419.641 593.48L445.374 564.142L425.248 571.014L441.217 506.992L457.649 488.259L444.795 492.652L465.25 410.636L481.749 468.431L471.094 464.795L485.349 481.049V481.053L503.036 543.002L490.383 538.68L507.309 557.978L509.378 565.237L491.549 559.148L515.405 586.346L522.641 611.706L500.321 604.077L530.189 638.134L536.256 659.394Z" fill="#124554"/>
<path d="M536.256 659.394H464.356C462.838 609.979 465.25 410.64 465.25 410.64L481.744 468.436L471.09 464.795L485.345 481.049V481.053L503.032 543.002L490.374 538.68L507.304 557.978L509.374 565.237L491.545 559.148L515.4 586.346L522.637 611.706L500.312 604.077L530.18 638.133L536.256 659.394Z" fill="#044A59"/>
<path d="M684.831 659.394H607.23L609.348 650.911L629.1 628.391L613.648 633.669L616.821 620.949L631.828 603.841L620.092 607.851L629.403 570.51L638.985 559.584L631.49 562.148L643.422 514.317L653.044 548.021L646.827 545.898L655.141 555.378V555.383L665.457 591.513L658.078 588.989L667.95 600.245L669.156 604.482L658.759 600.93L672.672 616.792L676.891 631.582L663.873 627.131L681.292 646.994L684.831 659.394Z" fill="#124554"/>
<path d="M684.831 659.394H642.897C642.011 630.576 643.418 514.317 643.418 514.317L653.04 548.026L646.827 545.903L655.141 555.383V555.387L665.457 591.517L658.078 588.994L667.95 600.249L669.156 604.482L658.759 600.93L672.672 616.792L676.891 631.582L663.873 627.131L681.292 646.994L684.831 659.394Z" fill="#044A59"/>
<path d="M418.951 659.394H341.35L343.469 650.911L363.22 628.391L347.768 633.669L350.941 620.949L365.949 603.841L354.208 607.851L363.523 570.51L373.105 559.584L365.61 562.148L377.543 514.317L387.16 548.021L380.947 545.898L389.261 555.378V555.383L399.578 591.513L392.198 588.989L402.07 600.245L403.276 604.482L392.879 600.93L406.792 616.792L411.011 631.582L397.993 627.131L415.413 646.994L418.951 659.394Z" fill="#124554"/>
<path d="M418.951 659.394H377.017C376.132 630.576 377.538 514.317 377.538 514.317L387.16 548.026L380.947 545.903L389.261 555.383V555.387L399.578 591.517L392.198 588.994L402.07 600.249L403.276 604.482L392.879 600.93L406.792 616.792L411.011 631.582L397.993 627.131L415.413 646.994L418.951 659.394Z" fill="#044A59"/>
<path d="M756.21 659.394H657.833L660.517 648.641L685.556 620.09L665.969 626.784L669.993 610.66L689.015 588.972L674.136 594.054L685.944 546.722L698.089 532.867L688.587 536.116L703.715 475.481L715.91 518.211L708.032 515.523L718.571 527.54V527.544L731.647 573.341L722.292 570.146L734.807 584.414L736.338 589.782L723.155 585.278L740.793 605.386L746.143 624.136L729.64 618.497L751.724 643.674L756.21 659.394Z" fill="#124554"/>
<path d="M756.21 659.394H703.052C701.93 622.863 703.715 475.485 703.715 475.485L715.909 518.216L708.032 515.523L718.571 527.54V527.544L731.647 573.346L722.292 570.15L734.807 584.419L736.338 589.786L723.155 585.282L740.793 605.39L746.142 624.14L729.64 618.502L751.724 643.679L756.21 659.394Z" fill="#044A59"/>
<path d="M800.591 659.394H868.396L866.545 651.984L849.29 632.303L862.789 636.918L860.016 625.805L846.904 610.855L857.159 614.358L849.023 581.735L840.651 572.188L847.198 574.427L836.775 532.631L828.368 562.086L833.797 560.23L826.534 568.512V568.517L817.521 600.085L823.97 597.882L815.341 607.713L814.29 611.412L823.374 608.31L811.219 622.169L807.53 635.093L818.906 631.204L803.684 648.561L800.591 659.394Z" fill="#124554"/>
<path d="M800.591 659.394H837.229C838.003 634.212 836.775 532.636 836.775 532.636L828.368 562.085L833.797 560.23L826.534 568.512V568.517L817.521 600.085L823.97 597.882L815.345 607.718L814.29 611.416L823.374 608.314L811.219 622.173L807.53 635.098L818.906 631.212L803.684 648.565L800.591 659.394Z" fill="#044A59"/>
<path d="M1014.22 659.394H1112.59L1109.91 648.641L1084.87 620.09L1104.46 626.784L1100.43 610.66L1081.41 588.972L1096.29 594.054L1084.48 546.722L1072.33 532.867L1081.84 536.116L1066.71 475.481L1054.52 518.211L1062.39 515.523L1051.86 527.54V527.544L1038.77 573.341L1048.13 570.146L1035.62 584.414L1034.09 589.782L1047.27 585.278L1029.63 605.386L1024.28 624.136L1040.79 618.497L1018.7 643.674L1014.22 659.394Z" fill="#124554"/>
<path d="M1014.22 659.394H1067.37C1068.5 622.863 1066.71 475.485 1066.71 475.485L1054.52 518.216L1062.39 515.523L1051.86 527.54V527.544L1038.78 573.346L1048.13 570.15L1035.62 584.419L1034.09 589.786L1047.27 585.282L1029.63 605.39L1024.28 624.14L1040.79 618.502L1018.7 643.679L1014.22 659.394Z" fill="#044A59"/>
<path d="M1311.07 659.394H1460.78L1456.7 643.029L1418.59 599.582L1448.41 609.765L1442.28 585.229L1413.33 552.214L1435.97 559.949L1418 487.916L1399.52 466.833L1413.98 471.778L1390.96 379.499L1372.4 444.527L1384.39 440.432L1368.35 458.724V458.729L1348.44 528.435L1362.69 523.57L1343.64 545.285L1341.31 553.451L1361.37 546.597L1334.53 577.2L1326.38 605.737L1351.5 597.152L1317.9 635.476L1311.07 659.394Z" fill="#124554"/>
<path d="M1311.07 659.394H1391.97C1393.68 603.797 1390.96 379.499 1390.96 379.499L1372.4 444.531L1384.39 440.437L1368.35 458.724V458.729L1348.45 528.435L1362.69 523.57L1343.64 545.285L1341.31 553.451L1361.37 546.597L1334.53 577.2L1326.38 605.737L1351.5 597.152L1317.89 635.472L1311.07 659.394Z" fill="#044A59"/>
<path d="M1216.53 659.394H1378.21L1373.8 641.725L1332.64 594.806L1364.84 605.8L1358.23 579.305L1326.96 543.66L1351.41 552.009L1332.01 474.226L1312.05 451.461L1327.66 456.797L1302.81 357.148L1282.76 427.374L1295.71 422.95L1278.39 442.702V442.707L1256.9 517.975L1272.27 512.724L1251.71 536.174L1249.19 544.991L1270.85 537.594L1241.87 570.64L1233.08 601.451L1260.2 592.185L1223.91 633.562L1216.53 659.394Z" fill="#124554"/>
<path d="M1216.53 659.394H1303.89C1305.74 599.355 1302.8 357.152 1302.8 357.152L1282.76 427.374L1295.71 422.95L1278.39 442.702V442.707L1256.9 517.975L1272.27 512.724L1251.71 536.174L1249.19 544.995L1270.85 537.594L1241.87 570.64L1233.08 601.456L1260.2 592.185L1223.9 633.567L1216.53 659.394Z" fill="#044A59"/>
<path d="M1097.85 659.394H1244.04L1240.05 643.416L1202.84 600.988L1231.95 610.936L1225.97 586.973L1197.7 554.742L1219.81 562.295L1202.26 491.957L1184.21 471.369L1198.33 476.198L1175.86 386.09L1157.74 449.592L1169.44 445.591L1153.78 463.451V463.455L1134.34 531.519L1148.25 526.77L1129.65 547.973L1127.38 555.948L1146.97 549.254L1120.76 579.136L1112.8 607.001L1137.33 598.621L1104.51 636.037L1097.85 659.394Z" fill="#124554"/>
<path d="M1097.85 659.394H1176.84C1178.51 605.105 1175.86 386.095 1175.86 386.095L1157.74 449.592L1169.45 445.595L1153.78 463.455V463.46L1134.35 531.523L1148.25 526.774L1129.65 547.977L1127.38 555.953L1146.97 549.259L1120.76 579.14L1112.81 607.006L1137.33 598.625L1104.52 636.041L1097.85 659.394Z" fill="#044A59"/>
<path d="M912.756 659.394H1006.82L1004.26 649.113L980.312 621.813L999.045 628.213L995.195 612.796L977.005 592.056L991.234 596.916L979.943 551.658L968.326 538.413L977.415 541.519L962.955 483.541L951.289 524.398L958.824 521.825L948.744 533.317V533.321L936.242 577.115L945.188 574.058L933.22 587.703L931.76 592.83L944.36 588.527L927.496 607.753L922.383 625.68L938.165 620.291L917.046 644.364L912.756 659.394Z" fill="#124554"/>
<path d="M912.756 659.395H963.582C964.655 624.462 962.95 483.546 962.95 483.546L951.289 524.403L958.824 521.831L948.744 533.322V533.327L936.238 577.121L945.183 574.063L933.216 587.709L931.751 592.84L944.355 588.536L927.492 607.763L922.378 625.69L938.16 620.296L917.046 644.374L912.756 659.395Z" fill="#044A59"/>
<path d="M1259.01 654.997H1402.85L1391.95 611.327L1357.64 579.011L1385.88 586.982L1362.3 492.442L1342.48 473.776L1358.79 478.378L1335.76 386.09L1320.68 438.941L1331.1 436L1318 448.341L1307.6 484.747L1321.63 480.791L1304 497.396L1268.16 622.961L1290.03 616.788L1262.53 642.691V642.695L1259.01 654.997Z" fill="#265563"/>
<path d="M1259.01 654.997H1335.76V386.09L1320.68 438.941L1331.1 436L1318 448.341L1307.6 484.747L1321.63 480.791L1304 497.396L1268.16 622.961L1290.03 616.788L1262.53 642.691V642.695L1259.01 654.997Z" fill="#2C6875"/>
<path d="M993.868 659.942H1072.16L1066.23 636.175L1047.55 618.586L1062.92 622.926L1050.09 571.468L1039.3 561.307L1048.17 563.813L1035.65 513.583L1027.43 542.347L1033.11 540.745L1025.97 547.466L1020.32 567.28L1027.95 565.126L1018.35 574.165L998.844 642.509L1010.75 639.148L995.782 653.243V653.248L993.868 659.942Z" fill="#265563"/>
<path d="M993.868 659.942H1035.65V513.583L1027.43 542.347L1033.11 540.745L1025.97 547.466L1020.32 567.28L1027.95 565.126L1018.35 574.165L998.844 642.509L1010.75 639.148L995.782 653.243V653.248L993.868 659.942Z" fill="#2C6875"/>
<path d="M1082.65 659.942H1183.28L1175.65 629.393L1151.65 606.783L1171.41 612.36L1154.91 546.224L1141.04 533.161L1152.45 536.383L1136.35 471.818L1125.79 508.79L1133.08 506.733L1123.92 515.368L1116.64 540.839L1126.45 538.07L1114.12 549.686L1089.04 637.533L1104.35 633.211L1085.11 651.334V651.339L1082.65 659.942Z" fill="#265563"/>
<path d="M1082.65 659.942H1136.35V471.818L1125.79 508.79L1133.08 506.733L1123.92 515.368L1116.64 540.839L1126.45 538.07L1114.12 549.686L1089.04 637.533L1104.35 633.211L1085.11 651.334V651.339L1082.65 659.942Z" fill="#2C6875"/>
<path d="M1189.57 662.322H1313.62L1310.83 651.116L1274.89 617.273L1304.47 625.618L1293.69 582.407L1263.99 554.444L1288.43 561.338L1273.6 501.891L1255.77 485.094L1255.27 484.631L1255.77 484.769L1270.35 488.886L1255.77 430.418L1247.8 458.351L1255.27 456.241L1245.88 465.093V465.098L1234.74 504.094L1249.28 499.991L1231 517.21L1224.04 541.577L1239.47 537.22L1220.07 555.494V555.499L1213.64 578.019L1239.47 570.733L1206.99 601.327L1189.57 662.322Z" fill="#265563"/>
<path d="M1189.57 662.322H1255.77V430.418L1247.8 458.351L1255.27 456.241L1245.88 465.093V465.098L1234.74 504.094L1249.28 499.991L1231 517.21L1224.04 541.577L1239.47 537.22L1220.07 555.494V555.499L1213.64 578.019L1239.47 570.733L1206.99 601.327L1189.57 662.322Z" fill="#2C6875"/>
<path d="M871.468 662.323H953.969L952.108 654.868L928.208 632.361L947.88 637.911L940.71 609.173L920.963 590.574L937.212 595.158L927.349 555.623L915.493 544.452L915.164 544.141L915.493 544.234L925.191 546.971L915.493 508.086L910.188 526.663L915.164 525.261L908.911 531.15L901.505 557.088L911.176 554.36L899.017 565.811L894.393 582.016L904.651 579.118L891.749 591.273V591.277L887.472 606.254L904.651 601.407L883.048 621.755L871.468 662.323Z" fill="#265563"/>
<path d="M871.468 662.323H915.493V508.086L910.188 526.663L915.164 525.261L908.911 531.15L901.505 557.088L911.176 554.36L899.017 565.811L894.393 582.016L904.651 579.118L891.749 591.273V591.277L887.472 606.254L904.651 601.407L883.048 621.755L871.468 662.323Z" fill="#2C6875"/>
<path d="M301.481 659.394H190.367L197.532 630.661V630.656L223.595 606.116L202.148 612.169L217.253 551.622L232.87 536.913L220.017 540.54L224.285 523.414L238.727 509.818L226.844 513.169L242.185 451.67L252.782 488.789L246.049 486.888L254.518 494.864V494.868L270.959 552.455L260.202 549.419L273.723 562.157L279.37 581.936L264.599 577.765L283.176 595.265L301.481 659.394Z" fill="#2C6875"/>
<path d="M242.185 451.67V659.394H190.367L197.532 630.661V630.656L223.595 606.116L202.148 612.169L217.253 551.622L232.87 536.913L220.017 540.54L224.285 523.414L238.727 509.818L226.844 513.169L242.185 451.67Z" fill="#265563"/>
<path d="M705.001 659.759H625.046L630.199 639.086V639.082L648.954 621.422L633.52 625.779L644.392 582.207L655.626 571.624L646.382 574.236L649.453 561.912L659.845 552.125L651.295 554.538L662.333 510.285L669.957 536.998L665.11 535.627L671.207 541.368L683.037 582.808L675.298 580.627L685.027 589.791L689.09 604.024L678.458 601.024L691.827 613.615L705.001 659.759Z" fill="#2C6875"/>
<path d="M662.333 510.285V659.759H625.046L630.199 639.086V639.082L648.954 621.422L633.52 625.779L644.392 582.207L655.626 571.624L646.382 574.236L649.453 561.912L659.845 552.125L651.295 554.538L662.333 510.285Z" fill="#265563"/>
<path d="M811.384 659.759H731.428L736.582 639.086V639.082L755.337 621.422L739.902 625.779L750.775 582.207L762.013 571.624L752.765 574.236L755.836 561.912L766.228 552.125L757.678 554.538L768.716 510.285L776.34 536.998L771.493 535.627L777.59 541.368L789.42 582.808L781.68 580.627L791.409 589.791L795.473 604.024L784.84 601.024L798.21 613.615L811.384 659.759Z" fill="#2C6875"/>
<path d="M768.716 510.285V659.759H731.428L736.582 639.086V639.082L755.337 621.422L739.902 625.779L750.775 582.207L762.013 571.624L752.765 574.236L755.836 561.912L766.228 552.125L757.678 554.538L768.716 510.285Z" fill="#265563"/>
<path d="M457.48 659.394H363.812L369.852 635.169L391.82 614.478L373.742 619.579L386.475 568.539L399.64 556.14L388.807 559.197L392.407 544.759L404.58 533.295L394.562 536.121L407.495 484.275L416.432 515.568L410.753 513.965L417.892 520.686V520.69L431.751 569.238L422.685 566.683L434.083 577.418L438.845 594.094L426.388 590.578L442.05 605.328L457.48 659.394Z" fill="#317F89"/>
<path d="M407.495 484.275V659.394H363.812L369.852 635.169L391.82 614.478L373.742 619.579L386.475 568.539L399.64 556.14L388.807 559.197L392.407 544.759L404.58 533.295L394.562 536.121L407.495 484.275Z" fill="#2E747F"/>
<path d="M598.395 659.394H520.598L525.614 639.277V639.273L543.862 622.089L528.845 626.326L539.424 583.934L550.355 573.635L541.356 576.176L544.347 564.182L554.458 554.662L546.14 557.007L556.88 513.948L564.299 539.939L559.586 538.609L565.514 544.194L577.023 584.517L569.497 582.394L578.964 591.308L582.916 605.159L572.572 602.239L585.577 614.492L598.395 659.394Z" fill="#317F89"/>
<path d="M556.88 513.948V659.394H520.598L525.614 639.277V639.273L543.862 622.089L528.845 626.326L539.424 583.934L550.355 573.635L541.356 576.176L544.347 564.182L554.458 554.662L546.14 557.007L556.88 513.948Z" fill="#2E747F"/>
<path d="M174.145 672.946H50.8848L58.8336 641.075V641.071L87.7448 613.846L63.9518 620.558L80.7128 553.389L98.0346 537.073L83.7748 541.096L88.5147 522.101L104.533 507.014L91.3498 510.734L108.369 442.511L120.127 483.688L112.655 481.578L122.05 490.426V490.431L140.289 554.315L128.357 550.95L143.355 565.076L149.622 587.022L133.23 582.398L153.841 601.807L174.145 672.946Z" fill="#317F89"/>
<path d="M108.369 442.511V672.946H50.8848L58.8336 641.075V641.071L87.7448 613.846L63.9518 620.558L80.7128 553.389L98.0346 537.073L83.7748 541.096L88.5147 522.101L104.533 507.014L91.3498 510.734L108.369 442.511Z" fill="#2E747F"/>
<path d="M339.507 672.946H250.148L255.907 649.843V649.838L276.869 630.1L259.619 634.969L271.769 586.275L284.328 574.445L273.99 577.36L277.426 563.59L289.037 552.655L279.482 555.347L291.819 505.888L300.342 535.742L294.925 534.211L301.735 540.625V540.629L314.958 586.942L306.31 584.503L317.183 594.744L321.727 610.655L309.844 607.304L324.785 621.372L339.507 672.946Z" fill="#317F89"/>
<path d="M291.819 505.888V672.946H250.148L255.907 649.843V649.838L276.869 630.1L259.619 634.969L271.769 586.275L284.328 574.445L273.99 577.36L277.426 563.59L289.037 552.655L279.482 555.347L291.819 505.888Z" fill="#2E747F"/>
<path d="M276.678 672.946H173.989L180.611 646.394V646.389L204.698 623.709L184.875 629.303L198.837 573.35L213.27 559.758L201.391 563.109L205.339 547.283L218.682 534.714L207.702 537.812L221.882 480.978L231.673 515.283L225.447 513.525L233.275 520.895V520.9L248.47 574.12L238.532 571.316L251.025 583.084L256.245 601.367L242.591 597.513L259.761 613.682L276.678 672.946Z" fill="#3AACB7"/>
<path d="M221.882 480.978V672.946H173.989L180.611 646.394V646.389L204.698 623.709L184.875 629.303L198.837 573.35L213.27 559.758L201.391 563.109L205.339 547.283L218.682 534.714L207.702 537.812L221.882 480.978Z" fill="#2F9CA3"/>
<path d="M1178.2 669.649H1280.88L1274.26 643.096L1250.18 620.416L1270 626.006L1256.04 570.053L1241.6 556.461L1253.48 559.812L1249.53 543.985L1236.19 531.417L1247.17 534.515L1232.99 477.68L1223.2 511.986L1229.43 510.228L1221.6 517.598V517.602L1206.4 570.823L1216.34 568.019L1203.85 579.786L1198.63 598.069L1212.28 594.215L1195.11 610.384L1178.2 669.649Z" fill="#3AACB7"/>
<path d="M1232.99 477.68V669.648H1280.88L1274.26 643.096L1250.18 620.415L1270 626.005L1256.04 570.052L1241.6 556.46L1253.48 559.811L1249.53 543.985L1236.19 531.416L1247.17 534.514L1232.99 477.68Z" fill="#2F9CA3"/>
<path d="M629.79 661.223H567.277L571.309 645.059L585.969 631.248L573.904 634.657L582.404 600.592L591.19 592.314L583.958 594.357L586.361 584.722L594.483 577.071L587.798 578.958L596.428 544.359L602.392 565.241L598.605 564.173L603.367 568.659L612.615 601.06L606.567 599.351L614.173 606.516L617.351 617.647L609.037 615.302L619.491 625.147L629.79 661.223Z" fill="#317F89"/>
<path d="M596.428 544.359V661.223H567.277L571.309 645.059L585.969 631.248L573.904 634.657L582.404 600.592L591.19 592.314L583.958 594.357L586.361 584.722L594.483 577.071L587.798 578.958L596.428 544.359Z" fill="#2E747F"/>
<path d="M1063.52 659.394H1131.32L1126.95 641.858L1111.04 626.882L1124.13 630.576L1114.91 593.627L1105.38 584.65L1113.23 586.867L1110.62 576.417L1101.81 568.116L1109.06 570.163L1099.7 532.631L1093.23 555.285L1097.34 554.123L1092.17 558.992L1082.14 594.134L1088.7 592.283L1080.46 600.054L1077.01 612.128L1086.02 609.583L1074.69 620.26L1063.52 659.394Z" fill="#317F89"/>
<path d="M1099.7 532.631V659.394H1131.32L1126.95 641.858L1111.04 626.882L1124.13 630.576L1114.91 593.627L1105.38 584.65L1113.23 586.867L1110.62 576.417L1101.81 568.116L1109.06 570.163L1099.7 532.631Z" fill="#2E747F"/>
<path d="M1245.41 667.085H1340.65L1334.51 642.459V642.455L1312.16 621.421L1330.55 626.606L1317.6 574.712L1304.21 562.103L1315.23 565.21L1311.57 550.532L1299.19 538.876L1309.38 541.751L1296.23 489.038L1287.15 520.855L1292.92 519.226L1285.66 526.058V526.062L1271.57 575.424L1280.79 572.825L1269.2 583.738L1264.35 600.695L1277.02 597.121L1261.1 612.119L1245.41 667.085Z" fill="#317F89"/>
<path d="M1296.23 489.038V667.085H1340.65L1334.51 642.459V642.455L1312.16 621.421L1330.55 626.606L1317.6 574.712L1304.21 562.103L1315.23 565.21L1311.57 550.532L1299.19 538.876L1309.38 541.751L1296.23 489.038Z" fill="#2E747F"/>
<path d="M765.538 656.826H699.108L700.604 650.826L719.848 632.699L704.008 637.172L709.785 614.029L725.687 599.052L712.598 602.746L720.543 570.911L730.089 561.916L730.356 561.667L730.089 561.738L722.278 563.946L730.089 532.631L734.357 547.59L730.356 546.464L735.39 551.204L741.354 572.091L733.565 569.892L743.356 579.114L747.082 592.163L738.817 589.831L749.209 599.618L752.654 611.679L738.817 607.776L756.214 624.163L765.538 656.826Z" fill="#24BAC4"/>
<path d="M765.538 656.826H730.089V532.631L734.357 547.59L730.356 546.464L735.39 551.204L741.353 572.091L733.565 569.892L743.356 579.114L747.081 592.163L738.817 589.831L749.209 599.618L752.654 611.679L738.817 607.776L756.214 624.163L765.538 656.826Z" fill="#38C7D4"/>
<path d="M482.248 659.394H407.584L409.271 652.647L430.896 632.277L413.098 637.301L419.583 611.292L437.457 594.46L422.752 598.612L431.675 562.829L442.406 552.722L442.704 552.442L442.406 552.526L433.629 555.001L442.406 519.81L447.203 536.624L442.704 535.351L448.365 540.683L455.063 564.156L446.313 561.685L457.32 572.051L461.503 586.716L452.219 584.094L463.893 595.092V595.096L467.765 608.653L452.219 604.265L471.771 622.681L482.248 659.394Z" fill="#2F9CA3"/>
<path d="M482.247 659.394H442.406V519.81L447.203 536.624L442.704 535.351L448.365 540.683L455.063 564.156L446.313 561.685L457.32 572.051L461.503 586.716L452.219 584.094L463.893 595.092V595.096L467.765 608.653L452.219 604.265L471.771 622.681L482.247 659.394Z" fill="#3AACB7"/>
<path d="M544.258 659.394H483.703L485.069 653.92L502.609 637.399L488.171 641.476L493.436 620.38L507.932 606.73L496 610.099L503.241 581.076L511.947 572.878L512.187 572.651L511.947 572.718L504.826 574.73L511.947 546.188L515.836 559.82L512.187 558.792L516.775 563.114V563.118L522.21 582.153L515.111 580.151L524.039 588.553L527.43 600.45L519.9 598.323L529.371 607.242V607.246L532.508 618.239L519.9 614.683L535.757 629.615L544.258 659.394Z" fill="#24BAC4"/>
<path d="M544.258 659.394H511.946V546.188L515.836 559.82L512.187 558.792L516.775 563.114V563.118L522.209 582.153L515.111 580.151L524.039 588.553L527.43 600.45L519.9 598.323L529.37 607.242V607.246L532.508 618.239L519.9 614.683L535.757 629.615L544.258 659.394Z" fill="#38C7D4"/>
<path d="M440.447 665.986H373.034L374.551 659.897L394.081 641.503L378.009 646.038L383.866 622.556L400.004 607.358L386.724 611.109L394.784 578.802L404.473 569.674L404.74 569.421L404.473 569.496L396.546 571.735L404.473 539.962L408.803 555.139L404.74 553.995L409.849 558.806L415.902 580L407.998 577.77L417.936 587.125L421.715 600.37L413.33 598.002L423.873 607.932L427.367 620.171L413.33 616.21L430.985 632.837L440.447 665.986Z" fill="#24BAC4"/>
<path d="M440.447 665.986H404.473V539.962L408.803 555.139L404.74 553.995L409.849 558.806L415.902 580L407.998 577.77L417.936 587.125L421.715 600.37L413.33 598.002L423.873 607.932L427.367 620.171L413.33 616.21L430.985 632.837L440.447 665.986Z" fill="#38C7D4"/>
<path d="M1122.72 663.057H1199.94L1198.73 658.228V658.223L1180.24 640.808L1195.46 645.103L1185.53 605.297L1166.33 587.218L1182.13 591.673L1172.48 553.015L1165.32 543.705L1170.85 546.482L1163.93 518.71L1147.93 574.739L1157.85 571.806L1143.2 591.335L1129.3 640.016L1142.93 636.175L1125.79 652.313L1122.72 663.057Z" fill="#24BAC4"/>
<path d="M1122.72 663.057H1163.93V518.71L1147.93 574.739L1157.85 571.806L1143.2 591.335L1129.3 640.016L1142.93 636.175L1125.79 652.313L1122.72 663.057Z" fill="#38C7D4"/>
<path d="M971.321 654.997H1023.45L1019.57 639.477L1005.57 626.286L1017.1 629.539L1013.07 613.406L1005.57 606.338L1011.74 608.078L999.133 557.546L992.324 581.415L996.868 580.128L991.153 585.509V585.514L987.668 597.726L995.261 595.581L985.71 604.576L976.083 638.307L985.416 635.672L973.68 646.727L971.321 654.997Z" fill="#2F9CA3"/>
<path d="M971.321 654.997H999.133V557.546L992.324 581.415L996.868 580.128L991.153 585.509V585.514L987.668 597.726L995.261 595.581L985.71 604.576L976.083 638.307L985.416 635.672L973.68 646.727L971.321 654.997Z" fill="#3AACB7"/>
<path d="M846.49 654.997H898.616L894.748 639.477L880.738 626.286L892.265 629.539L888.242 613.406L880.738 606.338L886.911 608.078L874.307 557.546L867.493 581.415L872.037 580.128L866.322 585.509V585.514L862.838 597.726L870.435 595.581L860.884 604.576L851.253 638.307L860.586 635.672L848.854 646.727L846.49 654.997Z" fill="#2F9CA3"/>
<path d="M846.49 654.997H874.307V557.546L867.493 581.415L872.037 580.128L866.322 585.509V585.514L862.838 597.726L870.435 595.581L860.884 604.576L851.253 638.307L860.586 635.672L848.854 646.727L846.49 654.997Z" fill="#3AACB7"/>
<path d="M779.108 654.997H837.309L832.988 637.67L817.348 622.939L830.219 626.575L825.724 608.555L817.348 600.668L824.242 602.613L810.165 546.188L802.559 572.838L807.632 571.405L801.255 577.414L797.36 591.05L805.843 588.656L795.18 598.701L784.427 636.362L794.85 633.42L781.743 645.762L779.108 654.997Z" fill="#2F9CA3"/>
<path d="M779.108 654.997H810.165V546.188L802.559 572.838L807.632 571.405L801.255 577.414L797.36 591.05L805.843 588.656L795.18 598.701L784.427 636.362L794.85 633.42L781.743 645.762L779.108 654.997Z" fill="#3AACB7"/>
<path d="M1002.97 663.057H1053.73L1052.94 659.883V659.879L1040.78 648.432L1050.78 651.254L1044.25 625.088L1031.64 613.201L1042.02 616.134L1035.68 590.716L1030.97 584.601L1034.61 586.426L1030.06 568.169L1019.54 604.998L1026.06 603.071L1016.43 615.907V615.911L1007.3 647.911L1016.25 645.383L1004.99 655.993L1002.97 663.057Z" fill="#24BAC4"/>
<path d="M1002.97 663.057H1030.06V568.169L1019.54 604.998L1026.06 603.071L1016.43 615.907V615.911L1007.3 647.911L1016.25 645.383L1004.99 655.993L1002.97 663.057Z" fill="#38C7D4"/>
</g>
</svg>
