<svg width="1254" height="847" viewBox="0 0 1254 847" fill="none" xmlns="http://www.w3.org/2000/svg">
<path d="M1251.94 638.495C1249.48 607.722 1246.6 576.427 1245.78 545.132C1244.14 523.747 1242.9 502.362 1242.9 480.456C1242.9 448.118 1242.49 415.78 1243.72 383.442C1246.19 325.025 1245.37 266.086 1245.37 207.669C1245.37 176.374 1245.37 145.601 1245.78 114.306C1245.78 104.396 1247.01 95.0078 1247.83 85.0977C1247.83 80.4035 1248.25 75.7093 1248.66 71.0151C1249.07 64.2345 1250.3 57.454 1250.71 50.1518C1239.2 31.3749 1223.17 15.7275 1205.5 6.86064C1196.87 3.20957 1187.42 1.12325 1178.37 0.601667C1177.55 0.601667 1176.73 0.601667 1175.91 0.601667C1172.62 1.64483 1168.92 2.68799 1166.87 1.64483C1166.45 1.64483 1166.45 1.64483 1166.04 1.12325C1163.58 1.64483 1161.11 2.16641 1158.65 2.68799C1158.23 3.20957 1157.82 4.25273 1157.82 5.29589C1157 13.6412 1158.23 23.5512 1157.82 32.4181C1157.82 32.9397 1157.82 33.9828 1157.82 34.5044C1156.59 24.5944 1154.95 14.1628 1154.95 3.73115C1147.14 6.33905 1139.74 9.99012 1133.57 15.2059C1125.35 21.4649 1116.72 27.2023 1109.73 35.026C1109.32 35.5476 1108.91 36.0692 1108.5 36.5907C1106.45 39.7202 1102.34 44.4144 1104.39 49.1087C1106.45 53.8029 1106.04 62.6698 1106.45 68.4072C1106.86 71.0151 1107.27 73.623 1107.68 76.2309C1107.68 76.2309 1107.68 76.2309 1107.68 76.7524C1107.68 76.7524 1107.27 77.274 1106.86 77.274C1106.86 78.3172 1106.86 78.8388 1106.04 79.8819C1094.94 90.3135 1078.91 95.5294 1065.76 100.745C1049.73 107.004 1033.7 112.22 1017.26 117.436C1002.05 122.13 986.842 126.303 972.045 131.518C960.948 135.691 952.728 130.997 942.041 130.475C939.575 135.169 939.575 142.993 939.575 147.687C939.575 149.252 939.575 150.295 939.575 151.86C937.109 147.166 937.931 136.213 933.821 133.083C932.177 132.04 930.944 132.04 929.3 133.605C918.614 144.036 893.953 140.907 881.622 141.428C863.949 141.95 846.275 143.515 828.602 143.515C811.75 142.993 795.721 145.601 778.869 149.252C767.772 151.86 757.086 151.86 745.988 151.86C736.946 151.86 723.793 154.99 715.162 151.339C713.518 150.817 711.874 151.86 710.641 153.425C701.188 164.378 705.709 185.241 704.065 201.932C703.654 195.673 702.832 189.935 702.421 183.676C702.01 177.418 702.421 170.637 702.421 164.378C702.01 164.378 702.01 163.856 701.599 163.335C700.777 160.205 700.366 157.076 699.955 154.468C699.955 154.468 699.955 154.468 699.544 154.468C694.612 153.425 690.09 156.554 684.336 157.076C672.006 157.597 659.675 159.162 647.345 157.076C639.536 156.033 630.083 157.076 622.273 157.597C606.244 159.684 591.036 156.033 575.418 156.554C563.909 156.554 552.401 156.554 541.304 157.597C524.863 159.162 511.3 154.468 495.27 151.86C471.021 147.687 444.716 149.774 420.466 149.252C419.233 149.252 417.589 150.817 417.178 152.382C415.534 159.684 414.301 167.507 413.479 175.331C413.479 169.072 413.479 162.292 413.479 157.076C412.657 140.907 385.119 149.774 378.132 149.774C353.882 150.295 330.454 147.166 306.616 146.644C287.298 146.644 265.103 147.166 246.197 142.472C236.332 140.385 225.235 138.299 216.193 132.562C214.138 131.518 211.672 128.911 208.794 130.475C206.328 132.04 205.095 135.169 203.862 137.256C203.04 138.299 202.629 139.342 202.218 139.864C203.04 138.299 203.451 135.691 203.04 133.605C202.218 125.259 187.422 128.389 183.312 127.346C170.57 123.173 147.965 108.569 144.676 90.3135C145.088 81.4467 145.91 73.1014 146.321 64.7561C147.965 44.4144 142.21 39.1986 129.88 26.6807C123.304 19.3786 109.74 0.601667 100.287 1.64483C99.4651 1.64483 98.6431 2.68799 98.6431 3.73115C98.6431 13.6412 96.999 24.0728 95.766 34.5044C95.766 33.9828 95.766 32.9397 95.766 32.4181C95.355 24.0728 96.588 14.1628 95.766 5.29589C94.9439 0.0800863 89.6008 -0.441495 86.7237 1.64483C84.2576 3.20957 78.0924 0.601667 75.2153 0.0800862C68.6391 -0.441494 62.4739 1.64483 56.3088 3.73115C34.9361 11.0333 16.4405 28.767 2.87709 50.1518C-0.411013 55.8892 3.2881 66.3208 4.93215 72.5798C5.34317 86.1409 7.39823 100.224 7.80924 113.785C8.22025 145.08 8.22026 176.374 8.22026 207.148C8.22026 265.565 7.39823 324.503 9.86431 382.92C11.0973 415.258 10.6863 447.596 10.6863 479.934C10.6863 501.841 9.45329 523.226 7.80924 544.61C6.98722 575.905 4.11013 607.2 1.64405 637.973C0.822026 645.797 0.411013 653.099 0 660.401C0.411013 684.916 1.23304 709.951 11.5084 730.815C16.8515 742.289 24.2498 751.156 32.059 758.98C33.292 760.023 34.5251 761.066 36.1691 762.109C36.5801 762.631 36.9911 762.631 36.9911 763.153C48.0885 774.627 60.4189 778.279 72.3382 787.145C89.6008 799.663 90.8338 780.886 97.41 765.761C96.588 773.063 93.7109 781.93 93.7109 787.667C94.1219 794.969 106.863 797.577 110.562 799.663C136.867 811.66 166.46 821.57 194.82 824.699C224.002 827.829 252.773 838.26 282.366 837.217C298.395 836.695 303.738 836.174 308.26 824.699C309.082 827.829 310.726 830.437 314.014 830.958C327.166 833.044 340.319 836.174 353.471 837.739C369.089 839.825 383.886 841.911 399.504 841.911C416.767 841.911 433.618 841.911 450.881 843.476C460.334 843.998 474.309 846.606 483.351 840.347C488.283 837.217 487.05 826.786 487.461 821.048C488.283 811.66 487.05 800.706 487.461 791.318C487.872 779.843 491.571 767.847 493.626 756.894C494.037 754.807 494.037 752.721 494.448 750.635C493.626 775.149 491.16 799.663 494.859 824.699C498.147 848.692 523.219 842.955 536.783 842.955C565.143 843.476 592.68 846.084 621.04 846.084C632.549 846.084 644.057 842.955 655.976 843.476C669.129 844.519 682.692 843.998 695.845 842.433C696.667 842.433 697.078 841.911 697.489 840.868C697.9 838.782 698.311 836.696 698.722 834.609C699.133 833.044 700.777 832.523 701.599 833.566C703.243 835.652 704.476 837.739 705.709 840.347C706.531 839.825 706.942 838.782 707.353 838.26C708.586 836.174 711.052 836.174 715.573 837.217C723.382 838.782 734.48 840.868 741.467 837.217C747.221 834.088 753.386 836.174 759.552 835.652C776.403 834.609 792.844 832.523 809.695 832.001C826.136 832.001 842.576 832.001 859.017 830.958C859.428 830.958 859.839 830.958 860.25 831.48C863.127 831.48 866.415 831.48 869.292 831.48C889.843 830.958 910.804 834.088 931.355 833.566C953.139 832.523 974.1 824.699 996.295 823.656C1005.75 823.134 1020.96 826.264 1027.94 816.354C1033.7 808.53 1034.52 798.62 1035.34 788.71C1035.75 795.491 1035.75 802.271 1035.34 806.444C1034.93 810.617 1034.93 817.397 1039.86 817.397C1067.4 819.483 1095.76 808.53 1122.48 801.228C1148.78 794.448 1179.2 791.84 1203.45 776.192C1211.25 770.976 1218.65 763.153 1225.23 753.764L1225.64 754.286C1232.22 747.505 1237.56 739.682 1242.49 730.293C1252.77 709.43 1253.59 683.872 1254 659.88C1253.18 653.099 1252.36 645.797 1251.94 638.495Z" fill="#123D6E"/>
<path d="M1119.6 36.5834C1125.35 30.3245 1131.93 25.6302 1138.5 21.4576C1142.61 17.285 1147.14 14.1555 1151.66 12.5907C1152.07 12.5907 1152.07 12.5907 1152.48 12.0691C1152.48 12.5907 1152.48 13.1123 1152.48 13.6339C1153.3 18.8497 1153.3 24.0655 1154.12 29.2813C1154.94 36.0619 1154.53 44.4072 1156.59 50.6661C1156.59 51.1877 1157.41 51.7093 1157.82 52.2309C1159.05 48.5798 1159.47 44.9287 1159.88 41.2777C1160.7 28.2382 1162.34 8.93966 1169.33 10.5044C1174.67 12.0691 1182.48 7.8965 1188.24 8.93966C1196.87 10.5044 1204.68 13.6339 1212.49 17.8065C1221.53 22.5008 1229.75 30.8461 1236.33 39.1914C1243.31 48.0582 1245.37 53.274 1242.9 65.792C1242.08 69.443 1241.67 73.0941 1241.26 76.7452C1233.86 61.6193 1214.95 54.3172 1202.21 55.3604C1211.25 57.4467 1221.53 64.2272 1228.52 71.5294C1230.98 74.6589 1233.86 77.2668 1236.33 80.3962C1238.38 83.0041 1238.79 85.0905 1240.85 87.1768C1240.85 87.6984 1240.85 88.7415 1240.85 89.2631C1240.85 95.0005 1240.44 99.6947 1240.02 104.389C1236.33 97.6084 1228.1 96.0437 1222.35 94.4789C1221.94 94.4789 1221.53 95.5221 1221.94 95.5221C1225.23 97.6084 1228.52 98.6516 1231.39 101.781C1233.86 104.389 1235.91 108.04 1238.38 110.126C1238.79 110.126 1239.2 110.648 1239.61 110.126C1237.97 138.813 1237.56 167.5 1237.56 197.23V197.752C1231.8 193.579 1223.58 196.187 1217.42 196.187L1217.01 196.709C1220.71 197.752 1224.41 198.274 1228.1 199.838C1231.8 201.403 1234.27 205.054 1237.56 206.619C1237.56 216.007 1237.56 225.917 1237.56 235.306C1235.5 232.698 1233.04 231.655 1229.75 229.568C1222.76 225.917 1214.54 231.655 1207.97 231.655C1207.55 231.655 1207.14 232.176 1207.55 232.698C1213.31 234.784 1219.06 233.219 1224.82 235.306C1229.34 236.871 1233.04 242.086 1237.56 243.651C1237.56 287.985 1237.15 332.32 1236.33 376.654C1235.91 376.654 1235.5 376.133 1234.68 376.133C1233.04 376.133 1230.57 374.568 1228.52 373.525C1226.46 372.482 1223.99 371.438 1221.53 370.917C1221.12 370.917 1220.71 371.438 1221.12 371.96C1223.58 373.525 1226.05 375.089 1228.1 376.654C1229.75 378.219 1231.39 380.305 1233.04 381.348C1234.27 381.87 1235.09 383.435 1236.33 385C1236.33 388.129 1236.33 390.737 1236.33 393.866C1235.91 393.866 1235.91 393.345 1235.5 393.345C1233.45 392.302 1231.39 392.302 1229.34 391.78C1228.52 391.78 1227.69 393.345 1228.52 394.388C1230.16 395.431 1231.8 396.474 1233.45 398.039C1234.68 399.082 1235.09 401.169 1235.91 402.212C1235.5 416.816 1235.5 431.42 1235.5 446.024C1225.64 424.64 1197.69 425.161 1180.02 425.683C1179.61 425.683 1179.19 426.726 1179.61 426.726C1190.7 427.248 1201.39 428.291 1212.08 432.463C1222.76 436.636 1229.34 447.589 1235.09 459.064C1235.09 460.629 1235.09 461.672 1235.09 463.237C1235.09 487.751 1236.33 511.744 1237.56 535.736C1233.86 532.607 1228.52 530.521 1224.82 528.434C1224.41 527.913 1223.17 529.477 1223.99 529.999C1226.46 532.607 1229.34 534.693 1231.8 536.78C1234.27 538.866 1236.33 541.995 1238.38 545.125C1238.38 547.733 1238.79 550.341 1238.79 552.949C1236.33 550.341 1233.86 548.254 1232.22 547.211C1223.99 540.431 1215.36 545.125 1206.73 542.517C1206.32 542.517 1205.91 543.038 1206.32 543.56C1208.38 544.603 1210.84 544.603 1212.9 545.125C1218.65 545.646 1223.99 547.733 1228.93 552.427C1232.22 555.556 1235.5 562.337 1239.61 564.423C1241.67 593.632 1246.19 644.225 1245.78 642.139C1237.15 620.232 1221.12 606.671 1203.03 599.891C1200.16 598.848 1197.28 598.326 1194.4 597.805C1193.99 597.805 1193.58 597.805 1193.17 597.805C1188.24 597.283 1183.3 597.283 1178.37 597.805C1176.73 597.805 1175.08 597.804 1173.44 597.283C1171.8 597.283 1170.56 597.805 1168.92 597.805C1164.4 598.848 1159.88 599.369 1155.36 600.934C1151.66 601.977 1148.37 604.063 1144.67 604.585C1144.26 605.107 1143.44 606.15 1143.03 606.671C1142.2 607.715 1140.97 607.193 1140.56 605.628C1138.09 595.718 1136.04 585.808 1133.57 576.42C1133.57 576.42 1133.57 576.42 1133.16 576.42C1132.75 580.071 1132.75 584.243 1132.34 587.894C1131.93 593.11 1131.11 598.326 1130.28 603.542C1129.87 606.671 1129.46 609.801 1129.05 612.409C1129.05 612.93 1129.05 612.93 1129.05 613.452C1129.05 613.974 1129.05 613.973 1128.64 614.495C1126.58 620.754 1123.3 625.97 1118.78 633.272C1117.13 635.88 1115.49 638.488 1113.43 642.139C1113.84 635.88 1113.84 629.621 1114.25 623.362C1115.08 612.409 1115.49 601.977 1115.9 591.024C1124.53 564.945 1144.67 537.823 1165.63 533.65C1166.04 533.65 1166.04 532.607 1165.63 532.607C1145.9 532.607 1127 551.905 1117.13 575.376C1118.36 560.251 1118.78 545.646 1119.6 530.521C1120.42 529.477 1121.24 528.434 1121.65 527.913C1123.3 525.305 1124.94 522.697 1127.41 520.61C1131.52 516.438 1135.63 512.787 1140.15 510.179C1140.97 509.657 1140.97 508.093 1140.15 508.614C1133.16 511.744 1126.17 516.438 1120.42 522.697C1120.42 519.046 1120.83 515.395 1120.83 511.744C1140.15 491.924 1159.05 476.276 1184.54 474.19C1184.95 474.19 1185.36 473.147 1184.54 473.147C1171.8 472.103 1159.05 475.233 1147.14 481.492C1138.5 485.665 1127.41 494.531 1120.83 504.441C1120.83 503.92 1120.83 502.877 1120.83 502.355C1122.47 478.884 1123.3 455.413 1123.71 432.463C1125.35 430.899 1126.58 429.334 1128.23 427.769C1131.93 424.118 1135.63 421.51 1138.5 416.816C1138.92 416.294 1138.5 415.251 1138.09 415.773C1134.81 418.381 1131.11 420.467 1127.82 423.075C1126.58 424.118 1125.35 425.161 1124.12 426.204C1124.53 403.255 1124.94 379.784 1125.35 356.834C1126.17 355.791 1127 354.226 1127.82 352.661C1130.28 349.01 1132.75 346.402 1135.22 342.751C1141.38 332.841 1156.18 329.712 1164.81 324.496C1165.22 324.496 1165.22 323.453 1164.81 323.453C1154.53 328.147 1143.44 329.19 1134.39 336.492C1131.52 338.579 1128.64 342.23 1125.76 345.881V344.838C1126.58 306.762 1126.58 268.165 1125.76 229.568C1129.05 224.353 1132.34 218.615 1136.45 214.443C1140.97 209.748 1146.31 205.576 1150.42 200.881C1150.83 200.36 1150.42 199.317 1150.01 199.838C1143.85 205.576 1136.45 208.705 1130.28 215.486C1128.64 217.05 1127 218.615 1125.35 220.702C1124.94 212.356 1124.94 203.489 1124.53 195.144C1124.12 185.756 1123.3 176.367 1122.47 167.5C1125.35 163.849 1127 159.677 1129.05 155.504C1132.34 148.202 1137.27 142.986 1142.61 137.77C1150.83 129.425 1160.7 125.252 1169.33 117.95C1170.15 117.428 1169.74 115.342 1168.92 115.864C1158.64 122.644 1147.14 124.209 1137.27 132.033C1129.05 138.813 1124.94 147.159 1121.65 157.59C1120.83 148.202 1119.6 138.292 1118.78 128.903C1119.19 128.382 1119.19 127.339 1119.19 126.817C1119.19 127.86 1120.01 126.295 1120.42 125.774C1121.24 124.731 1122.06 123.166 1122.89 122.123C1124.53 119.515 1125.76 116.907 1127.41 114.821C1129.05 112.734 1130.7 110.648 1131.93 108.04C1132.34 107.518 1131.52 106.997 1131.52 107.518C1128.23 112.213 1124.12 115.342 1120.83 119.515C1120.01 120.558 1119.19 121.601 1118.36 122.123C1118.36 120.036 1117.95 118.472 1117.95 116.385C1117.95 114.299 1117.54 111.691 1117.54 109.083C1118.36 106.997 1119.19 104.911 1120.01 103.867C1124.53 93.9573 1132.75 87.6984 1140.15 81.961C1140.56 81.961 1140.15 81.4394 1140.15 81.4394C1133.57 84.5689 1127.82 87.6984 1122.06 92.3926C1120.01 93.9573 1118.36 96.0437 1117.13 98.13C1116.72 92.3926 1116.31 86.1336 1115.49 80.3962C1115.9 79.3531 1115.9 78.8315 1115.9 77.7883C1115.9 76.7452 1115.49 76.2236 1115.49 75.1804V74.6589C1115.49 74.6589 1115.49 74.6589 1115.49 74.1373C1114.67 68.3999 1113.84 62.1409 1113.02 56.4035C1110.56 47.0151 1113.02 43.8856 1119.6 36.5834Z" fill="#F0FCFF"/>
<path d="M1201.4 620.756C1202.63 621.278 1203.86 621.799 1204.68 622.842C1205.51 623.886 1206.33 624.407 1207.56 624.407C1207.56 625.45 1207.15 626.493 1207.15 627.537C1206.74 627.537 1206.33 627.537 1206.33 627.015C1204.68 626.494 1203.04 625.972 1200.99 625.972C1200.57 625.972 1200.57 626.494 1200.57 626.494C1202.22 627.537 1204.27 628.058 1205.92 629.623C1206.33 629.623 1206.74 630.145 1206.74 630.666C1206.74 633.796 1206.74 636.404 1206.74 639.533C1206.74 642.663 1207.15 645.792 1207.56 648.921C1207.56 648.921 1207.15 648.921 1207.15 648.4C1205.1 647.357 1203.04 646.314 1200.99 645.792C1200.57 645.792 1199.75 646.835 1200.57 647.357C1202.63 648.4 1204.68 649.965 1206.33 651.529C1207.15 652.051 1207.56 653.094 1208.38 653.616C1208.79 656.224 1209.21 658.31 1209.21 660.918C1199.75 652.051 1183.72 651.008 1172.63 656.224C1170.98 657.267 1169.34 657.788 1168.52 658.832C1168.52 657.788 1168.52 656.745 1168.52 656.224C1170.16 654.137 1171.8 652.051 1174.27 650.486C1180.43 646.314 1189.07 646.835 1195.64 648.4C1196.05 648.4 1196.46 647.357 1196.05 647.357C1189.07 643.706 1182.9 642.141 1175.5 645.27C1172.63 646.835 1170.57 649.443 1168.93 652.573C1169.34 648.4 1169.75 644.227 1170.16 640.055C1171.8 639.011 1173.04 637.968 1174.68 636.925C1179.61 633.796 1184.13 634.317 1189.48 634.317C1189.89 634.317 1190.3 633.796 1189.89 633.274C1183.31 631.188 1176.32 630.666 1170.57 633.796C1170.57 632.231 1170.57 630.666 1170.98 629.623C1170.98 628.58 1170.98 627.537 1171.39 626.494C1172.21 625.972 1172.63 625.45 1173.45 624.929C1174.68 624.407 1175.91 623.886 1177.15 623.886C1178.79 623.364 1180.43 624.407 1182.08 623.886C1182.08 623.886 1182.49 623.364 1182.08 623.364C1180.85 623.364 1179.61 622.321 1178.38 622.321C1176.74 622.321 1175.5 622.321 1173.86 622.321C1173.45 622.321 1172.63 622.321 1172.21 622.842C1172.63 620.235 1173.45 617.105 1173.86 614.497C1175.5 613.976 1177.15 613.454 1179.2 613.454C1183.72 612.932 1188.24 613.454 1193.18 613.454C1193.59 613.454 1193.59 612.932 1193.18 612.932C1188.66 611.889 1180.85 608.76 1174.68 609.281C1174.68 607.195 1174.68 605.63 1174.68 603.544C1177.97 603.544 1181.26 603.544 1184.13 604.587C1189.07 605.63 1194 605.109 1199.34 605.109C1203.45 605.109 1207.15 607.195 1210.44 606.673C1209.62 611.368 1209.21 615.54 1208.79 620.235C1207.97 619.713 1207.56 619.713 1206.74 619.191C1205.51 618.67 1204.27 618.67 1203.04 618.148C1201.4 618.67 1200.57 620.235 1201.4 620.756Z" fill="#115B52"/>
<path d="M1144.67 665.089C1141.8 673.434 1140.15 682.301 1137.69 690.646C1136.86 693.776 1135.63 697.427 1135.63 701.078C1129.06 697.427 1122.48 692.733 1119.19 683.866C1115.9 675.521 1114.67 667.697 1113.85 659.873C1116.31 646.834 1131.93 634.316 1135.22 622.841C1137.28 616.06 1136.45 608.758 1136.04 601.456C1136.86 605.629 1138.1 609.801 1139.74 612.931C1140.56 614.496 1141.8 615.539 1143.44 615.017C1150.02 611.888 1154.54 606.15 1161.94 605.107C1161.53 608.758 1162.35 612.409 1162.76 616.06C1162.76 619.19 1163.17 623.362 1163.99 627.014C1163.17 634.316 1161.53 642.139 1162.35 649.441C1163.58 663.003 1161.11 671.348 1168.1 682.823L1168.51 683.344C1172.62 689.603 1178.79 694.819 1184.13 696.384C1185.36 696.905 1186.6 695.341 1186.19 693.776C1184.95 683.866 1189.47 670.826 1188.24 661.438C1191.94 660.916 1194.82 660.916 1196.05 661.438C1213.31 666.132 1212.49 688.038 1202.22 700.556C1189.47 715.682 1167.69 715.161 1151.25 708.38C1151.25 703.686 1151.66 698.47 1151.66 694.297C1151.66 686.474 1151.66 678.128 1152.07 669.783C1151.66 666.132 1146.32 659.873 1144.67 665.089Z" fill="#3AACB7"/>
<path d="M8.21595 627.537C11.093 622.843 13.1481 617.105 16.4362 612.411C20.1353 607.195 24.6565 602.501 29.1776 598.328C29.5886 597.807 29.5886 597.285 28.7666 597.285C22.1904 600.415 13.9701 606.152 9.03797 613.976C9.03797 611.89 9.44899 610.325 9.44899 608.238C24.2455 582.159 48.0842 568.598 71.1009 560.253C71.5119 560.253 71.9229 558.688 71.1009 558.688C57.9485 561.296 42.741 562.861 32.0547 573.814C24.2454 581.638 14.7922 591.026 9.86 602.501C11.5041 584.767 13.1481 564.947 13.5591 553.472C14.3811 542.519 14.7922 532.088 15.6142 521.134C21.3684 515.919 26.7115 509.66 32.8767 504.965C42.33 497.142 53.0163 494.012 62.8807 487.753C63.2917 487.753 63.2917 486.71 62.8807 487.232C48.9062 493.491 27.5336 497.142 16.4362 512.268C16.8472 504.965 17.2582 497.663 17.2582 490.361C20.9573 489.318 24.6565 483.581 27.1225 480.973C34.9318 473.149 43.152 466.368 52.1943 461.153C52.6053 460.631 53.0163 459.066 52.1943 459.588C44.3851 462.717 36.9868 467.412 29.9996 472.628C26.3005 475.235 21.3684 478.886 17.6692 483.059C17.6692 476.279 18.0803 470.02 18.0803 463.239C18.0803 435.074 17.6692 407.43 17.2582 379.265C16.8472 347.97 16.4362 316.675 16.0252 284.858C16.4362 284.337 16.8472 283.294 17.2582 282.251C20.1353 276.513 24.6565 273.384 29.1776 270.254C36.1648 266.082 43.152 261.387 50.5503 257.736C50.9613 257.736 50.9613 256.693 50.5503 256.693C41.508 259.823 32.8767 264.517 24.2454 268.689C20.9573 270.254 18.0803 272.341 15.6142 275.47C15.6142 255.128 15.6142 234.265 15.6142 213.923C26.7115 202.97 39.0419 193.582 52.6053 187.844C53.0163 187.844 53.0163 186.801 52.6053 186.801C44.3851 188.888 35.3428 192.539 27.9446 196.711C23.8344 199.319 19.3133 202.449 15.6142 206.1C15.6142 202.97 15.6142 200.362 15.6142 197.233C15.6142 165.416 15.6142 135.165 13.5591 104.392L13.9701 103.87C17.6692 98.1325 24.2454 95.5246 28.7666 90.8304C28.7666 90.8304 28.7666 90.3088 27.9446 90.3088C24.2454 93.4383 20.1353 94.4815 16.0252 97.0894C14.7922 97.611 13.9701 98.6541 12.7371 99.1757C12.7371 97.0894 12.3261 95.0031 12.3261 92.9167C16.0252 90.8304 18.9023 86.6578 22.6014 84.0499C28.3556 79.3556 34.5208 73.6183 41.097 71.0104C41.508 71.0104 41.919 69.4456 41.097 69.9672C35.3428 70.4888 29.5886 73.6183 24.2454 76.7477C20.5463 78.8341 15.2032 81.442 11.9151 85.093C11.5041 77.2693 9.44899 69.4456 9.44899 61.1003C9.03797 51.7119 11.9151 45.9745 16.8472 39.7155C23.4234 31.3702 31.6437 22.5033 40.686 18.3307C48.9062 13.6365 56.7155 10.507 64.9357 8.94225C71.1009 7.89909 78.4991 12.0717 83.8423 10.507C92.8846 8.42067 92.8846 42.845 93.7066 51.1903C94.1176 53.7982 98.2278 36.0644 99.0498 29.2839C99.8718 24.0681 99.8718 18.8523 100.694 13.6365C101.105 10.507 99.8718 4.24802 102.338 6.33435C109.325 13.1149 115.901 19.3739 122.889 26.676C130.698 35.5429 140.973 42.3234 140.973 56.9277C138.918 55.3629 137.274 54.3198 135.219 52.755C131.931 49.6255 127.821 48.0608 123.711 46.4961C123.3 46.4961 122.889 47.0176 123.3 47.0176C126.999 50.1471 130.698 53.2766 133.575 57.4493C135.219 59.5356 136.863 61.1003 137.685 64.2298C138.096 65.7945 138.918 66.3161 140.151 66.3161C138.918 79.3556 136.041 105.435 135.63 116.909C135.63 118.996 135.219 121.604 135.219 124.733C132.342 122.125 128.643 121.082 125.355 119.517C124.944 119.517 123.711 120.561 124.533 121.082C126.588 123.168 128.643 125.255 130.698 127.863C131.52 128.384 132.342 130.471 132.753 131.514C133.164 132.557 133.986 133.078 134.808 134.122C134.808 135.686 134.808 137.251 134.397 138.816C133.575 137.773 131.931 137.251 131.52 136.73C129.054 135.686 127.821 133.078 125.355 131.514C117.545 126.819 108.914 124.733 100.283 123.168C100.283 123.168 99.8718 123.69 100.283 123.69C106.448 125.776 112.202 128.906 117.956 132.035C121.655 134.122 124.122 137.251 126.588 140.381C128.232 142.988 132.342 144.553 133.164 147.683C133.164 148.204 133.575 148.726 133.986 149.247C132.753 174.283 131.109 209.751 129.876 243.654C123.711 232.7 114.668 225.398 103.982 220.704C89.1855 213.923 76.0331 218.618 61.2366 221.747C60.8256 221.747 60.8256 222.269 61.2366 222.269C75.6221 220.704 87.9524 218.618 101.516 225.92C114.257 232.7 120.422 244.175 129.465 255.65C129.465 257.215 129.465 258.779 129.465 260.344C128.643 259.301 127.821 258.258 126.999 257.215C123.3 253.042 119.189 249.913 114.668 246.783C114.257 246.783 113.846 247.305 114.257 247.826C117.956 250.956 121.244 254.607 124.533 258.779C126.588 261.387 127.821 264.517 129.054 268.168C128.232 298.941 127.41 327.106 127.821 344.319C127.821 354.75 128.232 365.182 128.232 375.613C113.024 337.017 66.5798 357.358 41.097 361.531C41.097 361.531 40.686 362.574 41.097 362.052C72.334 358.923 103.982 346.405 128.232 381.351C128.232 381.351 128.232 381.351 128.643 381.351C128.643 385.002 128.643 388.653 129.054 392.304C126.177 389.175 122.889 386.567 119.6 384.48C113.846 380.829 108.092 376.657 101.105 376.657C100.694 376.657 100.694 377.178 101.105 377.178C107.681 378.221 113.024 382.916 118.367 387.61C122.067 391.261 124.944 396.477 128.643 400.128C128.643 404.822 128.643 408.995 128.643 413.689C125.355 408.473 120.422 404.822 116.312 402.214C105.626 395.434 97.4057 394.912 85.4864 395.955C85.0753 395.955 85.0753 396.998 85.4864 396.998C96.9947 397.52 106.037 400.649 115.901 408.473C121.244 412.646 124.122 420.469 129.465 425.164C129.876 450.721 131.109 476.279 132.342 502.358C132.342 502.879 132.342 502.879 132.342 503.401C131.931 502.358 131.52 501.314 130.698 500.793C124.944 492.969 117.545 488.275 109.325 486.189C108.914 486.189 108.092 487.753 108.503 487.753C115.901 490.361 122.066 495.055 127.41 501.836C130.287 505.487 131.931 509.138 133.164 513.311C134.397 535.739 134.808 558.167 136.452 580.073C137.685 594.677 138.096 609.282 138.918 623.364C138.918 629.623 139.329 635.882 139.329 642.141C137.685 638.49 135.63 635.361 133.986 633.274C129.465 625.972 126.177 621.278 124.122 614.497C124.122 614.497 123.711 613.976 123.711 613.454C123.711 612.933 123.711 612.411 123.711 612.411C123.3 609.803 122.889 607.195 122.478 603.544C121.655 598.328 120.833 593.113 120.422 587.897C120.011 584.246 120.011 580.073 119.6 576.422C119.6 576.422 119.6 576.422 119.189 576.422C116.723 586.332 114.668 595.721 112.202 605.631C111.791 607.195 110.558 607.717 109.736 606.674C109.325 606.152 108.503 605.109 108.092 604.587C104.393 604.066 101.105 601.979 97.4057 600.936C92.8846 599.372 88.3634 598.85 83.8423 597.807C82.1983 597.807 80.9652 597.285 79.3212 597.285C77.6771 597.285 76.0331 597.807 74.389 597.807C69.4569 596.764 64.5247 596.764 59.5926 597.807C59.1815 597.807 58.7705 597.807 58.3595 597.807C55.4824 598.328 52.6053 598.85 49.7282 599.893C31.6437 606.674 15.6142 620.235 6.98291 642.141C7.39392 642.141 7.39392 636.404 8.21595 627.537Z" fill="#F0FCFF"/>
<path d="M102.751 694.297C102.751 698.992 103.162 703.686 103.162 708.38C86.721 714.639 64.9373 715.682 52.1959 700.556C41.9206 688.038 41.0986 666.132 58.3611 661.438C59.5942 660.916 62.4713 660.916 66.1704 661.438C64.9373 671.348 69.4585 683.866 68.2254 693.776C68.2254 695.341 69.0475 696.905 70.2805 696.384C75.2127 694.819 81.3778 689.603 85.899 683.344L86.31 682.823C91.6532 673.956 91.6532 666.654 91.6532 657.787C91.6532 657.265 91.6532 656.744 91.6532 656.222C91.6532 654.657 91.6532 653.093 92.0642 651.006C89.5981 635.88 87.132 621.276 87.543 606.15C87.543 604.064 90.0091 603.021 90.8311 605.107C91.2422 605.107 91.2422 605.107 91.6532 605.107C99.4624 605.107 103.984 611.888 110.971 615.017C112.615 615.539 113.848 614.496 114.67 612.931C116.314 609.801 117.547 605.629 118.369 601.456C117.958 608.758 117.136 616.06 119.191 622.841C122.479 634.316 138.098 646.834 140.564 659.873C139.742 668.218 138.098 676.042 135.221 683.866C131.521 692.733 125.356 697.427 118.78 701.078C118.369 697.427 117.547 694.297 116.725 690.646C115.903 688.56 115.492 686.474 115.081 684.387C110.971 679.172 106.45 673.434 103.573 667.175C103.162 668.218 102.751 669.262 102.751 670.305C102.751 678.128 102.751 685.952 102.751 694.297Z" fill="#3AACB7"/>
<path d="M64.1108 643.707C57.9456 643.707 50.5474 644.751 45.6152 651.009C46.0263 648.923 46.0263 646.315 46.4373 644.229C49.7254 641.1 53.0135 637.448 57.5346 636.405C63.6998 634.841 70.276 632.233 76.4412 636.927L76.8522 636.405C68.632 627.538 55.8906 629.103 47.2593 636.927C47.2593 631.711 46.8483 627.017 46.4373 621.801C48.9033 620.758 50.5474 619.193 53.4245 618.15C57.5346 616.585 61.2337 616.064 65.3439 616.064C65.7549 616.064 65.7549 615.542 65.3439 615.542C59.5897 613.977 51.3694 612.934 46.0263 617.628C46.0263 615.542 45.6152 613.977 45.2042 611.891C45.2042 611.369 44.7932 610.326 44.7932 609.283C44.7932 608.762 44.7932 608.24 44.3822 607.718C48.0813 607.718 51.3694 606.154 55.4795 606.154C60.4117 606.154 65.3439 606.675 70.687 605.632C73.9751 605.11 77.2632 604.589 80.1403 604.589C79.7293 607.197 80.1403 609.805 80.1403 612.413C77.2632 610.326 73.9751 609.805 70.687 609.283C70.276 609.283 69.865 609.805 70.276 610.326C73.5641 610.848 76.4412 611.891 79.3183 614.499C79.7293 615.02 80.1403 615.542 80.5513 616.064C81.3734 620.236 82.1954 624.931 82.6064 629.103C79.7293 626.495 76.4412 625.974 73.1531 623.887C72.7421 623.887 72.3311 624.409 72.7421 624.93C73.5641 625.974 74.7972 626.495 76.0302 627.538C77.6742 628.582 78.9073 630.668 80.5513 632.233C81.7844 633.276 82.6064 634.841 83.4284 636.405C83.8394 640.578 83.8394 644.751 84.2504 648.923C80.9623 646.837 77.2632 646.315 73.9751 646.315C73.5641 646.315 73.1531 647.358 73.5641 647.358C77.6742 648.402 81.7844 652.053 84.6615 656.747C84.6615 657.79 84.6615 658.833 84.6615 660.398C83.4284 659.355 82.1954 658.312 80.5513 657.79C69.454 652.574 53.4245 653.617 43.9712 662.484C43.9712 661.441 44.3822 660.398 44.3822 659.355C45.6152 657.269 47.2593 655.182 49.3144 653.617C53.8355 650.488 58.3566 648.402 63.2888 646.837C64.1108 645.272 64.9328 643.707 64.1108 643.707Z" fill="#115B52"/>
<path d="M1160.29 763.665C1174.26 762.622 1187.82 756.363 1200.98 750.626C1211.66 745.931 1217.83 736.543 1226.05 727.676C1233.45 719.852 1241.26 707.856 1245.78 695.338C1243.31 709.942 1239.2 723.503 1232.62 733.935C1231.39 735.5 1230.16 737.064 1228.93 738.629C1226.87 741.237 1224.82 743.323 1222.76 745.931C1205.91 768.359 1181.25 780.877 1157.41 786.615C1137.27 791.309 1117.95 796.525 1098.22 803.305C1080.96 809.043 1062.05 812.694 1043.97 811.129C1043.15 811.129 1041.91 810.086 1042.33 809.043C1042.33 807.478 1042.33 805.913 1042.33 804.348C1042.33 804.348 1042.33 804.348 1042.33 803.827C1041.91 801.74 1041.09 799.133 1041.09 796.525C1039.86 790.266 1039.04 784.007 1037.39 778.269C1036.57 774.618 1036.16 769.402 1035.34 764.187C1034.11 769.402 1032.87 774.618 1031.64 779.834C1030.82 783.485 1030 787.136 1029.58 790.787C1028.76 798.611 1027.53 805.913 1024.24 808.521C1024.24 809.043 1023.83 809.564 1023.01 810.086C1010.68 813.215 998.347 811.129 986.017 812.694C972.453 814.78 958.89 817.909 945.326 821.039C934.64 823.647 926.009 825.212 915.734 822.604C904.636 819.996 893.539 820.517 882.852 818.953C877.509 819.474 871.755 819.996 866.412 820.517C834.353 823.125 801.472 821.039 769.824 825.733C757.083 827.82 743.108 827.82 730.367 830.427C723.791 831.992 717.214 831.471 710.638 831.471C709.405 831.992 707.761 832.514 706.528 833.035C705.295 833.557 704.473 831.992 704.473 830.949C703.651 823.647 701.596 817.909 700.363 810.607C699.952 809.043 699.952 807.478 699.541 806.435C698.719 816.866 697.897 827.298 696.253 837.208C695.842 838.773 695.02 839.294 693.787 838.773C674.058 836.686 654.329 835.122 634.601 835.122C610.351 835.122 586.512 837.208 562.263 833.035C558.152 832.514 552.809 832.514 547.466 832.514C543.356 834.078 539.657 835.122 535.136 834.078C530.203 833.035 525.682 832.514 521.161 834.078C519.106 833.557 517.462 834.6 515.407 834.6C508.42 834.6 505.132 827.82 503.488 819.474C500.2 804.348 498.144 788.179 497.733 772.532C497.733 762.622 498.555 752.712 497.733 742.802C497.322 736.021 496.5 729.241 495.267 722.46C493.623 729.762 491.568 737.586 490.335 744.888C487.458 761.057 484.17 777.226 481.293 793.395C480.471 800.697 480.882 808 480.882 815.302C481.293 828.863 482.937 833.035 471.018 833.557C465.263 833.557 459.509 833.035 453.755 832.514C428.272 830.427 402.79 830.427 377.307 830.427C367.442 830.427 356.345 826.255 346.481 824.69C337.849 823.125 314.011 824.168 313.6 807.478C313.6 803.305 308.668 806.435 308.257 809.043C305.379 821.039 302.913 827.82 290.994 827.298C280.719 827.298 271.265 825.733 261.401 823.647C238.795 818.953 215.779 814.258 193.173 811.651C169.745 809.043 144.262 799.654 122.068 791.309C118.369 789.744 114.258 788.179 110.559 786.093C107.682 786.093 104.805 785.572 102.339 785.572C101.106 785.572 100.695 784.528 100.695 783.485C100.284 773.054 100.695 762.622 101.106 752.19C100.284 752.19 99.462 753.233 99.051 753.755C95.7629 758.971 94.1189 764.708 91.2418 770.446C87.9537 776.705 88.7757 788.179 78.5004 778.269C73.5682 773.575 74.3902 774.097 68.6361 771.489C57.9497 766.795 44.3863 758.449 33.289 748.018C29.1788 743.323 25.0687 738.629 21.3696 733.413C11.5053 718.288 6.98414 695.338 6.16211 672.91C6.16211 671.867 6.57312 670.824 6.57312 670.302C6.57312 663 7.80616 655.176 10.6832 648.396C-3.29119 695.338 40.2762 754.798 75.6233 760.014C76.0343 760.014 76.8563 758.971 76.0343 758.449C43.1533 750.104 5.7511 688.557 11.9163 645.788C11.9163 645.266 11.9163 645.266 11.5053 645.266C11.9163 644.745 11.9163 644.223 12.3273 643.18C13.9714 640.05 16.0264 636.399 17.6705 633.27C16.4374 637.443 15.2044 641.615 15.6154 646.309C16.0264 654.133 17.2595 661.435 21.7806 667.694C22.6026 668.737 23.8357 666.651 23.4246 665.608C21.7806 659.349 20.1365 653.612 19.3145 647.353C18.4925 641.094 19.7255 635.356 20.5476 629.619C25.8907 621.274 32.0559 613.45 39.4541 608.756C39.8652 610.842 40.2762 613.971 40.2762 616.058C40.2762 618.144 40.6872 620.23 41.0982 622.317C40.6872 630.662 40.6872 638.486 39.0431 646.309C37.3991 656.741 36.166 667.694 36.9881 678.647C36.9881 681.777 37.3991 684.906 38.2211 688.557C38.6321 689.601 39.0431 690.122 39.0431 691.165C39.4541 692.209 39.4542 692.73 39.8652 693.773C39.8652 693.773 39.8652 694.295 40.2762 694.295C50.9625 721.417 81.3775 724.547 102.75 715.68L107.682 713.072C107.682 713.593 105.627 688.036 106.038 679.169C106.038 677.083 114.258 698.467 117.547 707.856C117.958 708.378 126.589 701.075 127 700.554C131.521 696.381 136.042 692.73 139.741 686.993C144.262 680.212 145.084 670.824 145.906 661.957C147.14 641.094 146.729 619.709 145.906 598.846C145.906 593.108 145.495 587.371 145.495 581.112C144.262 558.162 143.029 534.691 142.207 511.742C138.919 460.105 136.864 407.425 136.864 354.746C136.864 305.196 136.453 256.167 136.453 206.617C136.453 185.754 138.919 165.412 140.152 145.07C140.563 142.462 140.563 139.854 140.974 137.247C141.385 127.337 143.851 103.865 145.084 105.43C152.072 113.254 155.36 125.25 163.991 130.466C173.444 135.682 181.254 134.117 191.118 133.074C200.571 132.552 201.393 142.462 200.571 151.851C203.448 150.286 205.092 146.635 206.736 142.984C210.847 134.117 230.575 146.635 237.151 149.243C257.702 156.545 283.185 154.98 304.146 154.98C331.684 154.98 360.044 154.98 387.582 157.067C389.226 157.067 390.459 157.588 391.692 157.588C394.158 157.588 397.035 156.545 400.323 154.459C401.145 153.416 402.789 152.894 403.612 153.937C407.311 156.023 406.9 159.675 407.311 164.369C408.133 176.365 411.832 188.361 414.709 200.358C415.12 199.836 415.12 199.315 415.12 198.793C415.12 191.491 414.709 154.459 424.984 157.067C441.425 160.718 458.276 156.545 475.128 158.631C490.335 160.196 505.132 164.89 520.339 167.498C538.835 170.628 559.796 166.455 578.292 166.977C605.008 167.498 633.779 171.149 660.495 165.934C662.961 165.412 696.664 164.369 696.664 162.804C695.842 181.581 698.308 199.315 700.363 217.57C700.774 219.656 702.007 219.656 702.829 219.135C707.761 205.574 708.172 189.926 711.871 175.322C712.693 169.063 713.104 162.804 713.104 162.804C717.214 164.89 725.435 163.326 729.545 163.326C766.536 163.326 802.294 154.98 839.285 155.502C867.234 155.502 895.183 151.851 922.721 147.157C924.365 145.592 926.009 144.027 927.653 141.941C928.475 140.898 930.53 141.419 930.53 142.984C932.174 151.851 931.763 160.718 935.462 169.063C937.106 172.714 938.75 176.365 940.394 180.016C940.805 180.016 941.216 179.495 941.627 179.495C944.504 170.106 945.737 160.196 947.381 150.808C947.381 150.286 947.793 149.764 947.793 149.764C947.793 146.113 947.381 142.984 947.381 139.854C947.792 150.808 985.195 134.639 990.949 133.595C1003.69 130.988 1016.84 127.337 1029.58 123.164C1041.09 119.513 1052.6 118.991 1064.11 115.34C1072.33 112.732 1080.96 107.516 1088.36 102.301C1094.52 97.6064 1101.92 94.4769 1108.09 89.7827C1109.32 108.56 1110.55 127.858 1112.61 146.635C1113.84 167.498 1116.31 187.84 1116.31 208.182C1116.31 257.732 1115.9 306.76 1115.9 356.31C1115.9 408.99 1113.84 461.67 1111.38 513.828C1110.14 536.777 1108.91 560.249 1108.09 583.198C1107.68 588.936 1107.68 594.673 1107.68 600.932C1107.27 621.795 1106.85 643.18 1107.68 664.043C1108.09 672.91 1109.32 682.299 1113.84 689.079C1117.54 694.816 1121.65 698.468 1126.58 702.64C1127.41 703.162 1136.04 710.464 1136.45 709.942C1139.74 700.554 1147.54 679.169 1147.54 681.255C1148.37 690.122 1145.9 715.68 1145.9 715.158L1150.83 717.766C1171.79 726.633 1202.21 723.503 1213.31 696.381L1213.72 695.86C1214.13 694.816 1214.13 694.295 1214.54 693.252C1214.95 692.209 1215.36 691.687 1215.36 690.644C1216.18 686.993 1216.59 683.863 1216.59 680.734C1217.42 670.302 1216.59 658.827 1214.54 648.396C1212.48 635.878 1212.9 622.838 1212.07 610.32C1212.07 610.32 1212.48 610.32 1212.48 610.842C1217.83 615.015 1221.53 622.317 1226.46 627.533C1229.34 630.662 1231.8 633.792 1234.27 637.443C1233.04 639.007 1231.8 640.572 1230.57 642.658C1228.93 645.266 1227.69 648.396 1225.64 649.961C1225.23 650.482 1225.23 652.047 1226.05 651.525C1228.1 650.482 1229.34 648.917 1230.98 647.353C1233.04 645.266 1234.68 643.702 1236.73 642.137C1238.38 644.745 1239.61 647.353 1240.84 649.961C1239.2 652.568 1237.97 656.219 1236.32 658.827C1235.09 661.435 1233.86 663.522 1232.62 666.13C1231.39 668.737 1229.34 672.91 1227.69 674.996C1227.28 675.518 1227.28 676.561 1228.1 676.04C1229.75 674.996 1230.98 673.432 1232.21 671.345C1234.27 668.216 1237.15 666.13 1239.2 663C1240.43 660.914 1242.08 658.827 1243.72 656.219C1245.37 660.392 1246.6 664.565 1247.42 669.259C1247.42 695.338 1230.98 711.507 1217.42 730.284C1203.03 750.626 1182.07 761.579 1160.7 764.708C1159.88 762.622 1159.88 763.665 1160.29 763.665Z" fill="#F0FCFF"/>
<path d="M119.614 211.834C113.038 198.795 103.174 187.32 90.8434 183.669C90.4324 183.669 90.4324 184.191 90.4324 184.191C102.763 188.885 110.161 201.924 117.97 213.921C118.381 214.442 120.025 212.877 119.614 211.834Z" fill="#123D6E"/>
<path d="M16.0217 633.792C14.7887 630.141 14.7887 625.968 14.3777 622.317C14.3777 621.796 13.9667 622.317 13.9667 622.317C13.5556 628.055 11.9116 640.051 17.2548 643.18C18.0768 643.702 18.8988 642.137 18.8988 641.094C18.0768 639.008 16.8437 636.4 16.0217 633.792Z" fill="#123D6E"/>
</svg>
