<svg width="120" height="120" viewBox="0 0 120 120" fill="none" xmlns="http://www.w3.org/2000/svg">
<path d="M102.103 95.1723C99.3775 95.2462 96.8309 96.5458 95.1721 98.7099C92.7688 101.708 89.1353 103.452 85.2929 103.452C81.4505 103.452 77.8169 101.708 75.4136 98.7099C73.7899 96.4821 71.1981 95.1641 68.4411 95.1641C65.684 95.1641 63.0932 96.4821 61.4686 98.7099C59.0662 101.708 55.4317 103.452 51.5893 103.452C47.7479 103.452 44.1133 101.708 41.71 98.7099C40.0863 96.4821 37.4955 95.1641 34.7384 95.1641C31.9805 95.1641 29.3896 96.4821 27.7659 98.7099C25.3229 101.663 21.7077 103.395 17.8765 103.448C14.0516 103.388 10.4457 101.657 8.00739 98.7099C6.54157 96.8285 4.42181 95.5658 2.06934 95.1723V105.517C5.50335 105.874 8.6678 107.541 10.9039 110.172C12.5527 112.381 15.1213 113.715 17.8765 113.793C20.6096 113.728 23.1662 112.427 24.8277 110.255C27.231 107.265 30.8601 105.526 34.6968 105.526C38.5328 105.526 42.1617 107.265 44.5659 110.255C46.1897 112.483 48.7805 113.801 51.5375 113.801C54.2955 113.801 56.8863 112.483 58.51 110.255C60.9134 107.265 64.5434 105.526 68.3791 105.526C72.2149 105.526 75.8449 107.265 78.2482 110.255C79.872 112.483 82.4628 113.801 85.2208 113.801C87.9778 113.801 90.5686 112.483 92.1924 110.255C94.6004 107.265 98.233 105.525 102.072 105.525C105.911 105.525 109.544 107.265 111.951 110.255C113.429 112.144 115.563 113.407 117.931 113.793V103.448C114.497 103.09 111.333 101.423 109.096 98.7929C107.441 96.5808 104.865 95.2471 102.103 95.1723V95.1723Z" fill="#204977"/>
<path d="M102.103 109.655C99.3775 109.729 96.8309 111.028 95.1721 113.192C92.7688 116.191 89.1353 117.934 85.2929 117.934C81.4505 117.934 77.8169 116.191 75.4136 113.192C73.7899 110.964 71.1981 109.646 68.4411 109.646C65.684 109.646 63.0932 110.965 61.4686 113.192C59.0662 116.191 55.4317 117.934 51.5893 117.934C47.7479 117.934 44.1133 116.191 41.71 113.192C40.0863 110.964 37.4955 109.646 34.7384 109.646C31.9805 109.646 29.3896 110.965 27.7659 113.192C25.3229 116.145 21.7077 117.877 17.8765 117.931C14.0516 117.871 10.4457 116.14 8.00739 113.192C6.54157 111.311 4.42181 110.048 2.06934 109.655V120H117.931V117.931C114.497 117.572 111.334 115.905 109.097 113.275C107.442 111.063 104.866 109.729 102.104 109.655H102.103Z" fill="#204977"/>
<path d="M117.931 57.9311H109.655C109.394 51.8008 107.991 45.7741 105.517 40.1583C103.313 35.1549 100.301 30.5486 96.6004 26.5244L102.497 20.6277C103.2 19.8066 103.153 18.5828 102.388 17.8189C101.624 17.0541 100.4 17.007 99.5793 17.7099L93.6826 23.6066C89.1734 19.453 83.9327 16.1703 78.2273 13.924C73.0816 11.8292 67.6183 10.6191 62.069 10.3448V2.06897C62.069 0.926425 61.1426 0 60.0001 0C58.8575 0 57.9311 0.926425 57.9311 2.06897V10.3448C51.7944 10.6035 45.7592 12.0074 40.138 14.4828C35.1346 16.6866 30.5283 19.6994 26.5031 23.3997L20.6064 17.503C19.7862 16.8001 18.5624 16.8472 17.7976 17.612C17.0338 18.3758 16.9867 19.5997 17.6895 20.4208L23.5862 26.3175C19.4317 30.8266 16.1491 36.0674 13.9037 41.7728C11.8163 46.9204 10.6127 52.3827 10.3448 57.9311H2.06897C0.926424 57.9311 0 58.8575 0 60C0 61.1426 0.926424 62.069 2.06897 62.069H10.3448C10.6275 68.1697 12.0305 74.166 14.4828 79.7586V79.9036V80.0273C16.2303 84.0194 18.4987 87.762 21.2271 91.1581C21.9476 92.0494 23.2536 92.1889 24.145 91.4685C25.0363 90.749 25.1748 89.4429 24.4553 88.5516C22.3697 85.9433 20.5796 83.1122 19.1176 80.1104L22.8834 78.4553H22.8824C24.5182 81.6512 26.5631 84.6215 28.9657 87.2899C29.3194 87.7286 29.8376 88.0048 30.4001 88.0528C30.9626 88.1018 31.5205 87.918 31.9435 87.5448C32.3675 87.1717 32.6205 86.6424 32.6445 86.0781C32.6676 85.5147 32.4598 84.9651 32.0691 84.5587C30.0122 82.2015 28.261 79.595 26.8551 76.8002L43.9656 69.3103C45.6928 72.3667 48.2458 74.8761 51.3306 76.5517L46.428 88.9655C46.1989 89.4809 46.1906 90.0683 46.4049 90.5901C46.6192 91.112 47.0376 91.524 47.5631 91.7299C48.0887 91.9359 48.6752 91.9184 49.1869 91.6819C49.6995 91.4454 50.093 91.0095 50.2759 90.4756L55.1795 77.9169C58.5737 78.8479 62.165 78.7832 65.5243 77.7312L69.3934 86.5658C69.5929 87.0969 70.0021 87.5227 70.5249 87.7435C71.0476 87.9642 71.6388 87.9605 72.1588 87.7333C72.6788 87.5061 73.0824 87.0747 73.2755 86.5409C73.4685 86.007 73.4334 85.4177 73.1794 84.9106L69.3103 76.0964C72.376 74.3525 74.8854 71.7773 76.5517 68.6694L93.9727 75.4766V75.4757C91.5407 80.794 87.8904 85.4649 83.3176 89.1106C82.8697 89.4468 82.5778 89.9502 82.5076 90.5053C82.4374 91.0613 82.5953 91.621 82.9454 92.0579C83.2955 92.4948 83.8081 92.7719 84.365 92.8245C84.9229 92.8772 85.478 92.7017 85.9038 92.3378C91.0384 88.2396 95.1236 82.9766 97.8206 76.9858L101.668 78.4959L101.669 78.4969C100.6 80.9279 99.3187 83.2609 97.8416 85.4685C97.2015 86.417 97.4519 87.7046 98.3995 88.3447C99.3481 88.9848 100.636 88.7345 101.276 87.7859C106.409 80.1612 109.311 71.2545 109.655 62.0692H117.931C119.074 62.0692 120 61.1428 120 60.0002C120 58.8577 119.074 57.9313 117.931 57.9313L117.931 57.9311ZM101.276 57.9311C101.066 53.626 100.179 49.3809 98.6481 45.352L102.476 43.6765V43.6756C104.254 48.232 105.281 53.046 105.517 57.9311L101.276 57.9311ZM100.82 39.8691L96.9927 41.5446C95.3071 38.1806 93.1698 35.0625 90.6409 32.2758L93.5994 29.3173H93.6003C96.4895 32.479 98.9196 36.0305 100.82 39.8691L100.82 39.8691ZM68.6699 43.4483L75.4559 26.069C83.1037 29.6333 89.3227 35.6777 93.104 43.2211L76.0969 50.6897C74.353 47.6241 71.7778 45.1146 68.6699 43.4483ZM43.4498 51.3307L26.0704 44.5447C29.6347 36.8969 35.6792 30.6779 43.2225 26.8966L50.7124 43.9858H50.7115C47.6516 45.7056 45.1345 48.2511 43.4498 51.3305L43.4498 51.3307ZM54.395 42.2069L46.9263 25.1378H46.9254C54.8218 22.1396 63.5105 21.9578 71.526 24.6206L64.7188 42.0202C61.3245 41.0901 57.7332 41.1548 54.3739 42.2068L54.395 42.2069ZM87.6427 29.359H87.6417C84.4525 26.4624 80.8291 24.0823 76.9044 22.3032L78.4146 18.4138C82.8776 20.4061 86.9924 23.1031 90.6011 26.3995L87.6427 29.359ZM74.5666 16.9452L73.1183 20.6897C69.5474 19.4972 65.8298 18.8008 62.0695 18.6207V14.4828C66.3498 14.6906 70.5781 15.5061 74.6283 16.9036L74.5666 16.9452ZM57.9316 18.7241C53.6192 18.9319 49.3675 19.8186 45.3312 21.3518L43.6557 17.5241C48.2186 15.7433 53.0401 14.7162 57.9316 14.4826L57.9316 18.7241ZM39.8696 19.1795L41.5451 23.0072C38.1811 24.6928 35.063 26.8302 32.2764 29.359L29.3179 26.4005V26.3996C32.4795 23.5104 36.031 21.0803 39.8696 19.1795L39.8696 19.1795ZM29.3595 32.2759C26.4611 35.4728 24.08 39.1026 22.3037 43.0345L18.4143 41.5244C20.4066 37.0604 23.1037 32.9466 26.4001 29.3378L29.3595 32.2759ZM16.9457 45.352L20.8148 46.8622H20.8139C19.6224 50.4331 18.9259 54.1506 18.7449 57.9109H14.4833C14.693 53.6382 15.5085 49.4161 16.9041 45.3725L16.9457 45.352ZM17.5867 76.3865C15.7856 71.8126 14.7382 66.9773 14.4833 62.069H18.6212C18.8281 66.3796 19.7074 70.6303 21.2276 74.6694L17.5867 76.3865ZM25.1386 73.0762C22.1765 65.1633 22.0084 56.4765 24.6629 48.4567L42.0625 55.2639V55.263C41.1324 58.6582 41.1971 62.2485 42.2491 65.6078L25.1386 73.0762ZM60.0012 70.3449C57.2579 70.3449 54.6267 69.255 52.6859 67.3155C50.7462 65.3749 49.6564 62.7434 49.6564 60.0001C49.6564 57.2568 50.7463 54.6255 52.6859 52.6847C54.6264 50.745 57.2579 49.6552 60.0012 49.6552C62.7446 49.6552 65.3758 50.7452 67.3166 52.6847C69.2563 54.6253 70.3461 57.2568 70.3461 60.0001C70.3461 62.7434 69.2562 65.3747 67.3166 67.3155C65.3761 69.2551 62.7446 70.3449 60.0012 70.3449ZM77.9596 64.8003C78.8898 61.4051 78.8251 57.8148 77.774 54.4555L94.8431 46.9869V46.9859C97.8356 54.8896 98.025 63.5802 95.3806 71.6055L77.9596 64.8003ZM103.078 74.6278L99.3123 73.138C100.503 69.5597 101.199 65.8356 101.381 62.0691H105.519C105.303 66.3494 104.481 70.5776 103.078 74.6278V74.6278Z" fill="#204977"/>
</svg>
