<svg width="120" height="120" viewBox="0 0 120 120" fill="none" xmlns="http://www.w3.org/2000/svg">
<path d="M38.865 89.3442L25.62 119.135C25.5096 119.391 25.319 119.611 25.073 119.765C24.8269 119.919 24.5367 120.001 24.24 120H17.76C17.5145 119.999 17.273 119.943 17.0561 119.836C16.8392 119.729 16.6535 119.575 16.515 119.386C16.3762 119.195 16.2911 118.975 16.2675 118.746C16.244 118.517 16.2826 118.286 16.38 118.074L31.17 84.7953C33.4975 86.6341 36.087 88.1648 38.865 89.3442V89.3442ZM73.83 84.7953C71.5136 86.6518 68.922 88.1884 66.135 89.3581L79.38 119.135C79.4904 119.391 79.6809 119.611 79.927 119.765C80.1731 119.919 80.4633 120.001 80.76 120H87.24C87.4854 119.999 87.727 119.943 87.9439 119.836C88.1608 119.729 88.3465 119.575 88.485 119.386C88.6238 119.195 88.7089 118.975 88.7324 118.746C88.756 118.517 88.7174 118.286 88.62 118.074L73.83 84.7953ZM37.785 99.0698L34.065 107.442H70.935L67.215 99.0698H37.785ZM81 53.0232C80.7033 53.0232 80.4133 53.1051 80.1666 53.2584C79.92 53.4117 79.7277 53.6297 79.6142 53.8846C79.5006 54.1396 79.4709 54.4201 79.5288 54.6908C79.5867 54.9615 79.7295 55.2101 79.9393 55.4053C80.1491 55.6004 80.4164 55.7333 80.7074 55.7871C80.9983 55.841 81.2999 55.8133 81.574 55.7077C81.8481 55.6021 82.0824 55.4233 82.2472 55.1938C82.412 54.9643 82.5 54.6946 82.5 54.4186C82.4997 54.0486 82.3416 53.6938 82.0604 53.4322C81.7791 53.1706 81.3977 53.0235 81 53.0232ZM90 54.4186C90 56.0744 89.4721 57.6931 88.4832 59.0699C87.4943 60.4467 86.0887 61.5197 84.4441 62.1534C82.7996 62.7871 80.99 62.9529 79.2442 62.6298C77.4983 62.3068 75.8947 61.5094 74.636 60.3386C73.3774 59.1677 72.5202 57.6759 72.1729 56.0519C71.8257 54.4279 72.0039 52.7445 72.6851 51.2147C73.3663 49.6849 74.5198 48.3774 75.9999 47.4575C77.4799 46.5375 79.22 46.0465 81 46.0465C83.3861 46.0489 85.6738 46.9318 87.3611 48.5013C89.0483 50.0709 89.9974 52.1989 90 54.4186V54.4186ZM85.5 54.4186C85.5 53.5907 85.2361 52.7813 84.7416 52.093C84.2471 51.4046 83.5443 50.868 82.7221 50.5512C81.8998 50.2344 80.995 50.1515 80.1221 50.313C79.2492 50.4745 78.4473 50.8732 77.818 51.4586C77.1887 52.044 76.7601 52.7899 76.5865 53.6019C76.4128 54.414 76.5019 55.2556 76.8425 56.0205C77.1831 56.7854 77.7599 57.4392 78.4999 57.8992C79.2399 58.3591 80.11 58.6046 81 58.6046C82.1931 58.6034 83.3369 58.162 84.1805 57.3772C85.0242 56.5925 85.4987 55.5284 85.5 54.4186V54.4186ZM114.72 21.2372C115.245 23.4267 115.507 25.6637 115.5 27.907C115.504 30.1563 115.232 32.3987 114.69 34.5907C116.225 34.153 117.568 33.2696 118.524 32.0699C119.479 30.8702 119.997 29.4174 120 27.9242C120.003 26.4311 119.492 24.9763 118.542 23.7729C117.592 22.5695 116.253 21.6809 114.72 21.2372V21.2372ZM7.5 48.8372H4.5C4.10217 48.8372 3.72064 48.6902 3.43934 48.4285C3.15804 48.1668 3 47.8119 3 47.4419C3 47.0718 3.15804 46.7169 3.43934 46.4552C3.72064 46.1935 4.10217 46.0465 4.5 46.0465H22.5V47.4419C22.5 47.8119 22.658 48.1668 22.9393 48.4285C23.2206 48.6902 23.6022 48.8372 24 48.8372H30C30.3978 48.8372 30.7794 48.6902 31.0607 48.4285C31.342 48.1668 31.5 47.8119 31.5 47.4419V46.0465H33.2764C33.5821 46.8619 34.1529 47.5685 34.9097 48.0686C35.6664 48.5687 36.5717 48.8373 37.5 48.8373C38.4283 48.8373 39.3335 48.5687 40.0903 48.0686C40.8471 47.5685 41.4179 46.8619 41.7235 46.0465H43.5V47.4419C43.5 47.8119 43.658 48.1668 43.9393 48.4285C44.2206 48.6902 44.6022 48.8372 45 48.8372H51C51.3978 48.8372 51.7793 48.6902 52.0607 48.4285C52.342 48.1668 52.5 47.8119 52.5 47.4419V46.0465H54.2764C54.5821 46.8619 55.1529 47.5685 55.9097 48.0686C56.6664 48.5687 57.5717 48.8373 58.5 48.8373C59.4283 48.8373 60.3335 48.5687 61.0903 48.0686C61.8471 47.5685 62.4179 46.8619 62.7235 46.0465H64.5V47.4419C64.5 47.8119 64.658 48.1668 64.9393 48.4285C65.2206 48.6902 65.6022 48.8372 66 48.8372H72C72.3978 48.8372 72.7793 48.6902 73.0606 48.4285C73.342 48.1668 73.5 47.8119 73.5 47.4419V41.8605C73.5 41.4904 73.342 41.1355 73.0606 40.8738C72.7793 40.6121 72.3978 40.4651 72 40.4651H66C65.6022 40.4651 65.2206 40.6121 64.9393 40.8738C64.658 41.1355 64.5 41.4904 64.5 41.8605V43.2558H62.7235C62.4179 42.4405 61.8471 41.7338 61.0903 41.2337C60.3335 40.7336 59.4283 40.465 58.5 40.465C57.5717 40.465 56.6664 40.7336 55.9097 41.2337C55.1529 41.7338 54.5821 42.4405 54.2764 43.2558H52.5V41.8605C52.5 41.4904 52.342 41.1355 52.0607 40.8738C51.7793 40.6121 51.3978 40.4651 51 40.4651H45C44.6022 40.4651 44.2206 40.6121 43.9393 40.8738C43.658 41.1355 43.5 41.4904 43.5 41.8605V43.2558H41.7235C41.4179 42.4405 40.8471 41.7338 40.0903 41.2337C39.3335 40.7336 38.4283 40.465 37.5 40.465C36.5717 40.465 35.6664 40.7336 34.9097 41.2337C34.1529 41.7338 33.5821 42.4405 33.2764 43.2558H31.5V41.8605C31.5 41.4904 31.342 41.1355 31.0607 40.8738C30.7794 40.6121 30.3978 40.4651 30 40.4651H24C23.6022 40.4651 23.2206 40.6121 22.9393 40.8738C22.658 41.1355 22.5 41.4904 22.5 41.8605V43.2558H4.5C3.30653 43.2558 2.16193 43.6968 1.31802 44.4819C0.474106 45.2669 0 46.3316 0 47.4419C0 48.5521 0.474106 49.6168 1.31802 50.4018C2.16193 51.1869 3.30653 51.6279 4.5 51.6279H7.5C7.89782 51.6279 8.27935 51.4809 8.56066 51.2192C8.84196 50.9575 9 50.6026 9 50.2326C9 49.8625 8.84196 49.5076 8.56066 49.2459C8.27935 48.9842 7.89782 48.8372 7.5 48.8372ZM24 53.0232C23.6025 53.0243 23.2217 53.1717 22.9406 53.4331C22.6595 53.6946 22.5011 54.0489 22.5 54.4186V61.3953C22.5019 68.4372 25.3655 75.2181 30.5166 80.3783C35.6677 85.5385 42.7254 88.6965 50.2746 89.2191C57.8237 89.7416 65.3062 87.5901 71.2215 83.1958C77.1369 78.8016 81.0477 72.4896 82.17 65.5256C81.7815 65.5654 81.3908 65.584 81 65.5814C77.8187 65.5775 74.7689 64.4001 72.5194 62.3076C70.2698 60.215 69.0042 57.378 69 54.4186C68.9996 53.9522 69.0297 53.4862 69.09 53.0232H24ZM82.5 0H81C80.6025 0.00106761 80.2217 0.14842 79.9406 0.409868C79.6595 0.671315 79.5011 1.02561 79.5 1.39535V43.3395C79.9977 43.2834 80.4986 43.2555 81 43.2558C84.1132 43.259 87.1033 44.3871 89.3394 46.4021C91.5755 48.4171 92.8826 51.1614 92.985 54.0558C98.7001 52.046 103.625 48.4705 107.11 43.8017C110.594 39.1329 112.473 33.5905 112.5 27.907C112.497 20.5064 109.335 13.4097 103.71 8.17674C98.0845 2.94376 90.4556 0.00269973 82.5 0V0ZM49.425 32.093C49.425 32.4631 49.583 32.818 49.8643 33.0797C50.1456 33.3414 50.5272 33.4884 50.925 33.4884C51.3228 33.4884 51.7043 33.3414 51.9857 33.0797C52.267 32.818 52.425 32.4631 52.425 32.093C52.4237 31.6053 52.5318 31.1228 52.7426 30.6763C52.9533 30.2297 53.262 29.8291 53.6488 29.4999C54.8833 28.3286 55.5747 26.7537 55.5745 25.1134C55.5744 23.4731 54.8827 21.8983 53.6481 20.7272C53.2626 20.3978 52.9548 19.9976 52.7443 19.5518C52.5338 19.106 52.4251 18.6244 52.4251 18.1375C52.4251 17.6506 52.5338 17.169 52.7443 16.7232C52.9548 16.2774 53.2626 15.8772 53.6481 15.5478C54.89 14.3816 55.5831 12.8043 55.575 11.1628C55.575 10.7927 55.417 10.4378 55.1357 10.1761C54.8543 9.91445 54.4728 9.76744 54.075 9.76744C53.6772 9.76744 53.2956 9.91445 53.0143 10.1761C52.733 10.4378 52.575 10.7927 52.575 11.1628C52.5763 11.6498 52.4682 12.1317 52.2576 12.5776C52.0469 13.0234 51.7385 13.4234 51.3519 13.7519C50.1174 14.9225 49.4258 16.4968 49.4256 18.1367C49.4255 19.7765 50.1168 21.351 51.3511 22.5218C51.7368 22.8514 52.0448 23.252 52.2554 23.6981C52.4661 24.1442 52.5749 24.6262 52.575 25.1134C52.575 25.6007 52.4664 26.0826 52.2558 26.5288C52.0453 26.9749 51.7375 27.3756 51.3519 27.7053C50.1097 28.8724 49.4166 30.4507 49.425 32.093V32.093ZM35.925 32.093C35.925 32.4631 36.083 32.818 36.3643 33.0797C36.6456 33.3414 37.0272 33.4884 37.425 33.4884C37.8228 33.4884 38.2043 33.3414 38.4857 33.0797C38.767 32.818 38.925 32.4631 38.925 32.093C38.9237 31.6053 39.0318 31.1228 39.2426 30.6763C39.4533 30.2297 39.762 29.8291 40.1488 29.4999C41.3833 28.3286 42.0747 26.7537 42.0745 25.1134C42.0744 23.4731 41.3827 21.8983 40.1481 20.7272C39.7626 20.3978 39.4548 19.9976 39.2443 19.5518C39.0338 19.106 38.9251 18.6244 38.9251 18.1375C38.9251 17.6506 39.0338 17.169 39.2443 16.7232C39.4548 16.2774 39.7626 15.8772 40.1481 15.5478C41.39 14.3816 42.0831 12.8043 42.075 11.1628C42.075 10.7927 41.917 10.4378 41.6357 10.1761C41.3543 9.91445 40.9728 9.76744 40.575 9.76744C40.1772 9.76744 39.7956 9.91445 39.5143 10.1761C39.233 10.4378 39.075 10.7927 39.075 11.1628C39.0763 11.6498 38.9682 12.1317 38.7576 12.5776C38.5469 13.0234 38.2385 13.4234 37.8519 13.7519C36.6174 14.9225 35.9258 16.4968 35.9256 18.1367C35.9255 19.7765 36.6168 21.351 37.8511 22.5218C38.2368 22.8514 38.5448 23.252 38.7554 23.6981C38.9661 24.1442 39.0749 24.6262 39.075 25.1134C39.075 25.6007 38.9664 26.0826 38.7558 26.5288C38.5453 26.9749 38.2375 27.3756 37.8519 27.7053C36.6097 28.8724 35.9166 30.4507 35.925 32.093V32.093ZM62.925 32.093C62.925 32.4631 63.083 32.818 63.3643 33.0797C63.6456 33.3414 64.0272 33.4884 64.425 33.4884C64.8228 33.4884 65.2043 33.3414 65.4857 33.0797C65.767 32.818 65.925 32.4631 65.925 32.093C65.9235 31.6054 66.0315 31.1229 66.2422 30.6763C66.4528 30.2298 66.7614 29.8291 67.1481 29.4999C68.3826 28.3287 69.0741 26.7538 69.0741 25.1136C69.0741 23.4733 68.3826 21.8984 67.1481 20.7272C66.7626 20.3978 66.4548 19.9976 66.2443 19.5518C66.0338 19.106 65.9251 18.6244 65.9251 18.1375C65.9251 17.6506 66.0338 17.169 66.2443 16.7232C66.4548 16.2774 66.7626 15.8772 67.1481 15.5478C68.39 14.3816 69.0831 12.8043 69.075 11.1628C69.075 10.7927 68.917 10.4378 68.6356 10.1761C68.3543 9.91445 67.9728 9.76744 67.575 9.76744C67.1772 9.76744 66.7956 9.91445 66.5143 10.1761C66.233 10.4378 66.075 10.7927 66.075 11.1628C66.0763 11.6498 65.9682 12.1317 65.7576 12.5776C65.5469 13.0234 65.2385 13.4234 64.8519 13.7519C63.6172 14.9224 62.9256 16.4969 62.9256 18.1368C62.9256 19.7767 63.6172 21.3512 64.8519 22.5218C65.2374 22.8515 65.5452 23.2522 65.7557 23.6983C65.9663 24.1444 66.075 24.6263 66.075 25.1136C66.075 25.6008 65.9663 26.0827 65.7557 26.5288C65.5452 26.9749 65.2374 27.3756 64.8519 27.7053C63.6097 28.8724 62.9166 30.4507 62.925 32.093V32.093Z" fill="#204977"/>
</svg>
