<svg width="120" height="120" viewBox="0 0 120 120" fill="none" xmlns="http://www.w3.org/2000/svg">
<path d="M86.1175 98.474C86.1175 85.5373 120 87.1544 120 74.2161C120 58.0438 46.5884 58.0438 46.5884 46.7226C46.5884 38.6357 67.7652 33.7844 67.7652 33.7844C67.7652 33.7844 5.64648 38.6372 5.64648 49.9568C5.64648 72.5976 76.2349 69.6383 76.2349 79.0674C76.2349 85.5358 57.8826 85.5358 57.8826 95.2398C57.8826 113.031 120 117.882 120 117.882C120 117.882 86.1175 106.561 86.1175 98.474ZM99.2891 66.1307C103.623 66.1307 107.138 67.3428 107.138 68.8313C107.138 69.8172 105.613 70.6745 103.328 71.1431L99.2891 68.8313L101.547 71.418C100.827 71.4831 100.079 71.5156 99.2891 71.5156C94.9678 71.5156 91.4542 70.3168 91.4542 68.8313C91.4542 67.3428 94.9691 66.1307 99.2891 66.1307ZM92.6259 71.3382C95.4491 71.3382 97.7213 72.3404 97.7213 73.5865C97.7213 74.8311 95.4491 75.8347 92.6259 75.8347C91.4684 75.8347 90.3807 75.6559 89.5342 75.3661L93.4168 73.1341L87.8826 74.4113C87.6426 74.1526 87.5304 73.8629 87.5304 73.5865C87.5291 72.3404 89.8155 71.3382 92.6259 71.3382Z" fill="#204977"/>
<path d="M86.8516 57.4126C85.4555 57.1539 84.0426 56.8789 82.6168 56.6203C83.2942 49.9568 81.8839 46.7226 80.471 40.2542C79.4413 35.5345 72.9755 23.022 69.1768 20.8477C74.8245 24.0818 80.7342 32.3181 83.2942 38.6371C85.6722 44.5054 86.5251 50.888 86.8516 57.4126C86.8374 57.1376 85.4555 57.1539 86.8516 57.4126Z" fill="#204977"/>
<path d="M104.471 30.5503C100.592 32.3433 97.008 35.5745 94.9847 39.805C92.1976 45.6348 93.4041 52.3116 93.106 58.6425C92.2299 58.4636 91.328 58.2862 90.4235 58.1088C90.7138 51.401 89.4015 44.7804 92.7099 38.7185C95.1951 34.1658 99.7718 30.9213 104.471 30.5503Z" fill="#204977"/>
<path d="M98.9072 7.60063C99.613 8.18302 99.8685 9.28276 99.4724 10.2362L95.8156 18.8079C95.4904 19.5514 94.8711 19.9875 94.1911 20.0037C93.1898 22.963 92.2001 26.2149 91.4375 29.6915C91.1278 30.9686 90.902 32.262 90.6607 33.5879C90.4917 34.9301 90.3085 36.3047 90.1111 37.6809C89.8272 40.414 89.5885 43.2121 89.5317 46.0102C89.4053 50.0692 89.5046 54.1282 89.9549 58.0098C89.5033 57.9285 89.0659 57.8325 88.6143 57.7512C88.6001 57.6551 88.5872 57.5575 88.573 57.4614C88.5872 57.5413 88.573 57.6388 88.5588 57.7364C88.1627 57.6728 87.7678 57.5915 87.3575 57.5102C87.4001 56.9278 87.4285 56.3469 87.4285 55.7483C87.5691 50.492 86.9059 44.8972 85.8195 39.4295C85.2969 36.6802 84.6053 33.9796 83.8853 31.3603C83.4762 30.0492 83.0801 28.7558 82.6711 27.4625C82.2336 26.2179 81.7962 24.9881 81.2878 23.807C80.7382 22.4649 80.1588 21.1552 79.5665 19.9091C79.5098 19.9254 79.4672 19.9254 79.4104 19.9254C78.662 19.9254 77.9291 19.5041 77.4762 18.7444L71.5756 8.76541C70.9975 7.81052 71.0543 6.58219 71.6027 5.69234C70.9394 4.64138 70.3459 3.70276 69.8246 2.92673C68.8349 1.4072 68.1433 0.387274 67.8762 0C68.2994 0.48631 69.7962 2.3606 71.8982 5.32133C71.9833 5.22525 72.0827 5.12769 72.1949 5.04639C72.5911 4.73894 73.0556 4.59408 73.5085 4.59408C74.2556 4.59408 74.9911 4.99909 75.4427 5.75886L81.3433 15.7363C82.0633 16.9662 81.7962 18.632 80.7227 19.4568C80.6814 19.4894 80.6517 19.5219 80.6091 19.5367C81.2182 20.7177 81.7962 21.9313 82.3601 23.2084C82.8956 24.4057 83.3614 25.6665 83.8285 26.9599C84.2517 28.237 84.662 29.5481 85.0853 30.8578C85.8762 33.5421 86.6104 36.2914 87.1743 39.0733C87.6401 41.1427 87.9369 43.2461 88.1769 45.3318C88.2891 42.68 88.5588 40.043 88.8543 37.4385C89.0504 36.0638 89.2491 34.6906 89.4465 33.3322C89.7007 31.9738 89.9549 30.6301 90.2801 29.3368C91.1562 25.8749 92.2285 22.6733 93.3149 19.7776C92.3988 19.244 92.0324 17.9831 92.4827 16.9469L96.1382 8.35892C96.4633 7.61541 97.1278 7.17788 97.8053 7.17788C98.0878 7.17788 98.3562 7.24292 98.6246 7.38925C98.6246 7.38925 98.6388 7.38925 98.6388 7.40551C99.7962 5.06117 100.587 3.62146 100.769 3.29774C100.657 3.55642 100.12 4.76998 99.2878 6.72704C99.1756 7.00346 99.0504 7.29317 98.9072 7.60063Z" fill="#204977"/>
<path d="M115.905 119.29C102.976 118.075 55.0581 112.464 55.0581 95.2572C55.0581 88.7874 61.4258 86.0543 66.5355 83.8386C69.7549 82.4476 73.4116 80.8793 73.4116 79.0834C73.4116 76.7863 59.111 74.4257 50.5549 73.017C29.2942 69.5094 2.82323 65.1444 2.82323 49.9728C2.82323 38.7329 46.1497 33.8979 63.4878 32.4094C63.4878 32.4094 49.3974 32.7657 33.8826 35.4012C5.11097 40.2702 0 46.7223 0 49.9728C0 64.5118 27.3174 70.3327 50.8232 74.2158C56.7394 75.1855 66.1974 76.1566 70.5884 77.45C69.742 77.8402 76.2349 79.0686 67.7652 82.3028C62.0826 84.4727 52.2361 86.5554 52.2361 95.2572C52.2361 105.573 63.9961 111.057 87.5303 116.266C103.146 119.726 118.59 120 118.59 120L115.905 119.29Z" fill="#204977"/>
</svg>
