<svg width="120" height="120" viewBox="0 0 120 120" fill="none" xmlns="http://www.w3.org/2000/svg">
<path d="M57.6036 80.7247C51.9977 77.9755 46.3917 67.7287 54.9481 58.7316C64.0947 48.9846 60.8491 43.9862 60.5541 43.4864C62.9145 44.736 65.865 50.984 63.5046 55.7325C61.1442 60.481 63.7996 63.9799 63.7996 63.9799C63.2095 59.7313 66.16 59.4813 66.16 59.4813C66.16 59.4813 64.3897 61.7306 67.6353 65.4795C70.8808 69.7281 69.9957 75.2264 66.16 78.7253C65.2749 79.4751 64.3897 80.2248 63.5046 80.7247C89.4689 78.7253 89.4689 57.232 89.4689 56.9821C87.1085 61.9805 83.863 61.9805 83.863 61.9805C96.8452 43.4863 81.5026 28.9909 81.5026 28.9909C82.3878 41.487 76.1917 41.487 76.1917 41.487C80.0274 24.4923 64.6848 10.4967 64.6848 10.4967C68.2254 15.7451 64.0947 17.2446 64.0947 17.2446C56.7184 5.24835 42.261 0.249922 40.7858 0C56.7184 14.4955 42.261 26.2418 46.6868 34.2393C44.6214 31.4901 38.7204 29.7407 38.1303 29.7407C38.7204 30.4904 46.9818 37.7382 39.9006 43.9862C32.5244 50.4842 36.6551 56.7322 36.6551 56.7322C31.6392 53.9831 30.7541 47.9849 30.7541 47.9849C29.2788 68.7284 41.966 79.4751 57.6036 80.7247Z" fill="#204977"/>
<path d="M4.49481 85.4734L22.4928 91.4715L50.5225 84.4737L9.2156 73.977C5.67501 72.9773 1.54432 74.7267 0.364118 77.7258C-0.81608 80.9748 0.954215 84.4737 4.49481 85.4734Z" fill="#204977"/>
<path d="M111.302 100.219L97.7299 96.7202L67.3398 106.967L103.631 119.213C109.827 121.462 117.203 118.713 119.269 113.215C121.629 107.717 118.088 101.719 111.302 100.219Z" fill="#204977"/>
<path d="M119.564 77.9753C118.384 74.9763 114.548 73.2268 110.713 74.2265L8.62562 100.218C2.13453 101.968 -1.40607 107.716 0.65928 113.214C3.01968 118.713 10.1009 121.462 16.2969 119.212L115.434 85.473C118.974 84.4733 120.744 80.9744 119.564 77.9753Z" fill="#204977"/>
</svg>
