<svg width="120" height="120" viewBox="0 0 120 120" fill="none" xmlns="http://www.w3.org/2000/svg">
<path d="M11.8308 85.7756C13.2307 85.7756 14.3656 84.5612 14.3656 83.0631C14.3656 81.565 13.2307 80.3506 11.8308 80.3506C10.4308 80.3506 9.2959 81.565 9.2959 83.0631C9.2959 84.5612 10.4308 85.7756 11.8308 85.7756Z" fill="#204977"/>
<path d="M11.8308 78.9946C12.7641 78.9946 13.5207 77.0714 13.5207 74.699C13.5207 72.3265 12.7641 70.4033 11.8308 70.4033C10.8975 70.4033 10.1409 72.3265 10.1409 74.699C10.1409 77.0714 10.8975 78.9946 11.8308 78.9946Z" fill="#204977"/>
<path d="M11.8308 95.7233C12.7641 95.7233 13.5207 93.8001 13.5207 91.4277C13.5207 89.0553 12.7641 87.1321 11.8308 87.1321C10.8975 87.1321 10.1409 89.0553 10.1409 91.4277C10.1409 93.8001 10.8975 95.7233 11.8308 95.7233Z" fill="#204977"/>
<path d="M18.5567 78.4297C20.1244 76.7524 20.8602 74.8201 20.2003 74.1138C19.5403 73.4076 17.7345 74.1947 16.1669 75.872C14.5992 77.5492 13.8634 79.4815 14.5233 80.1878C15.1833 80.8941 16.9891 80.1069 18.5567 78.4297Z" fill="#204977"/>
<path d="M7.49969 90.2538C9.06712 88.5765 9.80278 86.6443 9.14284 85.9381C8.48289 85.2319 6.67724 86.0192 5.10981 87.6964C3.54238 89.3737 2.80672 91.3059 3.46667 92.0121C4.12661 92.7183 5.93226 91.9311 7.49969 90.2538Z" fill="#204977"/>
<path d="M19.6475 84.8713C21.8642 84.8713 23.6612 84.0617 23.6612 83.063C23.6612 82.0643 21.8642 81.2546 19.6475 81.2546C17.4308 81.2546 15.6338 82.0643 15.6338 83.063C15.6338 84.0617 17.4308 84.8713 19.6475 84.8713Z" fill="#204977"/>
<path d="M4.0137 84.8713C6.2304 84.8713 8.02739 84.0617 8.02739 83.063C8.02739 82.0643 6.2304 81.2546 4.0137 81.2546C1.79699 81.2546 0 82.0643 0 83.063C0 84.0617 1.79699 84.8713 4.0137 84.8713Z" fill="#204977"/>
<path d="M20.1939 92.0162C20.8538 91.31 20.1181 89.3778 18.5507 87.7006C16.9833 86.0233 15.1776 85.2361 14.5177 85.9423C13.8577 86.6485 14.5934 88.5806 16.1608 90.2579C17.7283 91.9352 19.5339 92.7224 20.1939 92.0162Z" fill="#204977"/>
<path d="M9.14137 80.1844C9.80132 79.4782 9.06566 77.5461 7.49823 75.8688C5.93079 74.1915 4.12515 73.4043 3.4652 74.1105C2.80526 74.8167 3.54092 76.7489 5.10835 78.4261C6.67578 80.1034 8.48143 80.8906 9.14137 80.1844Z" fill="#204977"/>
<path d="M17.705 120C17.7062 120 17.7075 119.999 17.7087 119.999H28.02C28.02 116.824 21.8002 116.07 19.0605 116.007C19.4484 113.698 19.6122 111.469 19.6116 109.369C19.6091 99.9311 16.4173 93.1035 16.3943 93.0489C16.2405 92.7204 15.8662 92.5871 15.5593 92.7517C15.251 92.9156 15.1265 93.3154 15.2816 93.6452H15.2803C15.2816 93.6465 15.4652 94.0383 15.7529 94.7972C16.6209 97.0753 18.3675 102.534 18.3675 109.37C18.3669 111.474 18.1962 113.711 17.7903 116.026C14.8594 116.166 9.34009 117.008 9.34009 119.999H17.7012C17.7025 119.999 17.7037 120 17.705 120Z" fill="#204977"/>
<path d="M11.8131 105.119C15.2633 106.383 16.4333 105.782 16.7963 104.646C17.16 103.51 16.5796 102.269 13.1294 101.005C9.67864 99.7403 4.66495 98.9328 4.30131 100.068C3.93767 101.204 8.36295 103.855 11.8131 105.119Z" fill="#204977"/>
<path d="M21.5858 103.909C22.6337 104.338 23.8143 103.763 25.1169 100.117C26.4208 96.4721 27.3541 91.1384 26.3056 90.7099C25.2576 90.2802 22.625 94.9183 21.3218 98.5636C20.0179 102.208 20.5372 103.48 21.5858 103.909Z" fill="#204977"/>
<path d="M102.263 91.3663C99.267 92.8402 95.5142 95.6566 95.9388 96.6427C96.3629 97.6289 100.803 96.4115 103.799 94.937C106.794 93.4632 107.209 92.2891 106.785 91.303C106.361 90.3176 105.258 89.8918 102.263 91.3663Z" fill="#204977"/>
<path d="M92.1501 95.4367C93.0286 95.009 91.9645 90.4828 90.6656 87.4278C89.3674 84.3721 88.325 83.9437 87.4471 84.3721C86.5685 84.7992 86.1856 85.9206 87.4838 88.9769C88.7827 92.0313 91.2715 95.8638 92.1501 95.4367Z" fill="#204977"/>
<path d="M69.1875 116.01C69.0686 114.548 68.7199 111.929 67.6943 108.986C67.7087 108.947 67.7286 108.912 67.7367 108.87C67.7367 108.868 67.8052 108.498 67.9994 107.85C68.5866 105.898 70.2859 101.691 74.2765 99.3262C74.5767 99.1476 74.6862 98.7425 74.5181 98.4213C74.3513 98.0988 73.972 97.9829 73.6725 98.1615C69.5094 100.655 67.6669 104.813 66.9366 107.058C65.931 104.77 64.4895 102.403 62.4141 100.312C62.1626 100.061 61.7691 100.074 61.5337 100.344C61.2983 100.613 61.3114 101.034 61.563 101.286C64.7703 104.503 66.388 108.492 67.1987 111.69C67.6041 113.287 67.8058 114.684 67.9073 115.676C67.9197 115.798 67.9303 115.912 67.9397 116.02C65.0455 116.142 59.3606 116.964 59.3606 120H78.0405C78.0405 116.865 71.9795 116.09 69.1875 116.01Z" fill="#204977"/>
<path d="M83.866 119.999H102.546C102.546 117.087 97.3118 116.211 94.3311 116.038C94.2495 115.635 94.1624 115.176 94.0752 114.664C93.724 112.613 93.3741 109.751 93.3741 106.524C93.3728 100.479 94.6032 93.1934 99.2782 87.4673C99.5042 87.1894 99.4774 86.769 99.2196 86.5264C98.9606 86.2846 98.5671 86.3132 98.3417 86.5911C93.3853 92.6684 92.1293 100.302 92.1281 106.524C92.1287 110.487 92.6381 113.885 93.0521 116.003C90.4475 116.03 83.866 116.733 83.866 119.999Z" fill="#204977"/>
<path d="M99.4098 69.2191C100.339 70.7902 101.214 72.3214 102.036 73.8119L102.672 73.4827C102.106 71.8596 101.536 70.1712 100.963 68.4155C100.39 66.6591 100.038 65.6364 99.9067 65.3459C99.7541 65.0087 99.5287 64.7782 99.2323 64.6563C98.9353 64.5337 98.6352 64.551 98.3307 64.7082C98.0262 64.8661 97.8282 65.1093 97.7348 65.4378C97.6414 65.765 97.6701 66.0955 97.8195 66.4266C97.9509 66.7164 98.4814 67.6479 99.4098 69.2191Z" fill="#204977"/>
<path d="M107.95 85.9726C108.254 85.8147 108.453 85.5715 108.546 85.2437C108.638 84.9159 108.611 84.5867 108.461 84.2549C108.328 83.9637 107.799 83.0329 106.87 81.4624C105.941 79.8913 105.065 78.3601 104.244 76.8696L103.608 77.1988C104.175 78.8219 104.744 80.5103 105.318 82.266C105.89 84.0217 106.243 85.0445 106.374 85.3363C106.526 85.6728 106.752 85.9033 107.049 86.0253C107.344 86.1479 107.646 86.1299 107.95 85.9726Z" fill="#204977"/>
<path d="M103.942 63.5597C103.604 63.5331 103.319 63.6377 103.085 63.8722C102.852 64.1061 102.723 64.4066 102.697 64.7744C102.675 65.0969 102.699 66.1863 102.77 68.0446C102.84 69.9022 102.883 71.6959 102.898 73.4263L103.602 73.4816C103.869 71.7732 104.166 70.0055 104.49 68.1778C104.814 66.3515 104.987 65.2768 105.009 64.9543C105.035 64.5812 104.948 64.2613 104.748 63.9968C104.548 63.731 104.279 63.5857 103.942 63.5597Z" fill="#204977"/>
<path d="M101.79 82.5033C101.465 84.3303 101.293 85.4044 101.27 85.7269C101.245 86.1 101.333 86.4205 101.532 86.6844C101.732 86.9489 102 87.0955 102.338 87.1221C102.675 87.1481 102.96 87.0442 103.194 86.8096C103.428 86.5758 103.557 86.2753 103.583 85.9075C103.604 85.5856 103.58 84.4956 103.511 82.6379C103.44 80.7796 103.397 78.9866 103.382 77.2556L102.677 77.2009C102.41 78.908 102.114 80.6757 101.79 82.5033Z" fill="#204977"/>
<path d="M109.34 65.5666C109.06 65.364 108.764 65.3014 108.452 65.3787C108.14 65.4567 107.887 65.6479 107.694 65.9524C107.524 66.2189 107.036 67.1757 106.229 68.8228C105.422 70.4692 104.62 72.0464 103.824 73.5529L104.409 73.9773C105.439 72.6414 106.521 71.2688 107.655 69.8596C108.79 68.451 109.442 67.6128 109.611 67.3456C109.808 67.0358 109.882 66.712 109.832 66.3761C109.784 66.0403 109.618 65.7705 109.34 65.5666Z" fill="#204977"/>
<path d="M98.6238 80.8209C97.4893 82.2301 96.8374 83.0683 96.668 83.3348C96.4713 83.6446 96.3972 83.9678 96.4464 84.3043C96.4962 84.6414 96.6606 84.9106 96.9401 85.1145C97.2197 85.3177 97.5155 85.3797 97.8274 85.3017C98.1394 85.2244 98.3922 85.0332 98.5852 84.7287C98.7546 84.4615 99.2434 83.5047 100.05 81.8576C100.857 80.2112 101.659 78.6347 102.454 77.1276L101.87 76.7031C100.841 78.0391 99.7577 79.4123 98.6238 80.8209Z" fill="#204977"/>
<path d="M112.395 69.5556C112.088 69.457 111.779 69.4863 111.471 69.6475C111.198 69.7874 110.329 70.3551 108.86 71.3492C107.392 72.3434 105.961 73.2802 104.568 74.1597L104.877 74.84C106.393 74.2343 107.971 73.6247 109.612 73.011C111.254 72.398 112.21 72.0209 112.481 71.8796C112.796 71.717 113.011 71.4765 113.125 71.1587C113.24 70.8409 113.223 70.519 113.076 70.1939C112.928 69.8674 112.701 69.6555 112.395 69.5556Z" fill="#204977"/>
<path d="M96.6675 77.6705C95.0268 78.2835 94.071 78.6599 93.7989 78.8012C93.4838 78.9644 93.2696 79.2043 93.1551 79.5228C93.0405 79.84 93.0567 80.1618 93.2043 80.4869C93.3512 80.8127 93.5785 81.0253 93.8855 81.1246C94.1924 81.2239 94.5 81.1939 94.8095 81.0333C95.0816 80.8927 95.9515 80.3257 97.4197 79.3309C98.8886 78.3368 100.319 77.4006 101.712 76.5211L101.404 75.8408C99.8867 76.4472 98.3089 77.0568 96.6675 77.6705Z" fill="#204977"/>
<path d="M113.741 77.0616C113.988 76.8477 114.125 76.5599 114.148 76.1987C114.174 75.8383 114.077 75.5331 113.857 75.2826C113.638 75.0327 113.357 74.8941 113.014 74.8668C112.714 74.8428 111.694 74.8688 109.959 74.9441C108.222 75.0194 106.546 75.0654 104.928 75.0813L104.877 75.8356C106.473 76.1214 108.125 76.4386 109.833 76.7857C111.54 77.1329 112.545 77.3174 112.846 77.3414C113.195 77.3681 113.493 77.2755 113.741 77.0616Z" fill="#204977"/>
<path d="M93.2652 75.8135C93.566 75.8368 94.5847 75.8115 96.3213 75.7356C98.0573 75.6616 99.7335 75.6156 101.351 75.599L101.402 74.8454C99.8057 74.5589 98.1538 74.2424 96.4458 73.8952C94.7391 73.5481 93.7347 73.3622 93.434 73.3395C93.0847 73.3116 92.7858 73.4055 92.5386 73.6187C92.2914 73.8326 92.1557 74.1204 92.1307 74.4809C92.1058 74.8414 92.2036 75.1472 92.4228 75.3977C92.6413 75.6483 92.9221 75.7869 93.2652 75.8135Z" fill="#204977"/>
<path d="M111.517 82.5024C111.831 82.4497 112.083 82.2738 112.273 81.9747C112.463 81.6755 112.521 81.3583 112.449 81.0252C112.377 80.6907 112.197 80.4209 111.913 80.213C111.663 80.0324 110.769 79.5087 109.23 78.6452C107.691 77.781 106.218 76.9241 104.81 76.0732L104.413 76.6989C105.662 77.8003 106.944 78.959 108.261 80.173C109.577 81.3863 110.361 82.0846 110.611 82.2658C110.9 82.4764 111.202 82.555 111.517 82.5024Z" fill="#204977"/>
<path d="M94.3669 70.4672C94.6166 70.6484 95.5114 71.1715 97.0494 72.035C98.588 72.8992 100.062 73.7561 101.47 74.6069L101.867 73.9813C100.618 72.8792 99.3352 71.7212 98.0183 70.5072C96.7019 69.2932 95.9186 68.5956 95.6689 68.4143C95.3794 68.2038 95.0774 68.1245 94.763 68.1771C94.4491 68.2298 94.1963 68.4057 94.0064 68.7048C93.8165 69.0047 93.758 69.3212 93.8308 69.6543C93.9037 69.9901 94.0824 70.26 94.3669 70.4672Z" fill="#204977"/>
<path d="M72.2241 41.8824C60.6674 54.2769 89.2527 54.2429 77.6687 41.8744C89.2527 54.2429 89.2197 23.6531 77.6625 36.0489C89.2197 23.6537 60.6338 23.6891 72.2179 36.0556C60.6338 23.6897 60.6674 54.2775 72.2241 41.8824ZM74.9408 36.7805C76.0678 36.7792 76.9831 37.7566 76.985 38.9626C76.9862 40.17 76.0728 41.1488 74.9458 41.1501C73.8175 41.1514 72.9028 40.1753 72.9009 38.968C72.8997 37.762 73.8125 36.7818 74.9408 36.7805Z" fill="#204977"/>
<path d="M21.6801 43.7672C12.7554 53.3386 34.8302 53.3126 25.885 43.7606C34.8308 53.312 34.8052 29.6897 25.8806 39.2624C34.8052 29.6903 12.7305 29.7176 21.6764 39.2677C12.7299 29.7176 12.7554 53.3386 21.6801 43.7672ZM23.7785 39.8267C24.649 39.8261 25.3557 40.5803 25.3569 41.5118C25.3582 42.4446 24.6527 43.2009 23.7822 43.2022C22.9111 43.2029 22.2044 42.4486 22.2031 41.5165C22.2025 40.585 22.9074 39.8281 23.7785 39.8267Z" fill="#204977"/>
<path d="M67.9221 75.5549C56.1705 80.5249 76.4245 89.9197 71.7801 77.344C76.4245 89.9204 85.2041 68.2456 73.4526 73.2162C85.2041 68.2456 64.9501 58.8515 69.5945 71.4265C64.9501 58.8508 56.1711 80.5249 67.9221 75.5549ZM69.2409 73.7139C69.5871 72.8591 70.5155 72.466 71.3143 72.8371C72.1132 73.2076 72.4806 74.201 72.1338 75.0559C71.7876 75.9114 70.8592 76.3039 70.0603 75.9334C69.2608 75.5616 68.8947 74.5688 69.2409 73.7139Z" fill="#204977"/>
<path d="M30.9035 47.7763C30.5897 47.6251 30.2217 47.7736 30.0798 48.1095C29.9378 48.4453 30.0785 48.8391 30.3923 48.991C38.7529 53.0314 43.0486 59.1594 45.2865 64.2952C46.4035 66.8618 47.0007 69.1779 47.3157 70.8469C47.6321 72.516 47.6626 73.5055 47.6669 73.5068C47.6725 73.6481 47.7267 73.77 47.8002 73.8739C43.4864 87.663 42.8431 102.407 42.8245 110.277C42.8245 113.623 42.9459 115.734 42.9633 116.013C40.1159 116.115 34.2466 116.915 34.2466 119.999H52.9266C52.9266 116.911 47.0436 116.113 44.1999 116.013C44.2006 115.993 44.208 115.976 44.2068 115.956V115.955C44.2068 115.949 44.0698 113.829 44.0698 110.277C44.0592 105.663 44.3039 98.679 45.373 90.9465C45.3886 90.8972 45.4179 90.8106 45.4733 90.6687C46.1034 89.0616 49.4359 81.9655 62.1576 78.1203C62.4888 78.0203 62.68 77.6519 62.5872 77.2994C62.4944 76.9449 62.1495 76.739 61.8201 76.8383C52.6595 79.5895 48.1096 84.0843 45.9509 87.1879C48.4932 72.2442 54.3064 55.5427 67.2734 47.8549C67.5729 47.675 67.6812 47.2706 67.5131 46.9488C67.3456 46.6283 66.9677 46.5123 66.6663 46.6922C57.7734 52.0406 52.1763 61.2662 48.6601 71.274C47.8537 66.3641 44.5125 54.3554 30.9035 47.7763Z" fill="#204977"/>
<path d="M39.9607 78.0851C41.7614 78.866 45.5703 79.8375 45.5703 79.8375C45.5703 79.8375 44.663 75.7617 43.932 73.8341C42.4096 69.8143 38.0784 67.7475 36.1755 69.7837C34.2726 71.8206 36.2041 76.4553 39.9607 78.0851Z" fill="#204977"/>
<path d="M34.998 60.7493C36.6985 59.7426 39.8 57.186 39.8 57.186C39.8 57.186 36.2682 55.377 34.4083 54.772C30.5303 53.5093 26.3043 55.8121 26.5864 58.6752C26.8685 61.5402 31.4513 62.8489 34.998 60.7493Z" fill="#204977"/>
<path d="M42.2922 54.8119C42.2922 54.8119 44.1483 51.1226 44.8021 49.1637C46.1652 45.0793 44.2175 40.4519 41.5313 40.6171C38.8445 40.7817 37.4043 45.6177 39.195 49.5089C40.0531 51.3745 42.2922 54.8119 42.2922 54.8119Z" fill="#204977"/>
<path d="M54.9528 54.8119C54.9528 54.8119 56.809 51.1226 57.4628 49.1637C58.8264 45.0793 56.8781 40.4519 54.1919 40.6171C51.5051 40.7817 50.0649 45.6177 51.8557 49.5089C52.7143 51.3745 54.9528 54.8119 54.9528 54.8119Z" fill="#204977"/>
<path d="M53.8101 74.603C54.3692 75.819 55.8287 78.0591 55.8287 78.0591C55.8287 78.0591 57.0386 75.6551 57.4645 74.3785C58.353 71.7159 57.0834 68.7009 55.3325 68.8082C53.5815 68.9155 52.6432 72.0671 53.8101 74.603Z" fill="#204977"/>
<path d="M56.5566 81.2315C56.5566 81.2315 57.7129 83.6655 58.4508 84.7675C59.9894 87.0663 63.028 87.6686 63.9433 86.0675C64.8586 84.4664 62.9732 81.8451 60.3611 81.426C59.1089 81.2248 56.5566 81.2315 56.5566 81.2315Z" fill="#204977"/>
<path d="M71.9969 58.775C72.1489 55.8999 67.8226 53.8197 64.0063 55.2822C62.1769 55.9838 58.7317 57.9741 58.7317 57.9741C58.7317 57.9741 61.9465 60.3661 63.6906 61.2836C67.3288 63.1965 71.8456 61.6501 71.9969 58.775Z" fill="#204977"/>
<path d="M63.6088 97.9375C63.8498 99.0988 64.6586 101.334 64.6586 101.334C64.6586 101.334 66.1574 99.5533 66.7682 98.5598C68.0434 96.4876 67.5465 93.6339 66.0335 93.3354C64.5198 93.0382 63.1069 95.5162 63.6088 97.9375Z" fill="#204977"/>
<path d="M81.9943 95.1164C81.4694 93.5673 78.7571 93.5153 77.0578 95.2024C76.2434 96.0119 74.8499 97.8883 74.8499 97.8883C74.8499 97.8883 77.0429 98.3726 78.1531 98.4346C80.4682 98.5652 82.5186 96.6649 81.9943 95.1164Z" fill="#204977"/>
<path d="M72.8567 101.58C72.8567 101.58 74.2091 103.49 75.0061 104.319C76.6686 106.049 79.381 106.064 79.9389 104.529C80.4968 102.993 78.4881 101.043 76.1711 101.115C75.0603 101.15 72.8567 101.58 72.8567 101.58Z" fill="#204977"/>
<path d="M70.5249 94.8572C70.6862 96.0346 71.3406 98.3266 71.3406 98.3266C71.3406 98.3266 72.957 96.6682 73.6345 95.7254C75.0479 93.7585 74.7478 90.8741 73.259 90.4583C71.769 90.0425 70.1899 92.4026 70.5249 94.8572Z" fill="#204977"/>
<path d="M53.4595 97.6522C53.0124 99.2293 55.1544 101.01 57.4595 100.749C58.5653 100.623 60.7309 100.014 60.7309 100.014C60.7309 100.014 59.2465 98.2199 58.3928 97.459C56.6126 95.8699 53.9072 96.0771 53.4595 97.6522Z" fill="#204977"/>
<path d="M62.564 103.639C62.564 103.639 60.356 103.24 59.2446 103.221C56.9258 103.181 54.942 105.161 55.5185 106.687C56.0958 108.214 58.8081 108.161 60.4488 106.409C61.2359 105.568 62.564 103.639 62.564 103.639Z" fill="#204977"/>
<path d="M17.025 14.7213C18.0188 15.2883 18.5966 14.5014 19.8569 15.6301C20.2473 15.9812 22.035 18.0315 23.5586 16.497C23.5586 16.497 22.2959 18.9569 24.426 20.2622C26.558 21.5688 29.0169 21.0718 29.6253 19.7945C30.2342 18.5165 29.2305 15.1923 28.9073 14.5007C28.9073 14.5007 30.1583 16.0419 30.4447 15.7667L30.492 15.7207C30.7778 15.4455 29.4789 13.9504 29.4789 13.9504C30.0885 14.3675 33.0717 15.7874 34.322 15.2763C35.5736 14.7646 36.2971 12.202 35.3108 9.79532C34.3239 7.38931 31.903 8.47071 31.903 8.47071C33.4914 7.01352 31.7753 4.89335 31.4914 4.4396C30.5767 2.97974 31.3687 2.4467 30.9478 1.32998C30.1471 -0.700238 29.2224 0.197935 29.2224 0.197935C25.3096 4.23904 27.4459 11.4777 27.4459 11.4777C27.4459 11.4777 27.1863 11.1579 26.9223 11.2059C26.6882 10.6295 25.9092 8.56599 26.2579 7.40197C26.2261 7.13278 25.9939 7.24206 25.9789 7.30136C25.9789 7.30136 25.5798 8.75456 26.9055 11.2085C26.8538 11.2212 26.8015 11.2439 26.751 11.2925L26.7268 11.3151C26.6763 11.3631 26.6502 11.4164 26.6334 11.4704C24.4945 9.79865 23.1016 10.0685 23.1016 10.0685C23.0437 10.0778 22.9198 10.3137 23.1651 10.3757C24.284 10.1291 26.1197 11.1779 26.629 11.4871C26.5568 11.7636 26.8258 12.0734 26.8258 12.0734C26.8258 12.0734 20.3276 9.03041 16.157 12.7644C16.1576 12.7657 15.2224 13.6532 17.025 14.7213Z" fill="#204977"/>
<path d="M101.545 26.0509C102.699 26.7818 105.862 25.9209 106.528 25.6198C106.528 25.6198 105.011 26.8578 105.25 27.1816L105.29 27.2349C105.528 27.5574 107.004 26.2654 107.004 26.2654C106.577 26.8904 105.064 29.986 105.461 31.354C105.859 32.7232 108.204 33.658 110.51 32.7565C112.816 31.8543 111.961 29.2011 111.961 29.2011C113.219 30.9902 115.306 29.2918 115.747 29.0172C117.166 28.1324 117.613 29.0126 118.682 28.6335C120.625 27.9072 119.846 26.8624 119.846 26.8624C116.325 22.4282 109.439 24.2512 109.439 24.2512C109.439 24.2512 109.754 23.9947 109.725 23.7095C110.278 23.4956 112.252 22.794 113.315 23.2411C113.568 23.2244 113.482 22.9692 113.427 22.9493C113.427 22.9493 112.097 22.4309 109.724 23.6908C109.715 23.6342 109.698 23.5769 109.656 23.5209L109.637 23.4936C109.595 23.437 109.547 23.4057 109.498 23.3837C111.193 21.2049 111.029 19.701 111.029 19.701C111.024 19.6384 110.811 19.4912 110.738 19.749C110.897 20.9597 109.803 22.8533 109.482 23.3783C109.23 23.2837 108.923 23.5509 108.923 23.5509C108.923 23.5509 112.172 16.804 108.955 12.1139C108.955 12.1139 108.186 11.0585 107.076 12.9154C106.484 13.9409 107.182 14.6078 106.049 15.8825C105.697 16.2776 103.671 18.0559 105.006 19.781C105.006 19.781 102.792 18.2765 101.44 20.4686C100.085 22.6627 100.393 25.3206 101.545 26.0509Z" fill="#204977"/>
</svg>
