<svg width="36" height="36" viewBox="0 0 36 36" fill="none" xmlns="http://www.w3.org/2000/svg">
<path d="M27.2404 6.35938C26.0904 6.35938 25.1504 7.29937 25.1504 8.44937C25.1504 9.59937 26.0904 10.5394 27.2404 10.5394C28.3904 10.5394 29.3304 9.59937 29.3304 8.44937C29.3304 7.29937 28.4004 6.35938 27.2404 6.35938Z" fill="url(#paint0_linear_1017_1885)"/>
<path d="M17.9604 9.03906C13.1204 9.03906 9.19043 12.9791 9.19043 17.8091C9.19043 22.6491 13.1304 26.5791 17.9604 26.5791C22.8004 26.5791 26.7304 22.6391 26.7304 17.8091C26.7304 12.9791 22.8004 9.03906 17.9604 9.03906ZM17.9604 23.4291C14.8604 23.4291 12.3404 20.9091 12.3404 17.8091C12.3404 14.7091 14.8604 12.1891 17.9604 12.1891C21.0604 12.1891 23.5804 14.7091 23.5804 17.8091C23.5804 20.9091 21.0604 23.4291 17.9604 23.4291Z" fill="url(#paint1_linear_1017_1885)"/>
<path d="M24.92 35.63H10.7C4.8 35.63 0 30.83 0 24.93V10.7C0 4.8 4.8 0 10.7 0H24.92C30.82 0 35.62 4.8 35.62 10.7V24.93C35.63 30.83 30.82 35.63 24.92 35.63ZM10.7 3.35C6.65 3.35 3.35 6.65 3.35 10.7V24.93C3.35 28.98 6.65 32.28 10.7 32.28H24.92C28.97 32.28 32.27 28.98 32.27 24.93V10.7C32.27 6.65 28.97 3.35 24.92 3.35H10.7Z" fill="url(#paint2_linear_1017_1885)"/>
<defs>
<linearGradient id="paint0_linear_1017_1885" x1="10.9241" y1="-7.17082" x2="43.234" y2="23.7552" gradientUnits="userSpaceOnUse">
<stop offset="0.0011048" stop-color="#FBE18A"/>
<stop offset="0.2094" stop-color="#FCBB45"/>
<stop offset="0.3765" stop-color="#F75274"/>
<stop offset="0.5238" stop-color="#D53692"/>
<stop offset="0.7394" stop-color="#8F39CE"/>
<stop offset="1" stop-color="#5B4FE9"/>
</linearGradient>
<linearGradient id="paint1_linear_1017_1885" x1="1.80733" y1="2.35366" x2="34.1172" y2="33.2797" gradientUnits="userSpaceOnUse">
<stop offset="0.0011048" stop-color="#FBE18A"/>
<stop offset="0.2094" stop-color="#FCBB45"/>
<stop offset="0.3765" stop-color="#F75274"/>
<stop offset="0.5238" stop-color="#D53692"/>
<stop offset="0.7394" stop-color="#8F39CE"/>
<stop offset="1" stop-color="#5B4FE9"/>
</linearGradient>
<linearGradient id="paint2_linear_1017_1885" x1="1.7369" y1="2.4277" x2="34.0466" y2="33.3535" gradientUnits="userSpaceOnUse">
<stop offset="0.0011048" stop-color="#FBE18A"/>
<stop offset="0.2094" stop-color="#FCBB45"/>
<stop offset="0.3765" stop-color="#F75274"/>
<stop offset="0.5238" stop-color="#D53692"/>
<stop offset="0.7394" stop-color="#8F39CE"/>
<stop offset="1" stop-color="#5B4FE9"/>
</linearGradient>
</defs>
</svg>
