<svg xmlns="http://www.w3.org/2000/svg" xmlns:xlink="http://www.w3.org/1999/xlink" version="1.1" x="0px" y="0px" viewBox="0 0 50 62.5" style="enable-background:new 0 0 50 50;" xml:space="preserve"><g><path d="M24.2,33.3c-1.9-1.1-3.8-5.2-0.9-8.8c3.1-3.9,2-5.9,1.9-6.1c0.8,0.5,1.8,3,1,4.9c-0.8,1.9,0.1,3.3,0.1,3.3   c-0.2-1.7,0.8-1.8,0.8-1.8s-0.6,0.9,0.5,2.4c0,0,0,0,0,0c1.1,1.7,0.8,3.9-0.5,5.3c-0.3,0.3-0.6,0.6-0.9,0.8   c8.8-0.8,8.8-9.4,8.8-9.5c-0.8,2-1.9,2-1.9,2c4.4-7.4-0.8-13.2-0.8-13.2c0.3,5-1.8,5-1.8,5c1.3-6.8-3.9-12.4-3.9-12.4   c1.2,2.1-0.2,2.7-0.2,2.7C23.9,3.1,19,1.1,18.5,1c5.4,5.8,0.5,10.5,2,13.7c-0.7-1.1-2.7-1.8-2.9-1.8c0.2,0.3,3,3.2,0.6,5.7   c-2.5,2.6-1.1,5.1-1.1,5.1c-1.7-1.1-2-3.5-2-3.5C14.6,28.5,18.9,32.8,24.2,33.3z"/><path d="M6.2,35.2l6.1,2.4l9.5-2.8l-14-4.2c-1.2-0.4-2.6,0.3-3,1.5C4.4,33.4,5,34.8,6.2,35.2z"/><path d="M42.4,41.1l-4.6-1.4l-10.3,4.1l12.3,4.9c2.1,0.9,4.6-0.2,5.3-2.4C45.9,44.1,44.7,41.7,42.4,41.1z"/><path d="M45.2,32.2c-0.4-1.2-1.7-1.9-3-1.5L7.6,41.1c-2.2,0.7-3.4,3-2.7,5.2c0.8,2.2,3.2,3.3,5.3,2.4l33.6-13.5   C45,34.8,45.6,33.4,45.2,32.2z"/></g><text x="0" y="65" fill="#000000" font-size="5px" font-weight="bold" font-family="'Helvetica Neue', Helvetica, Arial-Unicode, Arial, Sans-serif">Created by Vectors Market</text><text x="0" y="70" fill="#000000" font-size="5px" font-weight="bold" font-family="'Helvetica Neue', Helvetica, Arial-Unicode, Arial, Sans-serif">from the Noun Project</text></svg>