<svg xmlns="http://www.w3.org/2000/svg" xmlns:xlink="http://www.w3.org/1999/xlink" version="1.1" x="0px" y="0px" viewBox="0 0 192.721 225.1225" style="enable-background:new 0 0 192.721 180.098;" xml:space="preserve"><g><circle cx="19" cy="124.662" r="4.071"/><ellipse cx="19" cy="112.109" rx="2.714" ry="6.447"/><ellipse cx="19" cy="137.216" rx="2.714" ry="6.447"/><ellipse transform="matrix(0.7072 -0.7071 0.7071 0.7072 -73.7034 53.6176)" cx="27.877" cy="115.785" rx="6.446" ry="2.714"/><ellipse transform="matrix(0.7071 -0.7071 0.7071 0.7071 -91.4588 46.2684)" cx="10.124" cy="133.539" rx="6.446" ry="2.714"/><ellipse cx="31.554" cy="124.662" rx="6.446" ry="2.714"/><ellipse cx="6.446" cy="124.662" rx="6.446" ry="2.714"/><ellipse transform="matrix(0.7071 -0.7071 0.7071 0.7071 -86.2635 58.8276)" cx="27.877" cy="133.539" rx="2.714" ry="6.446"/><ellipse transform="matrix(0.7071 -0.7071 0.7071 0.7071 -78.9074 41.0711)" cx="10.124" cy="115.785" rx="2.714" ry="6.446"/><path d="M28.434,180.098c0.002,0,0.004-0.001,0.006-0.001H45c0-4.766-9.989-5.897-14.389-5.992   c0.623-3.465,0.886-6.811,0.885-9.962c-0.004-14.165-5.13-24.412-5.167-24.494c-0.247-0.493-0.848-0.693-1.341-0.446   c-0.495,0.246-0.695,0.846-0.446,1.341h-0.002c0.002,0.002,0.297,0.59,0.759,1.729c1.394,3.419,4.199,11.612,4.199,21.871   c-0.001,3.158-0.275,6.515-0.927,9.989C23.864,174.344,15,175.608,15,180.097h13.428C28.43,180.097,28.432,180.098,28.434,180.098z   "/><path d="M18.972,157.764c5.541,1.897,7.42,0.996,8.003-0.709c0.584-1.705-0.348-3.568-5.889-5.465   c-5.542-1.898-13.594-3.11-14.178-1.406C6.324,151.889,13.431,155.867,18.972,157.764z"/><path d="M34.667,155.949c1.683,0.644,3.579-0.22,5.671-5.691c2.094-5.471,3.593-13.476,1.909-14.119   c-1.683-0.645-5.911,6.316-8.004,11.787C32.149,153.396,32.983,155.305,34.667,155.949z"/><path d="M164.234,137.124c-4.811,2.212-10.838,6.439-10.156,7.919c0.681,1.48,7.812-0.347,12.623-2.56   c4.81-2.212,5.477-3.974,4.796-5.454C170.816,135.55,169.044,134.911,164.234,137.124z"/><path d="M147.993,143.233c1.411-0.642-0.298-7.435-2.384-12.02c-2.085-4.586-3.759-5.229-5.169-4.586   c-1.411,0.641-2.026,2.324,0.059,6.911C142.585,138.122,146.582,143.874,147.993,143.233z"/><path d="M111.115,174.109c-0.191-2.194-0.751-6.124-2.398-10.542c0.023-0.058,0.055-0.111,0.068-0.174   c0-0.002,0.11-0.558,0.422-1.53c0.943-2.93,3.672-9.244,10.081-12.793c0.482-0.268,0.658-0.876,0.388-1.358   c-0.268-0.484-0.877-0.658-1.358-0.39c-6.686,3.742-9.645,9.983-10.818,13.352c-1.615-3.434-3.93-6.986-7.263-10.124   c-0.404-0.377-1.036-0.357-1.414,0.047c-0.378,0.404-0.357,1.036,0.047,1.414c5.151,4.829,7.749,10.816,9.051,15.615   c0.651,2.397,0.975,4.494,1.138,5.983c0.02,0.182,0.037,0.353,0.052,0.515c-4.648,0.184-13.778,1.418-13.778,5.974h30   C125.333,175.393,115.599,174.23,111.115,174.109z"/><path d="M134.689,180.097h30c0-4.371-8.406-5.685-13.193-5.946c-0.131-0.604-0.271-1.293-0.411-2.062   c-0.564-3.078-1.126-7.373-1.126-12.216c-0.002-9.072,1.974-20.007,9.482-28.601c0.363-0.417,0.32-1.048-0.094-1.412   c-0.416-0.363-1.048-0.32-1.41,0.097c-7.96,9.121-9.977,20.577-9.979,29.916c0.001,5.948,0.819,11.047,1.484,14.226   C145.259,174.139,134.689,175.195,134.689,180.097z"/><path d="M159.652,103.885c1.492,2.358,2.898,4.656,4.218,6.893l1.021-0.494c-0.909-2.436-1.824-4.97-2.745-7.605   c-0.919-2.636-1.485-4.171-1.696-4.607c-0.245-0.506-0.607-0.852-1.083-1.035c-0.477-0.184-0.959-0.158-1.448,0.078   c-0.489,0.237-0.807,0.602-0.957,1.095c-0.15,0.491-0.104,0.987,0.136,1.484C157.309,100.129,158.161,101.527,159.652,103.885z"/><path d="M173.368,129.029c0.488-0.237,0.807-0.602,0.957-1.094c0.148-0.492,0.104-0.986-0.137-1.484   c-0.213-0.437-1.063-1.834-2.555-4.191c-1.492-2.358-2.898-4.656-4.217-6.893l-1.021,0.494c0.91,2.436,1.824,4.97,2.745,7.605   c0.92,2.635,1.486,4.17,1.697,4.608c0.244,0.505,0.606,0.851,1.083,1.034C172.395,129.292,172.879,129.265,173.368,129.029z"/><path d="M166.931,95.391c-0.542-0.04-1,0.117-1.376,0.469c-0.374,0.351-0.582,0.802-0.623,1.354   c-0.035,0.484,0.003,2.119,0.116,4.908c0.114,2.788,0.182,5.48,0.206,8.077l1.131,0.083c0.429-2.564,0.905-5.217,1.426-7.96   c0.521-2.741,0.799-4.354,0.834-4.838c0.041-0.56-0.099-1.04-0.42-1.437C167.904,95.648,167.473,95.43,166.931,95.391z"/><path d="M163.475,123.822c-0.522,2.742-0.799,4.354-0.835,4.838c-0.04,0.56,0.1,1.041,0.42,1.437   c0.321,0.397,0.752,0.617,1.294,0.657c0.542,0.039,1-0.117,1.376-0.469c0.375-0.351,0.583-0.802,0.624-1.354   c0.034-0.483-0.004-2.119-0.116-4.907c-0.113-2.789-0.182-5.48-0.207-8.078l-1.131-0.082   C164.47,118.426,163.995,121.079,163.475,123.822z"/><path d="M175.6,98.403c-0.449-0.304-0.925-0.398-1.426-0.282c-0.502,0.117-0.907,0.404-1.217,0.861   c-0.273,0.4-1.058,1.836-2.354,4.308c-1.296,2.471-2.584,4.838-3.861,7.099l0.939,0.637c1.654-2.005,3.392-4.065,5.213-6.18   c1.822-2.114,2.869-3.372,3.141-3.773c0.316-0.465,0.435-0.951,0.355-1.455C176.313,99.114,176.047,98.709,175.6,98.403z"/><path d="M158.39,121.297c-1.822,2.115-2.869,3.373-3.141,3.773c-0.316,0.465-0.435,0.95-0.356,1.455   c0.08,0.506,0.344,0.91,0.793,1.216c0.449,0.305,0.924,0.398,1.425,0.281c0.501-0.116,0.907-0.403,1.217-0.86   c0.272-0.401,1.057-1.837,2.353-4.309c1.295-2.471,2.583-4.837,3.86-7.099l-0.938-0.637   C161.95,117.122,160.211,119.183,158.39,121.297z"/><path d="M180.506,104.39c-0.492-0.148-0.988-0.104-1.484,0.138c-0.438,0.21-1.834,1.062-4.192,2.554   c-2.358,1.492-4.656,2.898-6.893,4.218l0.495,1.021c2.435-0.909,4.97-1.824,7.605-2.745c2.637-0.92,4.172-1.486,4.607-1.698   c0.506-0.244,0.852-0.605,1.035-1.082c0.184-0.477,0.158-0.96-0.078-1.448C181.363,104.858,180.998,104.54,180.506,104.39z"/><path d="M155.248,116.569c-2.635,0.92-4.17,1.485-4.607,1.697c-0.506,0.245-0.85,0.605-1.034,1.083   c-0.184,0.476-0.158,0.959,0.079,1.447c0.236,0.489,0.601,0.808,1.094,0.957c0.493,0.149,0.987,0.104,1.484-0.137   c0.437-0.211,1.834-1.062,4.192-2.555c2.359-1.492,4.656-2.897,6.894-4.217l-0.495-1.021   C160.418,114.733,157.884,115.648,155.248,116.569z"/><path d="M182.668,115.655c0.396-0.321,0.617-0.753,0.654-1.295c0.041-0.541-0.115-0.999-0.467-1.375   c-0.352-0.375-0.803-0.583-1.355-0.624c-0.482-0.036-2.119,0.003-4.906,0.116c-2.789,0.113-5.481,0.182-8.079,0.206l-0.083,1.132   c2.563,0.429,5.217,0.905,7.96,1.426c2.741,0.521,4.355,0.798,4.838,0.834C181.791,116.115,182.27,115.976,182.668,115.655z"/><path d="M149.784,113.782c0.483,0.035,2.119-0.003,4.908-0.117c2.788-0.111,5.48-0.18,8.078-0.205l0.082-1.131   c-2.564-0.43-5.217-0.905-7.96-1.426c-2.741-0.521-4.354-0.8-4.837-0.834c-0.561-0.042-1.041,0.099-1.438,0.419   c-0.397,0.321-0.615,0.753-0.655,1.294c-0.04,0.541,0.117,1,0.469,1.376C148.782,113.534,149.233,113.742,149.784,113.782z"/><path d="M179.096,123.821c0.505-0.079,0.91-0.343,1.215-0.792c0.305-0.449,0.398-0.925,0.282-1.425   c-0.116-0.502-0.404-0.907-0.861-1.219c-0.401-0.271-1.837-1.057-4.308-2.353c-2.472-1.297-4.838-2.583-7.099-3.86l-0.637,0.939   c2.005,1.653,4.065,3.392,6.179,5.214c2.114,1.821,3.373,2.869,3.774,3.141C178.106,123.782,178.591,123.9,179.096,123.821z"/><path d="M151.553,105.758c0.401,0.272,1.838,1.057,4.308,2.353c2.471,1.297,4.838,2.583,7.1,3.86l0.637-0.939   c-2.006-1.654-4.066-3.392-6.181-5.214c-2.114-1.822-3.372-2.869-3.773-3.141c-0.465-0.316-0.95-0.435-1.455-0.356   c-0.504,0.079-0.91,0.343-1.215,0.792c-0.305,0.45-0.399,0.925-0.282,1.425C150.809,105.042,151.096,105.447,151.553,105.758z"/><path d="M115.992,62.857c-18.56,18.602,27.348,18.551,8.744-0.012c18.604,18.563,18.551-27.347-0.01-8.743   c18.561-18.603-27.348-18.55-8.744,0.01C97.378,35.553,97.432,81.46,115.992,62.857z M120.355,55.2   c1.81-0.002,3.28,1.465,3.283,3.275c0.002,1.812-1.465,3.281-3.275,3.283c-1.812,0.002-3.281-1.463-3.284-3.275   C117.077,56.673,118.543,55.202,120.355,55.2z"/><path d="M34.818,65.686c-14.333,14.365,21.119,14.326,6.753-0.01c14.367,14.335,14.326-21.118-0.007-6.751   c14.333-14.366-21.119-14.325-6.752,0.008C20.444,44.6,20.485,80.051,34.818,65.686z M38.188,59.772   c1.398-0.001,2.533,1.131,2.535,2.529c0.002,1.4-1.131,2.535-2.529,2.537c-1.399,0.001-2.534-1.131-2.536-2.53   C35.657,60.91,36.789,59.774,38.188,59.772z"/><path d="M109.083,113.394c-18.873,7.459,13.655,21.559,6.196,2.685c7.459,18.875,21.559-13.655,2.686-6.195   c18.873-7.46-13.655-21.559-6.196-2.686C104.31,88.324,90.211,120.853,109.083,113.394z M111.201,110.631   c0.556-1.283,2.047-1.873,3.33-1.316c1.283,0.556,1.873,2.047,1.316,3.33c-0.556,1.284-2.047,1.873-3.33,1.317   C111.233,113.404,110.645,111.914,111.201,110.631z"/><path d="M49.631,71.703c-0.504-0.227-1.095-0.004-1.323,0.5c-0.228,0.504-0.002,1.095,0.502,1.323   c13.427,6.064,20.326,15.261,23.92,22.969c1.794,3.852,2.753,7.328,3.259,9.833c0.508,2.505,0.557,3.99,0.564,3.992   c0.009,0.212,0.096,0.395,0.214,0.551c-6.928,20.695-7.961,42.823-7.991,54.634c0,5.023,0.195,8.19,0.223,8.61   C64.426,174.268,55,175.468,55,180.097h30c0-4.635-9.448-5.832-14.015-5.982c0.001-0.03,0.013-0.056,0.011-0.086v-0.002   c0-0.008-0.22-3.191-0.22-8.522c-0.017-6.924,0.376-17.406,2.093-29.011c0.025-0.074,0.072-0.204,0.161-0.417   c1.012-2.412,6.364-13.062,26.795-18.833c0.532-0.15,0.839-0.703,0.69-1.232c-0.149-0.532-0.703-0.841-1.232-0.692   c-14.712,4.129-22.019,10.875-25.486,15.533c4.083-22.428,13.419-47.494,34.244-59.032c0.481-0.27,0.655-0.877,0.385-1.36   c-0.269-0.481-0.876-0.655-1.36-0.385c-14.282,8.027-23.271,21.873-28.918,36.893C76.853,99.6,71.487,81.577,49.631,71.703z"/><path d="M64.177,117.191c2.892,1.172,9.009,2.63,9.009,2.63s-1.457-6.117-2.631-9.01c-2.445-6.033-9.401-9.135-12.457-6.079   C55.042,107.789,58.144,114.745,64.177,117.191z"/><path d="M56.207,91.173c2.731-1.511,7.712-5.348,7.712-5.348s-5.672-2.715-8.659-3.623c-6.228-1.895-13.015,1.561-12.562,5.858   C43.151,92.36,50.511,94.324,56.207,91.173z"/><path d="M67.921,82.262c0,0,2.981-5.537,4.031-8.477c2.189-6.13-0.939-13.075-5.253-12.827c-4.315,0.247-6.628,7.505-3.752,13.345   C64.325,77.103,67.921,82.262,67.921,82.262z"/><path d="M88.254,82.262c0,0,2.981-5.537,4.031-8.477c2.19-6.13-0.939-13.075-5.253-12.827c-4.315,0.247-6.628,7.505-3.752,13.345   C84.659,77.103,88.254,82.262,88.254,82.262z"/><path d="M86.419,111.965c0.898,1.825,3.242,5.187,3.242,5.187s1.943-3.608,2.627-5.524c1.427-3.996-0.612-8.521-3.424-8.36   C86.052,103.429,84.545,108.159,86.419,111.965z"/><path d="M90.83,121.913c0,0,1.857,3.653,3.042,5.307c2.471,3.45,7.351,4.354,8.821,1.951c1.47-2.403-1.558-6.337-5.753-6.966   C94.929,121.903,90.83,121.913,90.83,121.913z"/><path d="M115.627,88.21c0.244-4.315-6.704-7.437-12.833-5.242c-2.938,1.053-8.471,4.04-8.471,4.04s5.163,3.59,7.964,4.967   C108.13,94.846,115.384,92.525,115.627,88.21z"/><path d="M102.156,146.986c0.387,1.743,1.686,5.097,1.686,5.097s2.407-2.672,3.388-4.163c2.048-3.11,1.25-7.393-1.18-7.841   C103.619,139.633,101.35,143.352,102.156,146.986z"/><path d="M131.683,142.752c-0.843-2.325-5.199-2.403-7.928,0.129c-1.308,1.215-3.546,4.031-3.546,4.031s3.522,0.727,5.305,0.82   C129.232,147.928,132.525,145.076,131.683,142.752z"/><path d="M117.008,152.453c0,0,2.172,2.866,3.452,4.111c2.67,2.596,7.026,2.618,7.922,0.315c0.896-2.305-2.33-5.232-6.051-5.124   C120.547,151.807,117.008,152.453,117.008,152.453z"/><path d="M113.263,142.363c0.259,1.767,1.31,5.207,1.31,5.207s2.596-2.489,3.684-3.904c2.27-2.952,1.788-7.281-0.603-7.905   C115.261,135.137,112.725,138.679,113.263,142.363z"/><path d="M85.856,146.558c-0.718,2.367,2.722,5.039,6.424,4.647c1.776-0.188,5.254-1.102,5.254-1.102s-2.384-2.693-3.755-3.835   C90.92,143.883,86.575,144.194,85.856,146.558z"/><path d="M100.478,155.543c0,0-3.546-0.599-5.331-0.627c-3.724-0.06-6.91,2.911-5.984,5.202c0.927,2.292,5.283,2.212,7.918-0.417   C98.345,158.439,100.478,155.543,100.478,155.543z"/><path d="M27.342,22.093c1.596,0.851,2.524-0.33,4.548,1.364c0.627,0.527,3.498,3.604,5.945,1.301c0,0-2.028,3.692,1.393,5.651   c3.424,1.961,7.373,1.215,8.35-0.702c0.978-1.918-0.634-6.907-1.153-7.945c0,0,2.009,2.313,2.469,1.9l0.076-0.069   c0.459-0.413-1.627-2.657-1.627-2.657c0.979,0.626,5.77,2.757,7.778,1.99c2.01-0.768,3.172-4.614,1.588-8.226   c-1.585-3.611-5.473-1.988-5.473-1.988c2.551-2.187-0.205-5.369-0.661-6.05c-1.469-2.191-0.197-2.991-0.873-4.667   c-1.286-3.047-2.771-1.699-2.771-1.699c-6.284,6.065-2.853,16.929-2.853,16.929s-0.417-0.48-0.841-0.408   c-0.376-0.865-1.627-3.962-1.067-5.709c-0.051-0.404-0.424-0.24-0.448-0.151c0,0-0.641,2.181,1.488,5.864   c-0.083,0.019-0.167,0.053-0.248,0.126l-0.039,0.034c-0.081,0.072-0.123,0.152-0.15,0.233c-3.435-2.509-5.672-2.104-5.672-2.104   c-0.093,0.014-0.292,0.368,0.102,0.461c1.797-0.37,4.745,1.204,5.563,1.668c-0.116,0.415,0.316,0.88,0.316,0.88   s-10.436-4.567-17.134,1.037C25.949,19.158,24.447,20.49,27.342,22.093z"/><path d="M163.082,39.097c1.853,1.097,6.933-0.195,8.002-0.647c0,0-2.436,1.858-2.053,2.344l0.064,0.08   c0.383,0.484,2.754-1.455,2.754-1.455c-0.687,0.938-3.117,5.584-2.479,7.637c0.639,2.055,4.405,3.458,8.109,2.105   c3.704-1.354,2.331-5.336,2.331-5.336c2.02,2.685,5.371,0.136,6.08-0.276c2.279-1.328,2.996-0.007,4.713-0.576   c3.121-1.09,1.869-2.658,1.869-2.658c-5.654-6.655-16.713-3.919-16.713-3.919s0.506-0.385,0.46-0.813   c0.887-0.321,4.057-1.374,5.765-0.703c0.406-0.025,0.268-0.408,0.18-0.438c0,0-2.136-0.778-5.947,1.113   c-0.014-0.085-0.042-0.171-0.109-0.255l-0.031-0.041c-0.067-0.085-0.144-0.132-0.224-0.165c2.723-3.27,2.46-5.527,2.46-5.527   c-0.009-0.094-0.35-0.315-0.467,0.072c0.254,1.817-1.503,4.659-2.018,5.447c-0.405-0.142-0.898,0.259-0.898,0.259   s5.219-10.126,0.051-17.165c0,0-1.234-1.584-3.017,1.203c-0.951,1.539,0.17,2.54-1.649,4.453c-0.566,0.593-3.819,3.262-1.675,5.851   c0,0-3.556-2.258-5.728,1.032C160.737,34.012,161.231,38.001,163.082,39.097z"/></g><text x="0" y="195.098" fill="#000000" font-size="5px" font-weight="bold" font-family="'Helvetica Neue', Helvetica, Arial-Unicode, Arial, Sans-serif">Created by Gan Khoon Lay</text><text x="0" y="200.098" fill="#000000" font-size="5px" font-weight="bold" font-family="'Helvetica Neue', Helvetica, Arial-Unicode, Arial, Sans-serif">from the Noun Project</text></svg>