<svg xmlns="http://www.w3.org/2000/svg" viewBox="0 0 88 110" x="0px" y="0px"><title>barbeque, bbq, grill, summer, party</title><g><path d="M29.91,65.03,21.08,86.38a.9873.9873,0,0,1-.92.62H15.84a1.01,1.01,0,0,1-.83-.44.9851.9851,0,0,1-.09-.94l9.86-23.85A22.1007,22.1007,0,0,0,29.91,65.03Zm23.31-3.26a21.2466,21.2466,0,0,1-5.13,3.27l8.83,21.34a.9873.9873,0,0,0,.92.62h4.32a1.01,1.01,0,0,0,.83-.44.9851.9851,0,0,0,.09-.94ZM29.19,72l-2.48,6H51.29l-2.48-6ZM58,39a1,1,0,1,0,1,1A1.0006,1.0006,0,0,0,58,39Zm6,1a6,6,0,1,1-6-6A6.0066,6.0066,0,0,1,64,40Zm-3,0a3,3,0,1,0-3,3A3.0033,3.0033,0,0,0,61,40ZM80.48,16.22A21.6764,21.6764,0,0,1,81,21a21.19,21.19,0,0,1-.54,4.79,5.0081,5.0081,0,0,0,.02-9.57ZM9,36H7a1,1,0,0,1,0-2H19v1a1,1,0,0,0,1,1h4a1,1,0,0,0,1-1V34h1.1843a2.982,2.982,0,0,0,5.6314,0H33v1a1,1,0,0,0,1,1h4a1,1,0,0,0,1-1V34h1.1843a2.982,2.982,0,0,0,5.6314,0H47v1a1,1,0,0,0,1,1h4a1,1,0,0,0,1-1V31a1,1,0,0,0-1-1H48a1,1,0,0,0-1,1v1H45.8157a2.982,2.982,0,0,0-5.6314,0H39V31a1,1,0,0,0-1-1H34a1,1,0,0,0-1,1v1H31.8157a2.982,2.982,0,0,0-5.6314,0H25V31a1,1,0,0,0-1-1H20a1,1,0,0,0-1,1v1H7a3,3,0,0,0,0,6H9a1,1,0,0,0,0-2Zm11,3a1.0029,1.0029,0,0,0-1,1v5a20.0005,20.0005,0,0,0,39.78,2.96A6.6779,6.6779,0,0,1,58,48a8.0106,8.0106,0,0,1-8-8,8.2619,8.2619,0,0,1,.06-1ZM59,1H58a1.0029,1.0029,0,0,0-1,1V32.06A8.2619,8.2619,0,0,1,58,32a8.0031,8.0031,0,0,1,7.99,7.74A20.1277,20.1277,0,0,0,79,21,20.0073,20.0073,0,0,0,59,1ZM36.95,24a1,1,0,0,0,2,0,2.51,2.51,0,0,1,.8159-1.8584,4.49,4.49,0,0,0-.0005-6.2871,2.52,2.52,0,0,1,0-3.7119A4.4362,4.4362,0,0,0,41.05,9a1,1,0,0,0-2,0,2.5044,2.5044,0,0,1-.8154,1.8555,4.4878,4.4878,0,0,0-.0005,6.2851,2.5228,2.5228,0,0,1,.0005,3.7149A4.4393,4.4393,0,0,0,36.95,24Zm-9,0a1,1,0,0,0,2,0,2.51,2.51,0,0,1,.8159-1.8584,4.49,4.49,0,0,0-.0005-6.2871,2.52,2.52,0,0,1,0-3.7119A4.4362,4.4362,0,0,0,32.05,9a1,1,0,0,0-2,0,2.5044,2.5044,0,0,1-.8154,1.8555,4.4878,4.4878,0,0,0-.0005,6.2851,2.5228,2.5228,0,0,1,.0005,3.7149A4.4393,4.4393,0,0,0,27.95,24Zm18,0a1,1,0,0,0,2,0,2.5094,2.5094,0,0,1,.8154-1.8584,4.49,4.49,0,0,0,0-6.2871,2.52,2.52,0,0,1,0-3.7119A4.4362,4.4362,0,0,0,50.05,9a1,1,0,0,0-2,0,2.5044,2.5044,0,0,1-.8154,1.8555,4.4871,4.4871,0,0,0,0,6.2851,2.5233,2.5233,0,0,1,0,3.7149A4.4393,4.4393,0,0,0,45.95,24Z"/></g><text x="0" y="103" fill="#000000" font-size="5px" font-weight="bold" font-family="'Helvetica Neue', Helvetica, Arial-Unicode, Arial, Sans-serif">Created by Kmg Design</text><text x="0" y="108" fill="#000000" font-size="5px" font-weight="bold" font-family="'Helvetica Neue', Helvetica, Arial-Unicode, Arial, Sans-serif">from the Noun Project</text></svg>