<svg width="21" height="21" viewBox="0 0 21 21" fill="none" xmlns="http://www.w3.org/2000/svg">
<path d="M11.5344 8.27138C11.5344 8.49904 11.6482 8.61286 11.8759 8.61286H18.6296C19.0343 8.61286 19.3758 8.75199 19.654 9.03023C19.9576 9.30847 20.1093 9.64995 20.1093 10.0547C20.1093 10.4594 19.9576 10.8135 19.654 11.117C19.3758 11.3953 19.0343 11.5344 18.6296 11.5344H11.8759C11.6482 11.5344 11.5344 11.6482 11.5344 11.8759V18.6675C11.5344 19.0722 11.3826 19.4137 11.0791 19.692C10.8009 19.9702 10.4594 20.1093 10.0547 20.1093C9.64995 20.1093 9.29582 19.9702 8.99228 19.692C8.71404 19.4137 8.57492 19.0722 8.57492 18.6675V11.8759C8.57492 11.6482 8.4611 11.5344 8.23344 11.5344H1.47974C1.07503 11.5344 0.720901 11.3953 0.417364 11.117C0.139121 10.8135 0 10.4594 0 10.0547C0 9.64995 0.139121 9.30847 0.417364 9.03023C0.720901 8.75199 1.07503 8.61286 1.47974 8.61286H8.23344C8.4611 8.61286 8.57492 8.49904 8.57492 8.27138V1.47974C8.57492 1.07503 8.71404 0.733548 8.99228 0.455306C9.29582 0.151769 9.64995 0 10.0547 0C10.4594 0 10.8009 0.151769 11.0791 0.455306C11.3826 0.733548 11.5344 1.07503 11.5344 1.47974V8.27138Z" fill="#204977"/>
</svg>
