<svg width="28" height="27" viewBox="0 0 28 27" fill="none" xmlns="http://www.w3.org/2000/svg">
<path d="M27.6962 11.1641L21.5662 17.1641L22.9962 25.5641C23.0319 25.7516 23.0132 25.9454 22.9423 26.1226C22.8714 26.2998 22.7513 26.453 22.5962 26.5641C22.4246 26.6883 22.218 26.7549 22.0062 26.7541C21.8466 26.7522 21.6894 26.7146 21.5462 26.6441L13.9762 22.6441L6.4062 26.6441C6.24724 26.72 6.07104 26.7526 5.89544 26.7386C5.71984 26.7245 5.55106 26.6643 5.4062 26.5641C5.25105 26.453 5.13095 26.2998 5.06007 26.1226C4.98919 25.9454 4.9705 25.7516 5.0062 25.5641L6.4262 17.1341L0.296196 11.1341C0.164131 11.0033 0.071153 10.8382 0.0277004 10.6575C-0.0157523 10.4767 -0.0079588 10.2874 0.0502054 10.1108C0.10837 9.93427 0.214602 9.77741 0.356975 9.65787C0.499348 9.53833 0.672225 9.46084 0.856196 9.43411L9.3162 8.20411L13.0962 0.56411C13.1781 0.395039 13.3059 0.252452 13.4651 0.152684C13.6243 0.0529152 13.8083 0 13.9962 0C14.1841 0 14.3681 0.0529152 14.5273 0.152684C14.6865 0.252452 14.8143 0.395039 14.8962 0.56411L18.6762 8.23411L27.1362 9.46411C27.3202 9.49084 27.493 9.56833 27.6354 9.68787C27.7778 9.80741 27.884 9.96427 27.9422 10.1408C28.0003 10.3174 28.0081 10.5067 27.9647 10.6875C27.9212 10.8682 27.8283 11.0333 27.6962 11.1641V11.1641Z" fill="#204977"/>
</svg>
