<svg width="120" height="120" viewBox="0 0 120 120" fill="none" xmlns="http://www.w3.org/2000/svg">
<path d="M105.903 78.689C105.169 77.9495 103.977 77.9436 103.233 78.6781L102.648 79.2576L82.4038 59.2034L83.9208 57.7016C84.2771 57.347 84.4792 56.8635 84.4792 56.3598C84.4792 55.8561 84.2796 55.3751 83.9208 55.018L52.795 24.192L53.3518 23.6394C53.7081 23.2848 53.9102 22.8013 53.9102 22.2976C53.9102 21.7939 53.7106 21.313 53.3518 20.9584L42.8426 10.5477C42.1064 9.81743 40.9221 9.81743 40.1878 10.5477L22.9924 27.5831C22.6335 27.9377 22.4339 28.4187 22.4339 28.9223C22.4339 29.426 22.6361 29.907 22.9924 30.2641L33.5016 40.6699C33.8697 41.032 34.3489 41.2148 34.8299 41.2148C35.3109 41.2148 35.7901 41.032 36.1582 40.6699L36.7394 40.0946L53.5751 56.766L26.0978 106.227H15.8867C14.8457 106.227 14 107.07 14 108.113C14 109.157 14.8457 110 15.8867 110H91.3562C92.3973 110 93.2429 109.157 93.2429 108.113C93.2429 107.07 92.3973 106.227 91.3562 106.227H79.3738L60.3969 63.5237L67.8908 70.9461C68.2589 71.3082 68.7382 71.491 69.2191 71.491C69.7001 71.491 70.1793 71.3082 70.5474 70.9461L72.0829 69.4232L92.3333 89.4808L91.7732 90.0359C91.0337 90.7695 91.0278 91.9622 91.7622 92.7034C92.132 93.0749 92.6172 93.2618 93.1015 93.2618C93.5808 93.2618 94.0617 93.0791 94.4298 92.7143L103.979 83.2546C103.981 83.2512 103.982 83.247 103.986 83.2436L105.89 81.3569C106.631 80.6249 106.637 79.4314 105.903 78.6894L105.903 78.689ZM53.6221 64.4501V106.226H30.4142L53.6221 64.4501ZM57.3956 106.226V66.0608L75.2463 106.226H57.3956Z" fill="#204977"/>
</svg>
