<svg width="44" height="36" viewBox="0 0 44 36" fill="none" xmlns="http://www.w3.org/2000/svg">
<path d="M43.0874 4.26028C41.7174 4.88028 40.1974 5.26028 38.7074 5.51028C39.4074 5.39028 40.4474 4.12029 40.8574 3.60029C41.4874 2.81029 42.0174 1.92028 42.3074 0.950284C42.3474 0.870284 42.3774 0.780281 42.2974 0.720281C42.1974 0.680281 42.1374 0.700285 42.0674 0.740285C40.4074 1.63029 38.6974 2.27028 36.8774 2.73028C36.7274 2.77028 36.6174 2.73028 36.5174 2.64028C36.3674 2.47028 36.2274 2.31028 36.0674 2.18028C35.2974 1.53028 34.4774 1.02028 33.5574 0.640279C32.3374 0.140279 31.0074 -0.0697158 29.6974 0.0202842C28.4274 0.100284 27.1674 0.460283 26.0374 1.05028C24.9074 1.64028 23.8874 2.47029 23.0874 3.46029C22.2574 4.49029 21.6374 5.70029 21.3274 6.99029C21.0274 8.23029 21.0474 9.46028 21.2374 10.7203C21.2674 10.9303 21.2474 10.9603 21.0574 10.9303C13.9274 9.87028 8.01744 7.32029 3.22744 1.85029C3.01744 1.61029 2.90744 1.61028 2.73744 1.87028C0.637436 5.02028 1.65744 10.0703 4.27744 12.5503C4.62744 12.8803 4.98744 13.2103 5.37744 13.5103C5.23744 13.5403 3.48744 13.3503 1.93744 12.5503C1.72744 12.4203 1.62744 12.4903 1.60744 12.7303C1.58744 13.0703 1.61744 13.3803 1.66744 13.7503C2.06744 16.9403 4.27744 19.8903 7.30744 21.0403C7.66744 21.1903 8.06744 21.3203 8.44744 21.3903C7.75744 21.5403 7.04744 21.6503 5.07744 21.4903C4.82744 21.4403 4.73744 21.5703 4.82744 21.8003C6.31744 25.8503 9.51744 27.0503 11.9174 27.7403C12.2374 27.8003 12.5574 27.8003 12.8874 27.8703C12.8674 27.9003 12.8474 27.9003 12.8274 27.9303C12.0274 29.1403 9.26744 30.0503 7.98744 30.5003C5.64744 31.3203 3.10744 31.6803 0.637436 31.4403C0.237436 31.3803 0.157436 31.3903 0.0474359 31.4403C-0.0625641 31.5103 0.0374359 31.6003 0.157436 31.7003C0.657436 32.0303 1.16744 32.3203 1.68744 32.6103C3.25744 33.4403 4.89744 34.1003 6.60744 34.5803C15.4474 37.0203 25.3974 35.2303 32.0274 28.6403C37.2374 23.4603 39.0674 16.3203 39.0674 9.18028C39.0674 8.90028 39.3974 8.75029 39.5974 8.60029C40.9574 7.58029 42.0474 6.36028 43.0574 5.00028C43.2874 4.69028 43.2874 4.42029 43.2874 4.31029C43.2874 4.29029 43.2874 4.27028 43.2874 4.27028C43.2574 4.15028 43.2574 4.18028 43.0874 4.26028Z" fill="#4DD2FF"/>
</svg>
