<svg width="37" height="36" viewBox="0 0 37 36" fill="none" xmlns="http://www.w3.org/2000/svg">
<path d="M36.829 5.82704C35.658 6.38399 34.3588 6.72534 33.0852 6.94992C33.6836 6.84212 34.5725 5.70128 34.923 5.23416C35.4614 4.5245 35.9145 3.725 36.1623 2.85365C36.1965 2.78178 36.2222 2.70093 36.1538 2.64703C36.0683 2.6111 36.017 2.62907 35.9572 2.665C34.5383 3.4645 33.0767 4.03941 31.521 4.45263C31.3928 4.48856 31.2988 4.45263 31.2133 4.37178C31.0851 4.21907 30.9655 4.07534 30.8287 3.95856C30.1705 3.37466 29.4696 2.91652 28.6833 2.57517C27.6405 2.12601 26.5037 1.93737 25.3839 2.01822C24.2984 2.09009 23.2214 2.41348 22.2555 2.94348C21.2897 3.47348 20.4178 4.21907 19.734 5.1084C19.0246 6.03365 18.4946 7.1206 18.2297 8.27942C17.9732 9.39332 17.9903 10.4982 18.1527 11.6301C18.1784 11.8187 18.1613 11.8457 17.9989 11.8187C11.9045 10.8665 6.85292 8.57586 2.75866 3.66212C2.57916 3.44653 2.48514 3.44653 2.33983 3.68009C0.544849 6.50975 1.4167 11.0462 3.65614 13.274C3.95531 13.5704 4.26302 13.8669 4.59637 14.1364C4.47671 14.1633 2.98089 13.9926 1.65603 13.274C1.47653 13.1572 1.39105 13.2201 1.37396 13.4357C1.35686 13.7411 1.38251 14.0196 1.42524 14.352C1.76714 17.2176 3.65614 19.8676 6.24604 20.9006C6.55375 21.0354 6.89565 21.1521 7.22046 21.215C6.63068 21.3498 6.02381 21.4486 4.33995 21.3049C4.12626 21.2599 4.04933 21.3767 4.12626 21.5833C5.39984 25.2215 8.13504 26.2994 10.1864 26.9193C10.46 26.9732 10.7335 26.9732 11.0156 27.0361C10.9985 27.063 10.9814 27.063 10.9643 27.09C10.2805 28.1769 7.92135 28.9944 6.82727 29.3986C4.82715 30.1352 2.65609 30.4586 0.544849 30.243C0.202949 30.1891 0.134569 30.1981 0.0405459 30.243C-0.0534767 30.3059 0.0319984 30.3867 0.134569 30.4766C0.561944 30.773 0.997868 31.0335 1.44234 31.294C2.7843 32.0396 4.18609 32.6325 5.64772 33.0637C13.2037 35.2556 21.7085 33.6476 27.3755 27.7277C31.8288 23.0745 33.3929 16.6606 33.3929 10.2467C33.3929 9.99518 33.675 9.86044 33.846 9.72569C35.0084 8.80942 35.9401 7.71348 36.8034 6.49178C37 6.21331 37 5.97077 37 5.87196C37 5.85399 37 5.83602 37 5.83602C36.9744 5.72823 36.9744 5.75517 36.829 5.82704Z" fill="#4DD2FF"/>
</svg>
