<svg width="36" height="36" viewBox="0 0 36 36" fill="none" xmlns="http://www.w3.org/2000/svg">
<path fill-rule="evenodd" clip-rule="evenodd" d="M18.5 34.9988C27.6127 34.9988 35 27.8662 35 19.0678C35 10.2693 27.6127 3.13672 18.5 3.13672C9.3873 3.13672 2 10.2693 2 19.0678C2 21.925 2.77903 24.6065 4.1432 26.9251L2 34.9988L10.6211 33.0686C12.9623 34.2995 15.6466 34.9988 18.5 34.9988ZM18.5 32.5479C26.2107 32.5479 32.4615 26.5126 32.4615 19.0678C32.4615 11.6229 26.2107 5.58765 18.5 5.58765C10.7893 5.58765 4.53846 11.6229 4.53846 19.0678C4.53846 21.9422 5.47031 24.6066 7.05824 26.7946L5.80769 31.3224L10.5799 30.1705C12.8303 31.6698 15.559 32.5479 18.5 32.5479Z" fill="#BFC8D0"/>
<path d="M32.6441 17.9325C32.6441 25.4741 26.3121 31.5877 18.5013 31.5877C15.522 31.5877 12.7579 30.6983 10.4783 29.1794L5.64411 30.3463L6.9109 25.7597C5.30234 23.5433 4.3584 20.8443 4.3584 17.9325C4.3584 10.391 10.6904 4.27734 18.5013 4.27734C26.3121 4.27734 32.6441 10.391 32.6441 17.9325Z" fill="url(#paint0_linear_1057_1884)"/>
<path fill-rule="evenodd" clip-rule="evenodd" d="M18.5 33.8621C27.6127 33.8621 35 26.7295 35 17.931C35 9.13257 27.6127 2 18.5 2C9.3873 2 2 9.13257 2 17.931C2 20.7882 2.77903 23.4698 4.1432 25.7884L2 33.8621L10.6211 31.9319C12.9623 33.1627 15.6466 33.8621 18.5 33.8621ZM18.5 31.4111C26.2107 31.4111 32.4615 25.3759 32.4615 17.931C32.4615 10.4862 26.2107 4.45093 18.5 4.45093C10.7893 4.45093 4.53846 10.4862 4.53846 17.931C4.53846 20.8055 5.47031 23.4699 7.05824 25.6578L5.80769 30.1857L10.5799 29.0338C12.8303 30.5331 15.559 31.4111 18.5 31.4111Z" fill="white"/>
<path d="M14.375 10.5309C13.9827 9.77011 13.3809 9.83746 12.7729 9.83746C11.6864 9.83746 9.99219 11.0941 9.99219 13.4327C9.99219 15.3493 10.8669 17.4474 13.8145 20.5859C16.6591 23.6148 20.3968 25.1817 23.4997 25.1283C26.6027 25.075 27.2411 22.4969 27.2411 21.6262C27.2411 21.2403 26.9931 21.0478 26.8222 20.9955C25.7648 20.5055 23.8146 19.5925 23.3708 19.421C22.9271 19.2495 22.6954 19.4815 22.5514 19.6077C22.1489 19.978 21.3513 21.0692 21.0781 21.3146C20.805 21.56 20.3978 21.4358 20.2284 21.343C19.6048 21.1014 17.9142 20.3754 16.5665 19.114C14.8998 17.5541 14.802 17.0174 14.488 16.5397C14.2368 16.1575 14.4212 15.923 14.5131 15.8205C14.8722 15.4205 15.3681 14.8028 15.5904 14.4959C15.8128 14.189 15.6363 13.7229 15.5303 13.4327C15.0748 12.1845 14.6889 11.1395 14.375 10.5309Z" fill="white"/>
<defs>
<linearGradient id="paint0_linear_1057_1884" x1="30.8763" y1="7.69114" x2="5.22659" y2="32.4858" gradientUnits="userSpaceOnUse">
<stop stop-color="#5BD066"/>
<stop offset="1" stop-color="#27B43E"/>
</linearGradient>
</defs>
</svg>
